G04 EAGLE Gerber RS-274X export*
G75*
%MOMM*%
%FSLAX34Y34*%
%LPD*%
%INCopper Layer 2*%
%IPPOS*%
%AMOC8*
5,1,8,0,0,1.08239X$1,22.5*%
G01*
%ADD10C,0.152400*%
%ADD11C,0.808000*%
%ADD12C,1.320800*%
%ADD13C,1.524000*%
%ADD14C,1.508000*%
%ADD15C,1.008000*%
%ADD16C,0.858000*%

G36*
X87885Y2798D02*
X87885Y2798D01*
X87914Y2796D01*
X88042Y2818D01*
X88171Y2835D01*
X88198Y2845D01*
X88227Y2850D01*
X88346Y2904D01*
X88466Y2952D01*
X88490Y2969D01*
X88517Y2981D01*
X88619Y3062D01*
X88724Y3138D01*
X88743Y3161D01*
X88766Y3180D01*
X88844Y3283D01*
X88927Y3383D01*
X88939Y3410D01*
X88957Y3434D01*
X89028Y3578D01*
X89053Y3639D01*
X90611Y5197D01*
X92648Y6041D01*
X94852Y6041D01*
X96889Y5197D01*
X97103Y4983D01*
X97197Y4910D01*
X97286Y4831D01*
X97322Y4813D01*
X97354Y4788D01*
X97463Y4741D01*
X97569Y4687D01*
X97609Y4678D01*
X97646Y4662D01*
X97763Y4643D01*
X97879Y4617D01*
X97920Y4618D01*
X97960Y4612D01*
X98079Y4623D01*
X98197Y4627D01*
X98236Y4638D01*
X98276Y4642D01*
X98388Y4682D01*
X98503Y4715D01*
X98538Y4736D01*
X98576Y4749D01*
X98674Y4816D01*
X98777Y4877D01*
X98822Y4917D01*
X98839Y4928D01*
X98852Y4943D01*
X98898Y4983D01*
X99112Y5197D01*
X101148Y6041D01*
X103352Y6041D01*
X105389Y5197D01*
X105603Y4983D01*
X105697Y4910D01*
X105786Y4831D01*
X105822Y4813D01*
X105854Y4788D01*
X105963Y4741D01*
X106069Y4687D01*
X106109Y4678D01*
X106146Y4662D01*
X106263Y4643D01*
X106379Y4617D01*
X106420Y4618D01*
X106460Y4612D01*
X106579Y4623D01*
X106697Y4627D01*
X106736Y4638D01*
X106776Y4642D01*
X106889Y4682D01*
X107003Y4715D01*
X107038Y4736D01*
X107076Y4749D01*
X107174Y4816D01*
X107277Y4877D01*
X107322Y4917D01*
X107339Y4928D01*
X107352Y4943D01*
X107398Y4983D01*
X107612Y5197D01*
X109648Y6041D01*
X111852Y6041D01*
X113889Y5197D01*
X114103Y4983D01*
X114197Y4910D01*
X114286Y4831D01*
X114322Y4813D01*
X114354Y4788D01*
X114463Y4741D01*
X114569Y4687D01*
X114609Y4678D01*
X114646Y4662D01*
X114763Y4643D01*
X114880Y4617D01*
X114920Y4618D01*
X114960Y4612D01*
X115079Y4623D01*
X115197Y4627D01*
X115236Y4638D01*
X115276Y4642D01*
X115389Y4682D01*
X115503Y4715D01*
X115538Y4736D01*
X115576Y4749D01*
X115674Y4816D01*
X115777Y4877D01*
X115822Y4917D01*
X115839Y4928D01*
X115852Y4943D01*
X115898Y4983D01*
X116112Y5197D01*
X118148Y6041D01*
X120352Y6041D01*
X122389Y5197D01*
X122603Y4983D01*
X122697Y4910D01*
X122786Y4831D01*
X122822Y4813D01*
X122854Y4788D01*
X122963Y4741D01*
X123069Y4687D01*
X123109Y4678D01*
X123146Y4662D01*
X123263Y4643D01*
X123380Y4617D01*
X123420Y4618D01*
X123460Y4612D01*
X123579Y4623D01*
X123697Y4627D01*
X123736Y4638D01*
X123776Y4642D01*
X123889Y4682D01*
X124003Y4715D01*
X124038Y4736D01*
X124076Y4749D01*
X124174Y4816D01*
X124277Y4877D01*
X124322Y4917D01*
X124339Y4928D01*
X124352Y4943D01*
X124398Y4983D01*
X124612Y5197D01*
X126648Y6041D01*
X128852Y6041D01*
X130889Y5197D01*
X131103Y4983D01*
X131197Y4910D01*
X131286Y4831D01*
X131322Y4813D01*
X131354Y4788D01*
X131463Y4741D01*
X131569Y4687D01*
X131609Y4678D01*
X131646Y4662D01*
X131763Y4643D01*
X131880Y4617D01*
X131920Y4618D01*
X131960Y4612D01*
X132079Y4623D01*
X132197Y4627D01*
X132236Y4638D01*
X132276Y4642D01*
X132389Y4682D01*
X132503Y4715D01*
X132538Y4736D01*
X132576Y4749D01*
X132674Y4816D01*
X132777Y4877D01*
X132822Y4917D01*
X132839Y4928D01*
X132852Y4943D01*
X132898Y4983D01*
X133112Y5197D01*
X135148Y6041D01*
X137352Y6041D01*
X139389Y5197D01*
X140947Y3639D01*
X140972Y3578D01*
X140987Y3553D01*
X140996Y3525D01*
X141066Y3415D01*
X141130Y3302D01*
X141150Y3281D01*
X141166Y3256D01*
X141261Y3167D01*
X141351Y3074D01*
X141376Y3058D01*
X141398Y3038D01*
X141512Y2975D01*
X141622Y2907D01*
X141651Y2899D01*
X141676Y2884D01*
X141802Y2852D01*
X141926Y2814D01*
X141956Y2812D01*
X141984Y2805D01*
X142145Y2795D01*
X857855Y2795D01*
X857885Y2798D01*
X857914Y2796D01*
X858042Y2818D01*
X858171Y2835D01*
X858198Y2845D01*
X858227Y2850D01*
X858346Y2904D01*
X858466Y2952D01*
X858490Y2969D01*
X858517Y2981D01*
X858619Y3062D01*
X858724Y3138D01*
X858743Y3161D01*
X858766Y3180D01*
X858844Y3283D01*
X858927Y3383D01*
X858939Y3410D01*
X858957Y3434D01*
X859028Y3578D01*
X859053Y3639D01*
X860611Y5197D01*
X862648Y6041D01*
X864852Y6041D01*
X866889Y5197D01*
X867103Y4983D01*
X867197Y4910D01*
X867286Y4831D01*
X867322Y4813D01*
X867354Y4788D01*
X867463Y4741D01*
X867569Y4687D01*
X867609Y4678D01*
X867646Y4662D01*
X867763Y4643D01*
X867879Y4617D01*
X867920Y4618D01*
X867960Y4612D01*
X868079Y4623D01*
X868197Y4627D01*
X868236Y4638D01*
X868276Y4642D01*
X868388Y4682D01*
X868503Y4715D01*
X868538Y4736D01*
X868576Y4749D01*
X868674Y4816D01*
X868777Y4877D01*
X868822Y4917D01*
X868839Y4928D01*
X868852Y4943D01*
X868898Y4983D01*
X869112Y5197D01*
X871148Y6041D01*
X873352Y6041D01*
X875389Y5197D01*
X875603Y4983D01*
X875697Y4910D01*
X875786Y4831D01*
X875822Y4813D01*
X875854Y4788D01*
X875963Y4741D01*
X876069Y4687D01*
X876109Y4678D01*
X876146Y4662D01*
X876263Y4643D01*
X876379Y4617D01*
X876420Y4618D01*
X876460Y4612D01*
X876579Y4623D01*
X876697Y4627D01*
X876736Y4638D01*
X876776Y4642D01*
X876889Y4682D01*
X877003Y4715D01*
X877038Y4736D01*
X877076Y4749D01*
X877174Y4816D01*
X877277Y4877D01*
X877322Y4917D01*
X877339Y4928D01*
X877352Y4943D01*
X877398Y4983D01*
X877612Y5197D01*
X879648Y6041D01*
X881852Y6041D01*
X883889Y5197D01*
X884103Y4983D01*
X884197Y4910D01*
X884286Y4832D01*
X884322Y4813D01*
X884354Y4788D01*
X884463Y4741D01*
X884569Y4687D01*
X884609Y4678D01*
X884646Y4662D01*
X884763Y4643D01*
X884879Y4617D01*
X884920Y4618D01*
X884960Y4612D01*
X885078Y4623D01*
X885197Y4627D01*
X885236Y4638D01*
X885276Y4642D01*
X885389Y4682D01*
X885503Y4715D01*
X885538Y4736D01*
X885576Y4750D01*
X885674Y4816D01*
X885777Y4877D01*
X885822Y4917D01*
X885839Y4928D01*
X885852Y4943D01*
X885898Y4983D01*
X886112Y5197D01*
X888148Y6041D01*
X890352Y6041D01*
X892389Y5197D01*
X892603Y4983D01*
X892697Y4910D01*
X892786Y4832D01*
X892822Y4813D01*
X892854Y4788D01*
X892963Y4741D01*
X893069Y4687D01*
X893109Y4678D01*
X893146Y4662D01*
X893263Y4643D01*
X893379Y4617D01*
X893420Y4618D01*
X893460Y4612D01*
X893578Y4623D01*
X893697Y4627D01*
X893736Y4638D01*
X893776Y4642D01*
X893889Y4682D01*
X894003Y4715D01*
X894038Y4736D01*
X894076Y4750D01*
X894174Y4816D01*
X894277Y4877D01*
X894322Y4917D01*
X894339Y4928D01*
X894352Y4943D01*
X894398Y4983D01*
X894612Y5197D01*
X896648Y6041D01*
X898852Y6041D01*
X900889Y5197D01*
X901103Y4983D01*
X901197Y4910D01*
X901286Y4831D01*
X901322Y4813D01*
X901354Y4788D01*
X901463Y4741D01*
X901569Y4687D01*
X901609Y4678D01*
X901646Y4662D01*
X901763Y4643D01*
X901880Y4617D01*
X901920Y4618D01*
X901960Y4612D01*
X902079Y4623D01*
X902197Y4627D01*
X902236Y4638D01*
X902276Y4642D01*
X902389Y4682D01*
X902503Y4715D01*
X902538Y4736D01*
X902576Y4749D01*
X902674Y4816D01*
X902777Y4877D01*
X902822Y4917D01*
X902839Y4928D01*
X902852Y4943D01*
X902898Y4983D01*
X903112Y5197D01*
X905148Y6041D01*
X907352Y6041D01*
X909389Y5197D01*
X910947Y3639D01*
X910972Y3578D01*
X910987Y3553D01*
X910996Y3525D01*
X911066Y3415D01*
X911130Y3302D01*
X911150Y3281D01*
X911166Y3256D01*
X911261Y3167D01*
X911351Y3074D01*
X911376Y3058D01*
X911398Y3038D01*
X911512Y2975D01*
X911622Y2907D01*
X911651Y2899D01*
X911676Y2884D01*
X911802Y2852D01*
X911926Y2814D01*
X911956Y2812D01*
X911984Y2805D01*
X912145Y2795D01*
X975000Y2795D01*
X975022Y2797D01*
X975100Y2799D01*
X978375Y3056D01*
X978442Y3070D01*
X978511Y3075D01*
X978667Y3115D01*
X984897Y5139D01*
X985004Y5189D01*
X985115Y5233D01*
X985166Y5265D01*
X985185Y5274D01*
X985200Y5287D01*
X985251Y5319D01*
X990550Y9169D01*
X990637Y9250D01*
X990728Y9326D01*
X990767Y9373D01*
X990782Y9387D01*
X990793Y9404D01*
X990831Y9450D01*
X994681Y14749D01*
X994698Y14781D01*
X994720Y14807D01*
X994752Y14874D01*
X994802Y14953D01*
X994824Y15010D01*
X994834Y15028D01*
X994839Y15048D01*
X994861Y15103D01*
X996885Y21333D01*
X996898Y21400D01*
X996921Y21466D01*
X996944Y21625D01*
X997201Y24900D01*
X997200Y24922D01*
X997205Y25000D01*
X997205Y555000D01*
X997203Y555022D01*
X997201Y555100D01*
X996944Y558375D01*
X996930Y558442D01*
X996925Y558511D01*
X996885Y558667D01*
X994861Y564897D01*
X994811Y565004D01*
X994767Y565115D01*
X994735Y565166D01*
X994726Y565185D01*
X994713Y565200D01*
X994681Y565251D01*
X990831Y570550D01*
X990750Y570637D01*
X990674Y570728D01*
X990627Y570767D01*
X990613Y570782D01*
X990596Y570793D01*
X990550Y570831D01*
X985251Y574681D01*
X985147Y574738D01*
X985047Y574802D01*
X984990Y574824D01*
X984972Y574834D01*
X984952Y574839D01*
X984897Y574861D01*
X978667Y576885D01*
X978599Y576898D01*
X978534Y576921D01*
X978375Y576944D01*
X975100Y577201D01*
X975078Y577200D01*
X975000Y577205D01*
X912145Y577205D01*
X912116Y577202D01*
X912086Y577204D01*
X911958Y577182D01*
X911829Y577165D01*
X911802Y577155D01*
X911773Y577150D01*
X911654Y577096D01*
X911534Y577048D01*
X911510Y577031D01*
X911483Y577019D01*
X911381Y576938D01*
X911276Y576862D01*
X911258Y576839D01*
X911235Y576820D01*
X911156Y576717D01*
X911074Y576617D01*
X911061Y576590D01*
X911043Y576566D01*
X910972Y576422D01*
X910947Y576361D01*
X909389Y574803D01*
X907352Y573959D01*
X905148Y573959D01*
X903112Y574803D01*
X902898Y575017D01*
X902804Y575090D01*
X902714Y575169D01*
X902678Y575187D01*
X902646Y575212D01*
X902537Y575259D01*
X902431Y575313D01*
X902392Y575322D01*
X902355Y575338D01*
X902237Y575357D01*
X902121Y575383D01*
X902080Y575382D01*
X902040Y575388D01*
X901922Y575377D01*
X901803Y575373D01*
X901764Y575362D01*
X901724Y575358D01*
X901612Y575318D01*
X901497Y575285D01*
X901463Y575264D01*
X901425Y575251D01*
X901326Y575184D01*
X901223Y575123D01*
X901178Y575083D01*
X901161Y575072D01*
X901148Y575057D01*
X901103Y575017D01*
X900889Y574803D01*
X898852Y573959D01*
X896648Y573959D01*
X894612Y574803D01*
X894398Y575017D01*
X894304Y575090D01*
X894214Y575169D01*
X894178Y575187D01*
X894146Y575212D01*
X894037Y575259D01*
X893931Y575313D01*
X893892Y575322D01*
X893855Y575338D01*
X893737Y575357D01*
X893621Y575383D01*
X893580Y575382D01*
X893540Y575388D01*
X893422Y575377D01*
X893303Y575373D01*
X893264Y575362D01*
X893224Y575358D01*
X893112Y575318D01*
X892997Y575285D01*
X892963Y575264D01*
X892925Y575251D01*
X892826Y575184D01*
X892723Y575123D01*
X892678Y575083D01*
X892661Y575072D01*
X892648Y575057D01*
X892603Y575017D01*
X892389Y574803D01*
X890352Y573959D01*
X888148Y573959D01*
X886112Y574803D01*
X885898Y575017D01*
X885804Y575090D01*
X885714Y575169D01*
X885678Y575187D01*
X885646Y575212D01*
X885537Y575259D01*
X885431Y575313D01*
X885391Y575322D01*
X885355Y575338D01*
X885237Y575357D01*
X885121Y575383D01*
X885080Y575382D01*
X885040Y575388D01*
X884922Y575377D01*
X884803Y575373D01*
X884764Y575362D01*
X884724Y575358D01*
X884612Y575318D01*
X884497Y575285D01*
X884463Y575264D01*
X884425Y575251D01*
X884326Y575184D01*
X884223Y575123D01*
X884178Y575083D01*
X884161Y575072D01*
X884148Y575057D01*
X884103Y575017D01*
X883889Y574803D01*
X881852Y573959D01*
X879648Y573959D01*
X877612Y574803D01*
X877398Y575017D01*
X877303Y575090D01*
X877214Y575169D01*
X877178Y575187D01*
X877146Y575212D01*
X877037Y575259D01*
X876931Y575313D01*
X876891Y575322D01*
X876854Y575338D01*
X876737Y575357D01*
X876621Y575383D01*
X876580Y575382D01*
X876540Y575388D01*
X876421Y575377D01*
X876303Y575373D01*
X876264Y575362D01*
X876224Y575358D01*
X876112Y575318D01*
X875997Y575285D01*
X875963Y575264D01*
X875924Y575251D01*
X875826Y575184D01*
X875723Y575123D01*
X875678Y575083D01*
X875661Y575072D01*
X875648Y575057D01*
X875603Y575017D01*
X875389Y574803D01*
X873352Y573959D01*
X871148Y573959D01*
X869112Y574803D01*
X868898Y575017D01*
X868803Y575090D01*
X868714Y575169D01*
X868678Y575187D01*
X868646Y575212D01*
X868537Y575259D01*
X868431Y575313D01*
X868391Y575322D01*
X868354Y575338D01*
X868237Y575357D01*
X868121Y575383D01*
X868080Y575382D01*
X868040Y575388D01*
X867921Y575377D01*
X867803Y575373D01*
X867764Y575362D01*
X867724Y575358D01*
X867612Y575318D01*
X867497Y575285D01*
X867462Y575264D01*
X867424Y575251D01*
X867326Y575184D01*
X867223Y575123D01*
X867178Y575083D01*
X867161Y575072D01*
X867148Y575057D01*
X867103Y575017D01*
X866889Y574803D01*
X864852Y573959D01*
X862648Y573959D01*
X860611Y574803D01*
X859053Y576361D01*
X859028Y576422D01*
X859013Y576447D01*
X859004Y576475D01*
X858935Y576585D01*
X858870Y576698D01*
X858850Y576719D01*
X858834Y576744D01*
X858739Y576833D01*
X858649Y576926D01*
X858624Y576942D01*
X858602Y576962D01*
X858489Y577025D01*
X858378Y577093D01*
X858350Y577101D01*
X858324Y577116D01*
X858198Y577148D01*
X858074Y577186D01*
X858044Y577188D01*
X858016Y577195D01*
X857855Y577205D01*
X640556Y577205D01*
X640438Y577190D01*
X640319Y577183D01*
X640281Y577170D01*
X640241Y577165D01*
X640130Y577122D01*
X640017Y577085D01*
X639983Y577063D01*
X639945Y577048D01*
X639849Y576979D01*
X639748Y576915D01*
X639720Y576885D01*
X639688Y576862D01*
X639612Y576770D01*
X639530Y576683D01*
X639511Y576648D01*
X639485Y576617D01*
X639434Y576509D01*
X639377Y576405D01*
X639367Y576365D01*
X639349Y576329D01*
X639327Y576212D01*
X639297Y576097D01*
X639293Y576037D01*
X639290Y576017D01*
X639291Y575996D01*
X639287Y575936D01*
X639287Y418832D01*
X616222Y395767D01*
X405503Y397186D01*
X375919Y426770D01*
X375919Y575936D01*
X375904Y576054D01*
X375897Y576173D01*
X375884Y576211D01*
X375879Y576252D01*
X375836Y576362D01*
X375799Y576475D01*
X375777Y576510D01*
X375762Y576547D01*
X375693Y576643D01*
X375629Y576744D01*
X375599Y576772D01*
X375576Y576805D01*
X375484Y576881D01*
X375397Y576962D01*
X375362Y576982D01*
X375331Y577007D01*
X375223Y577058D01*
X375119Y577116D01*
X375079Y577126D01*
X375043Y577143D01*
X374926Y577165D01*
X374811Y577195D01*
X374751Y577199D01*
X374731Y577203D01*
X374710Y577201D01*
X374650Y577205D01*
X260350Y577205D01*
X260232Y577190D01*
X260113Y577183D01*
X260075Y577170D01*
X260034Y577165D01*
X259924Y577122D01*
X259811Y577085D01*
X259776Y577063D01*
X259739Y577048D01*
X259643Y576979D01*
X259542Y576915D01*
X259514Y576885D01*
X259481Y576862D01*
X259406Y576770D01*
X259324Y576683D01*
X259304Y576648D01*
X259279Y576617D01*
X259228Y576509D01*
X259170Y576405D01*
X259160Y576365D01*
X259143Y576329D01*
X259121Y576212D01*
X259091Y576097D01*
X259087Y576037D01*
X259083Y576017D01*
X259085Y575996D01*
X259081Y575936D01*
X259081Y424388D01*
X230456Y395763D01*
X14361Y395763D01*
X14356Y395762D01*
X14346Y395763D01*
X4049Y395643D01*
X3939Y395628D01*
X3827Y395621D01*
X3782Y395606D01*
X3734Y395600D01*
X3631Y395557D01*
X3525Y395523D01*
X3484Y395497D01*
X3440Y395479D01*
X3350Y395413D01*
X3256Y395353D01*
X3223Y395318D01*
X3185Y395289D01*
X3115Y395203D01*
X3038Y395121D01*
X3015Y395079D01*
X2985Y395042D01*
X2938Y394940D01*
X2884Y394843D01*
X2872Y394796D01*
X2853Y394753D01*
X2833Y394643D01*
X2805Y394535D01*
X2800Y394461D01*
X2796Y394440D01*
X2798Y394422D01*
X2795Y394374D01*
X2795Y25000D01*
X2797Y24978D01*
X2799Y24900D01*
X3056Y21625D01*
X3070Y21558D01*
X3075Y21489D01*
X3115Y21333D01*
X5139Y15103D01*
X5183Y15009D01*
X5203Y14948D01*
X5217Y14925D01*
X5233Y14885D01*
X5265Y14834D01*
X5274Y14815D01*
X5287Y14800D01*
X5319Y14749D01*
X9169Y9450D01*
X9250Y9363D01*
X9326Y9272D01*
X9373Y9233D01*
X9387Y9218D01*
X9404Y9207D01*
X9450Y9169D01*
X14749Y5319D01*
X14853Y5262D01*
X14953Y5198D01*
X15010Y5176D01*
X15028Y5166D01*
X15048Y5161D01*
X15103Y5139D01*
X21332Y3115D01*
X21333Y3115D01*
X21400Y3102D01*
X21466Y3079D01*
X21625Y3056D01*
X24900Y2799D01*
X24922Y2800D01*
X25000Y2795D01*
X87855Y2795D01*
X87885Y2798D01*
G37*
%LPC*%
G36*
X585572Y308435D02*
X585572Y308435D01*
X582240Y309815D01*
X579690Y312365D01*
X578310Y315697D01*
X578310Y319303D01*
X579690Y322635D01*
X582240Y325185D01*
X585572Y326565D01*
X589178Y326565D01*
X592510Y325185D01*
X595060Y322635D01*
X595727Y321023D01*
X595796Y320902D01*
X595861Y320779D01*
X595875Y320764D01*
X595885Y320747D01*
X595982Y320647D01*
X596075Y320544D01*
X596092Y320533D01*
X596106Y320518D01*
X596224Y320446D01*
X596341Y320369D01*
X596360Y320363D01*
X596377Y320352D01*
X596510Y320311D01*
X596642Y320266D01*
X596662Y320264D01*
X596681Y320258D01*
X596820Y320252D01*
X596959Y320241D01*
X596979Y320244D01*
X596999Y320243D01*
X597135Y320271D01*
X597272Y320295D01*
X597291Y320303D01*
X597310Y320308D01*
X597435Y320369D01*
X597562Y320426D01*
X597578Y320438D01*
X597596Y320447D01*
X597702Y320538D01*
X597810Y320624D01*
X597823Y320640D01*
X597838Y320654D01*
X597918Y320767D01*
X598002Y320878D01*
X598014Y320904D01*
X598021Y320914D01*
X598028Y320933D01*
X598073Y321023D01*
X598740Y322635D01*
X601290Y325185D01*
X604622Y326565D01*
X608228Y326565D01*
X611560Y325185D01*
X614110Y322635D01*
X614777Y321023D01*
X614846Y320902D01*
X614911Y320779D01*
X614925Y320764D01*
X614935Y320747D01*
X615032Y320647D01*
X615125Y320544D01*
X615142Y320533D01*
X615156Y320518D01*
X615275Y320445D01*
X615391Y320369D01*
X615410Y320363D01*
X615427Y320352D01*
X615560Y320311D01*
X615692Y320266D01*
X615712Y320264D01*
X615731Y320258D01*
X615870Y320252D01*
X616009Y320241D01*
X616029Y320244D01*
X616049Y320243D01*
X616185Y320271D01*
X616322Y320295D01*
X616341Y320303D01*
X616360Y320308D01*
X616486Y320369D01*
X616612Y320426D01*
X616628Y320438D01*
X616646Y320447D01*
X616752Y320537D01*
X616860Y320624D01*
X616873Y320640D01*
X616888Y320654D01*
X616968Y320767D01*
X617052Y320878D01*
X617064Y320904D01*
X617071Y320914D01*
X617078Y320933D01*
X617123Y321023D01*
X617790Y322635D01*
X620340Y325185D01*
X623672Y326565D01*
X627278Y326565D01*
X630610Y325185D01*
X633160Y322635D01*
X634621Y319107D01*
X634690Y318986D01*
X634755Y318863D01*
X634769Y318848D01*
X634779Y318830D01*
X634875Y318730D01*
X634969Y318628D01*
X634986Y318616D01*
X635000Y318602D01*
X635118Y318529D01*
X635235Y318453D01*
X635254Y318446D01*
X635271Y318436D01*
X635404Y318395D01*
X635535Y318350D01*
X635556Y318348D01*
X635575Y318342D01*
X635714Y318335D01*
X635852Y318324D01*
X635872Y318328D01*
X635893Y318327D01*
X636029Y318355D01*
X636166Y318379D01*
X636184Y318387D01*
X636204Y318391D01*
X636329Y318452D01*
X636456Y318509D01*
X636472Y318522D01*
X636490Y318531D01*
X636596Y318621D01*
X636704Y318708D01*
X636716Y318724D01*
X636732Y318737D01*
X636812Y318851D01*
X636895Y318962D01*
X636908Y318987D01*
X636915Y318997D01*
X636922Y319017D01*
X636966Y319107D01*
X638428Y322635D01*
X640978Y325185D01*
X644309Y326565D01*
X647916Y326565D01*
X651247Y325185D01*
X653797Y322635D01*
X655259Y319107D01*
X655327Y318986D01*
X655392Y318863D01*
X655406Y318848D01*
X655416Y318830D01*
X655513Y318730D01*
X655606Y318628D01*
X655623Y318616D01*
X655637Y318602D01*
X655756Y318529D01*
X655872Y318453D01*
X655891Y318446D01*
X655909Y318436D01*
X656041Y318395D01*
X656173Y318350D01*
X656193Y318348D01*
X656212Y318342D01*
X656351Y318335D01*
X656490Y318324D01*
X656510Y318328D01*
X656530Y318327D01*
X656666Y318355D01*
X656803Y318379D01*
X656822Y318387D01*
X656842Y318391D01*
X656967Y318453D01*
X657093Y318509D01*
X657109Y318522D01*
X657127Y318531D01*
X657234Y318622D01*
X657342Y318708D01*
X657354Y318724D01*
X657369Y318737D01*
X657450Y318851D01*
X657533Y318962D01*
X657545Y318987D01*
X657552Y318997D01*
X657560Y319017D01*
X657604Y319107D01*
X659065Y322635D01*
X661615Y325185D01*
X664947Y326565D01*
X668553Y326565D01*
X671885Y325185D01*
X674435Y322635D01*
X675102Y321023D01*
X675171Y320902D01*
X675236Y320779D01*
X675250Y320764D01*
X675260Y320747D01*
X675357Y320647D01*
X675450Y320544D01*
X675467Y320533D01*
X675481Y320518D01*
X675600Y320445D01*
X675716Y320369D01*
X675735Y320363D01*
X675752Y320352D01*
X675885Y320311D01*
X676017Y320266D01*
X676037Y320264D01*
X676056Y320258D01*
X676195Y320252D01*
X676334Y320241D01*
X676354Y320244D01*
X676374Y320243D01*
X676510Y320271D01*
X676647Y320295D01*
X676666Y320303D01*
X676685Y320308D01*
X676811Y320369D01*
X676937Y320426D01*
X676953Y320438D01*
X676971Y320447D01*
X677077Y320537D01*
X677185Y320624D01*
X677198Y320640D01*
X677213Y320654D01*
X677293Y320767D01*
X677377Y320878D01*
X677389Y320904D01*
X677396Y320914D01*
X677403Y320933D01*
X677448Y321023D01*
X678115Y322635D01*
X680665Y325185D01*
X683997Y326565D01*
X687603Y326565D01*
X690935Y325185D01*
X693485Y322635D01*
X694152Y321023D01*
X694221Y320902D01*
X694286Y320779D01*
X694300Y320764D01*
X694310Y320747D01*
X694407Y320647D01*
X694500Y320544D01*
X694517Y320533D01*
X694531Y320518D01*
X694649Y320446D01*
X694766Y320369D01*
X694785Y320363D01*
X694802Y320352D01*
X694935Y320311D01*
X695067Y320266D01*
X695087Y320264D01*
X695106Y320258D01*
X695245Y320252D01*
X695384Y320241D01*
X695404Y320244D01*
X695424Y320243D01*
X695560Y320271D01*
X695697Y320295D01*
X695716Y320303D01*
X695735Y320307D01*
X695860Y320369D01*
X695987Y320426D01*
X696003Y320438D01*
X696021Y320447D01*
X696127Y320537D01*
X696235Y320624D01*
X696248Y320640D01*
X696263Y320654D01*
X696343Y320767D01*
X696427Y320878D01*
X696439Y320904D01*
X696446Y320914D01*
X696453Y320933D01*
X696498Y321023D01*
X697165Y322635D01*
X699715Y325185D01*
X703047Y326565D01*
X706653Y326565D01*
X709985Y325185D01*
X712535Y322635D01*
X713915Y319303D01*
X713915Y315697D01*
X712535Y312365D01*
X709985Y309815D01*
X706653Y308435D01*
X703047Y308435D01*
X699715Y309815D01*
X697165Y312365D01*
X696498Y313977D01*
X696429Y314098D01*
X696364Y314221D01*
X696350Y314236D01*
X696340Y314253D01*
X696243Y314353D01*
X696150Y314456D01*
X696133Y314467D01*
X696119Y314482D01*
X696000Y314554D01*
X695884Y314631D01*
X695865Y314637D01*
X695848Y314648D01*
X695715Y314689D01*
X695583Y314734D01*
X695563Y314736D01*
X695544Y314742D01*
X695405Y314748D01*
X695266Y314759D01*
X695246Y314756D01*
X695226Y314757D01*
X695090Y314729D01*
X694953Y314705D01*
X694934Y314697D01*
X694915Y314693D01*
X694789Y314631D01*
X694663Y314574D01*
X694647Y314562D01*
X694629Y314553D01*
X694523Y314462D01*
X694415Y314376D01*
X694402Y314360D01*
X694387Y314346D01*
X694307Y314233D01*
X694223Y314122D01*
X694211Y314096D01*
X694204Y314086D01*
X694197Y314067D01*
X694152Y313977D01*
X693485Y312365D01*
X690935Y309815D01*
X687603Y308435D01*
X683997Y308435D01*
X680665Y309815D01*
X678115Y312365D01*
X677448Y313977D01*
X677379Y314098D01*
X677314Y314221D01*
X677300Y314236D01*
X677290Y314253D01*
X677193Y314353D01*
X677100Y314456D01*
X677083Y314467D01*
X677069Y314482D01*
X676951Y314554D01*
X676834Y314631D01*
X676815Y314637D01*
X676798Y314648D01*
X676665Y314689D01*
X676533Y314734D01*
X676513Y314736D01*
X676494Y314742D01*
X676355Y314748D01*
X676216Y314759D01*
X676196Y314756D01*
X676176Y314757D01*
X676040Y314729D01*
X675903Y314705D01*
X675884Y314697D01*
X675865Y314692D01*
X675740Y314631D01*
X675613Y314574D01*
X675597Y314562D01*
X675579Y314553D01*
X675473Y314462D01*
X675365Y314376D01*
X675352Y314360D01*
X675337Y314346D01*
X675257Y314233D01*
X675173Y314122D01*
X675161Y314096D01*
X675154Y314086D01*
X675147Y314067D01*
X675102Y313977D01*
X674435Y312365D01*
X671885Y309815D01*
X668553Y308435D01*
X664947Y308435D01*
X661615Y309815D01*
X659065Y312365D01*
X657604Y315893D01*
X657535Y316014D01*
X657470Y316137D01*
X657456Y316152D01*
X657446Y316170D01*
X657350Y316270D01*
X657256Y316372D01*
X657239Y316383D01*
X657225Y316398D01*
X657106Y316471D01*
X656990Y316547D01*
X656971Y316554D01*
X656954Y316564D01*
X656821Y316605D01*
X656690Y316650D01*
X656669Y316652D01*
X656650Y316658D01*
X656512Y316665D01*
X656373Y316676D01*
X656352Y316672D01*
X656332Y316673D01*
X656197Y316645D01*
X656059Y316621D01*
X656041Y316613D01*
X656021Y316609D01*
X655896Y316547D01*
X655769Y316491D01*
X655753Y316478D01*
X655735Y316469D01*
X655629Y316379D01*
X655521Y316292D01*
X655509Y316276D01*
X655493Y316263D01*
X655413Y316149D01*
X655330Y316038D01*
X655317Y316013D01*
X655310Y316003D01*
X655303Y315983D01*
X655259Y315893D01*
X653797Y312365D01*
X651247Y309815D01*
X647916Y308435D01*
X644309Y308435D01*
X640978Y309815D01*
X638428Y312365D01*
X636966Y315893D01*
X636898Y316014D01*
X636832Y316137D01*
X636819Y316152D01*
X636809Y316170D01*
X636712Y316270D01*
X636619Y316372D01*
X636602Y316384D01*
X636588Y316398D01*
X636469Y316471D01*
X636353Y316547D01*
X636334Y316554D01*
X636316Y316564D01*
X636184Y316605D01*
X636052Y316650D01*
X636032Y316652D01*
X636012Y316658D01*
X635874Y316665D01*
X635735Y316676D01*
X635715Y316672D01*
X635695Y316673D01*
X635559Y316645D01*
X635422Y316621D01*
X635403Y316613D01*
X635383Y316609D01*
X635258Y316548D01*
X635132Y316491D01*
X635116Y316478D01*
X635098Y316469D01*
X634992Y316379D01*
X634883Y316292D01*
X634871Y316276D01*
X634856Y316263D01*
X634775Y316149D01*
X634692Y316038D01*
X634680Y316013D01*
X634673Y316003D01*
X634665Y315983D01*
X634621Y315893D01*
X633160Y312365D01*
X630610Y309815D01*
X627278Y308435D01*
X623672Y308435D01*
X620340Y309815D01*
X617790Y312365D01*
X617123Y313977D01*
X617054Y314098D01*
X616989Y314221D01*
X616975Y314236D01*
X616965Y314253D01*
X616868Y314353D01*
X616775Y314456D01*
X616758Y314467D01*
X616744Y314482D01*
X616626Y314554D01*
X616509Y314631D01*
X616490Y314637D01*
X616473Y314648D01*
X616340Y314689D01*
X616208Y314734D01*
X616188Y314736D01*
X616169Y314742D01*
X616030Y314748D01*
X615891Y314759D01*
X615871Y314756D01*
X615851Y314757D01*
X615715Y314729D01*
X615578Y314705D01*
X615559Y314697D01*
X615540Y314692D01*
X615415Y314631D01*
X615288Y314574D01*
X615272Y314562D01*
X615254Y314553D01*
X615148Y314462D01*
X615040Y314376D01*
X615027Y314360D01*
X615012Y314346D01*
X614932Y314233D01*
X614848Y314122D01*
X614836Y314096D01*
X614829Y314086D01*
X614822Y314067D01*
X614777Y313977D01*
X614110Y312365D01*
X611560Y309815D01*
X608228Y308435D01*
X604622Y308435D01*
X601290Y309815D01*
X598740Y312365D01*
X598073Y313977D01*
X598004Y314098D01*
X597939Y314221D01*
X597925Y314236D01*
X597915Y314253D01*
X597818Y314353D01*
X597725Y314456D01*
X597708Y314467D01*
X597694Y314482D01*
X597575Y314555D01*
X597459Y314631D01*
X597440Y314637D01*
X597423Y314648D01*
X597290Y314689D01*
X597158Y314734D01*
X597138Y314736D01*
X597119Y314742D01*
X596980Y314748D01*
X596841Y314759D01*
X596821Y314756D01*
X596801Y314757D01*
X596665Y314729D01*
X596528Y314705D01*
X596509Y314697D01*
X596490Y314692D01*
X596364Y314631D01*
X596238Y314574D01*
X596222Y314562D01*
X596204Y314553D01*
X596098Y314463D01*
X595990Y314376D01*
X595977Y314360D01*
X595962Y314346D01*
X595882Y314233D01*
X595798Y314122D01*
X595786Y314096D01*
X595779Y314086D01*
X595772Y314067D01*
X595727Y313977D01*
X595060Y312365D01*
X592510Y309815D01*
X589178Y308435D01*
X585572Y308435D01*
G37*
%LPD*%
%LPC*%
G36*
X966511Y532459D02*
X966511Y532459D01*
X960064Y535130D01*
X955130Y540064D01*
X952459Y546511D01*
X952459Y553489D01*
X955130Y559936D01*
X960064Y564870D01*
X966511Y567541D01*
X973489Y567541D01*
X979936Y564870D01*
X984870Y559936D01*
X987541Y553489D01*
X987541Y546511D01*
X984870Y540064D01*
X979936Y535130D01*
X973489Y532459D01*
X966511Y532459D01*
G37*
%LPD*%
%LPC*%
G36*
X26511Y12459D02*
X26511Y12459D01*
X20064Y15130D01*
X15130Y20064D01*
X12459Y26511D01*
X12459Y33489D01*
X15130Y39936D01*
X20064Y44870D01*
X26511Y47541D01*
X33489Y47541D01*
X39936Y44870D01*
X44870Y39936D01*
X47541Y33489D01*
X47541Y26511D01*
X44870Y20064D01*
X39936Y15130D01*
X33489Y12459D01*
X26511Y12459D01*
G37*
%LPD*%
%LPC*%
G36*
X966511Y12459D02*
X966511Y12459D01*
X960064Y15130D01*
X955130Y20064D01*
X952459Y26511D01*
X952459Y33489D01*
X955130Y39936D01*
X960064Y44870D01*
X966511Y47541D01*
X973489Y47541D01*
X979936Y44870D01*
X984870Y39936D01*
X987541Y33489D01*
X987541Y26511D01*
X984870Y20064D01*
X979936Y15130D01*
X973489Y12459D01*
X966511Y12459D01*
G37*
%LPD*%
%LPC*%
G36*
X914067Y307847D02*
X914067Y307847D01*
X910520Y309317D01*
X907804Y312032D01*
X906335Y315580D01*
X906335Y319420D01*
X907804Y322968D01*
X910520Y325683D01*
X914067Y327153D01*
X917908Y327153D01*
X921455Y325683D01*
X924171Y322968D01*
X925640Y319420D01*
X925640Y315580D01*
X924171Y312032D01*
X921455Y309317D01*
X917908Y307847D01*
X914067Y307847D01*
G37*
%LPD*%
%LPC*%
G36*
X304487Y188904D02*
X304487Y188904D01*
X302442Y189751D01*
X300876Y191317D01*
X300029Y193362D01*
X300029Y195576D01*
X300876Y197621D01*
X302442Y199186D01*
X304487Y200033D01*
X306701Y200033D01*
X308746Y199186D01*
X309657Y198275D01*
X309751Y198202D01*
X309841Y198123D01*
X309876Y198105D01*
X309908Y198080D01*
X310018Y198033D01*
X310124Y197979D01*
X310163Y197970D01*
X310200Y197954D01*
X310318Y197935D01*
X310434Y197909D01*
X310474Y197910D01*
X310514Y197904D01*
X310633Y197915D01*
X310752Y197919D01*
X310791Y197930D01*
X310831Y197934D01*
X310943Y197974D01*
X311057Y198007D01*
X311092Y198028D01*
X311130Y198041D01*
X311229Y198108D01*
X311331Y198169D01*
X311377Y198208D01*
X311393Y198220D01*
X311407Y198235D01*
X311452Y198275D01*
X312363Y199186D01*
X314409Y200033D01*
X316623Y200033D01*
X318668Y199186D01*
X319778Y198077D01*
X319872Y198004D01*
X319961Y197925D01*
X319997Y197906D01*
X320029Y197882D01*
X320138Y197834D01*
X320244Y197780D01*
X320283Y197771D01*
X320321Y197755D01*
X320438Y197737D01*
X320554Y197711D01*
X320595Y197712D01*
X320635Y197705D01*
X320753Y197717D01*
X320872Y197720D01*
X320911Y197731D01*
X320951Y197735D01*
X321063Y197776D01*
X321178Y197809D01*
X321213Y197829D01*
X321251Y197843D01*
X321349Y197910D01*
X321452Y197970D01*
X321497Y198010D01*
X321514Y198021D01*
X321527Y198037D01*
X321573Y198077D01*
X322682Y199186D01*
X324727Y200033D01*
X326941Y200033D01*
X328987Y199186D01*
X330552Y197621D01*
X331399Y195576D01*
X331399Y193362D01*
X330552Y191317D01*
X328987Y189751D01*
X326941Y188904D01*
X324727Y188904D01*
X322682Y189751D01*
X321573Y190861D01*
X321478Y190934D01*
X321389Y191013D01*
X321353Y191031D01*
X321321Y191056D01*
X321212Y191103D01*
X321106Y191157D01*
X321067Y191166D01*
X321029Y191182D01*
X320912Y191201D01*
X320796Y191227D01*
X320755Y191226D01*
X320715Y191232D01*
X320597Y191221D01*
X320478Y191217D01*
X320439Y191206D01*
X320399Y191202D01*
X320286Y191162D01*
X320172Y191129D01*
X320138Y191108D01*
X320099Y191095D01*
X320001Y191028D01*
X319898Y190967D01*
X319853Y190927D01*
X319836Y190916D01*
X319823Y190901D01*
X319778Y190861D01*
X318668Y189751D01*
X316623Y188904D01*
X314409Y188904D01*
X312363Y189751D01*
X311452Y190662D01*
X311358Y190735D01*
X311269Y190814D01*
X311233Y190833D01*
X311201Y190857D01*
X311092Y190905D01*
X310986Y190959D01*
X310946Y190968D01*
X310909Y190984D01*
X310791Y191002D01*
X310675Y191028D01*
X310635Y191027D01*
X310595Y191034D01*
X310476Y191022D01*
X310357Y191019D01*
X310319Y191008D01*
X310278Y191004D01*
X310166Y190963D01*
X310052Y190930D01*
X310017Y190910D01*
X309979Y190896D01*
X309881Y190829D01*
X309778Y190769D01*
X309733Y190729D01*
X309716Y190718D01*
X309702Y190702D01*
X309657Y190662D01*
X308746Y189751D01*
X306701Y188904D01*
X304487Y188904D01*
G37*
%LPD*%
%LPC*%
G36*
X120418Y111505D02*
X120418Y111505D01*
X117057Y112897D01*
X114485Y115470D01*
X113093Y118831D01*
X113093Y122469D01*
X114485Y125830D01*
X117057Y128403D01*
X120418Y129795D01*
X124057Y129795D01*
X127418Y128403D01*
X129990Y125830D01*
X131382Y122469D01*
X131382Y118831D01*
X129990Y115470D01*
X127418Y112897D01*
X124057Y111505D01*
X120418Y111505D01*
G37*
%LPD*%
%LPC*%
G36*
X171218Y136905D02*
X171218Y136905D01*
X167857Y138297D01*
X165285Y140870D01*
X163893Y144231D01*
X163893Y147869D01*
X165285Y151230D01*
X167857Y153803D01*
X171218Y155195D01*
X174857Y155195D01*
X178218Y153803D01*
X180790Y151230D01*
X182182Y147869D01*
X182182Y144231D01*
X180790Y140870D01*
X178218Y138297D01*
X174857Y136905D01*
X171218Y136905D01*
G37*
%LPD*%
%LPC*%
G36*
X812568Y282955D02*
X812568Y282955D01*
X809207Y284347D01*
X806635Y286920D01*
X805243Y290281D01*
X805243Y293919D01*
X806635Y297280D01*
X809207Y299853D01*
X812568Y301245D01*
X816207Y301245D01*
X819568Y299853D01*
X822140Y297280D01*
X823532Y293919D01*
X823532Y290281D01*
X822140Y286920D01*
X819568Y284347D01*
X816207Y282955D01*
X812568Y282955D01*
G37*
%LPD*%
%LPC*%
G36*
X95018Y162305D02*
X95018Y162305D01*
X91657Y163697D01*
X89085Y166270D01*
X87693Y169631D01*
X87693Y173269D01*
X89085Y176630D01*
X91657Y179203D01*
X95018Y180595D01*
X98657Y180595D01*
X102018Y179203D01*
X104590Y176630D01*
X105982Y173269D01*
X105982Y169631D01*
X104590Y166270D01*
X102018Y163697D01*
X98657Y162305D01*
X95018Y162305D01*
G37*
%LPD*%
%LPC*%
G36*
X837968Y282955D02*
X837968Y282955D01*
X834607Y284347D01*
X832035Y286920D01*
X830643Y290281D01*
X830643Y293919D01*
X832035Y297280D01*
X834607Y299853D01*
X837968Y301245D01*
X841607Y301245D01*
X844968Y299853D01*
X847540Y297280D01*
X848932Y293919D01*
X848932Y290281D01*
X847540Y286920D01*
X844968Y284347D01*
X841607Y282955D01*
X837968Y282955D01*
G37*
%LPD*%
%LPC*%
G36*
X863368Y282955D02*
X863368Y282955D01*
X860007Y284347D01*
X857435Y286920D01*
X856043Y290281D01*
X856043Y293919D01*
X857435Y297280D01*
X860007Y299853D01*
X863368Y301245D01*
X867007Y301245D01*
X870368Y299853D01*
X872940Y297280D01*
X874332Y293919D01*
X874332Y290281D01*
X872940Y286920D01*
X870368Y284347D01*
X867007Y282955D01*
X863368Y282955D01*
G37*
%LPD*%
%LPC*%
G36*
X888768Y282955D02*
X888768Y282955D01*
X885407Y284347D01*
X882835Y286920D01*
X881443Y290281D01*
X881443Y293919D01*
X882835Y297280D01*
X885407Y299853D01*
X888768Y301245D01*
X892407Y301245D01*
X895768Y299853D01*
X898340Y297280D01*
X899732Y293919D01*
X899732Y290281D01*
X898340Y286920D01*
X895768Y284347D01*
X892407Y282955D01*
X888768Y282955D01*
G37*
%LPD*%
%LPC*%
G36*
X914168Y282955D02*
X914168Y282955D01*
X910807Y284347D01*
X908235Y286920D01*
X906843Y290281D01*
X906843Y293919D01*
X908235Y297280D01*
X910807Y299853D01*
X914168Y301245D01*
X917807Y301245D01*
X921168Y299853D01*
X923740Y297280D01*
X925132Y293919D01*
X925132Y290281D01*
X923740Y286920D01*
X921168Y284347D01*
X917807Y282955D01*
X914168Y282955D01*
G37*
%LPD*%
%LPC*%
G36*
X761768Y282955D02*
X761768Y282955D01*
X758407Y284347D01*
X755835Y286920D01*
X754443Y290281D01*
X754443Y293919D01*
X755835Y297280D01*
X758407Y299853D01*
X761768Y301245D01*
X765407Y301245D01*
X768768Y299853D01*
X771340Y297280D01*
X772732Y293919D01*
X772732Y290281D01*
X771340Y286920D01*
X768768Y284347D01*
X765407Y282955D01*
X761768Y282955D01*
G37*
%LPD*%
%LPC*%
G36*
X69618Y136905D02*
X69618Y136905D01*
X66257Y138297D01*
X63685Y140870D01*
X62293Y144231D01*
X62293Y147869D01*
X63685Y151230D01*
X66257Y153803D01*
X69618Y155195D01*
X73257Y155195D01*
X76618Y153803D01*
X79190Y151230D01*
X80582Y147869D01*
X80582Y144231D01*
X79190Y140870D01*
X76618Y138297D01*
X73257Y136905D01*
X69618Y136905D01*
G37*
%LPD*%
%LPC*%
G36*
X95018Y136905D02*
X95018Y136905D01*
X91657Y138297D01*
X89085Y140870D01*
X87693Y144231D01*
X87693Y147869D01*
X89085Y151230D01*
X91657Y153803D01*
X95018Y155195D01*
X98657Y155195D01*
X102018Y153803D01*
X104590Y151230D01*
X105982Y147869D01*
X105982Y144231D01*
X104590Y140870D01*
X102018Y138297D01*
X98657Y136905D01*
X95018Y136905D01*
G37*
%LPD*%
%LPC*%
G36*
X120418Y136905D02*
X120418Y136905D01*
X117057Y138297D01*
X114485Y140870D01*
X113093Y144231D01*
X113093Y147869D01*
X114485Y151230D01*
X117057Y153803D01*
X120418Y155195D01*
X124057Y155195D01*
X127418Y153803D01*
X129990Y151230D01*
X131382Y147869D01*
X131382Y144231D01*
X129990Y140870D01*
X127418Y138297D01*
X124057Y136905D01*
X120418Y136905D01*
G37*
%LPD*%
%LPC*%
G36*
X196618Y136905D02*
X196618Y136905D01*
X193257Y138297D01*
X190685Y140870D01*
X189293Y144231D01*
X189293Y147869D01*
X190685Y151230D01*
X193257Y153803D01*
X196618Y155195D01*
X200257Y155195D01*
X203618Y153803D01*
X206190Y151230D01*
X207582Y147869D01*
X207582Y144231D01*
X206190Y140870D01*
X203618Y138297D01*
X200257Y136905D01*
X196618Y136905D01*
G37*
%LPD*%
%LPC*%
G36*
X196618Y162305D02*
X196618Y162305D01*
X193257Y163697D01*
X190685Y166270D01*
X189293Y169631D01*
X189293Y173269D01*
X190685Y176630D01*
X193257Y179203D01*
X196618Y180595D01*
X200257Y180595D01*
X203618Y179203D01*
X206190Y176630D01*
X207582Y173269D01*
X207582Y169631D01*
X206190Y166270D01*
X203618Y163697D01*
X200257Y162305D01*
X196618Y162305D01*
G37*
%LPD*%
%LPC*%
G36*
X171218Y162305D02*
X171218Y162305D01*
X167857Y163697D01*
X165285Y166270D01*
X163893Y169631D01*
X163893Y173269D01*
X165285Y176630D01*
X167857Y179203D01*
X171218Y180595D01*
X174857Y180595D01*
X178218Y179203D01*
X180790Y176630D01*
X182182Y173269D01*
X182182Y169631D01*
X180790Y166270D01*
X178218Y163697D01*
X174857Y162305D01*
X171218Y162305D01*
G37*
%LPD*%
%LPC*%
G36*
X914168Y333755D02*
X914168Y333755D01*
X910807Y335147D01*
X908235Y337720D01*
X906843Y341081D01*
X906843Y344719D01*
X908235Y348080D01*
X910807Y350653D01*
X914168Y352045D01*
X917807Y352045D01*
X921168Y350653D01*
X923740Y348080D01*
X925132Y344719D01*
X925132Y341081D01*
X923740Y337720D01*
X921168Y335147D01*
X917807Y333755D01*
X914168Y333755D01*
G37*
%LPD*%
%LPC*%
G36*
X888768Y333755D02*
X888768Y333755D01*
X885407Y335147D01*
X882835Y337720D01*
X881443Y341081D01*
X881443Y344719D01*
X882835Y348080D01*
X885407Y350653D01*
X888768Y352045D01*
X892407Y352045D01*
X895768Y350653D01*
X898340Y348080D01*
X899732Y344719D01*
X899732Y341081D01*
X898340Y337720D01*
X895768Y335147D01*
X892407Y333755D01*
X888768Y333755D01*
G37*
%LPD*%
%LPC*%
G36*
X863368Y333755D02*
X863368Y333755D01*
X860007Y335147D01*
X857435Y337720D01*
X856043Y341081D01*
X856043Y344719D01*
X857435Y348080D01*
X860007Y350653D01*
X863368Y352045D01*
X867007Y352045D01*
X870368Y350653D01*
X872940Y348080D01*
X874332Y344719D01*
X874332Y341081D01*
X872940Y337720D01*
X870368Y335147D01*
X867007Y333755D01*
X863368Y333755D01*
G37*
%LPD*%
%LPC*%
G36*
X837968Y333755D02*
X837968Y333755D01*
X834607Y335147D01*
X832035Y337720D01*
X830643Y341081D01*
X830643Y344719D01*
X832035Y348080D01*
X834607Y350653D01*
X837968Y352045D01*
X841607Y352045D01*
X844968Y350653D01*
X847540Y348080D01*
X848932Y344719D01*
X848932Y341081D01*
X847540Y337720D01*
X844968Y335147D01*
X841607Y333755D01*
X837968Y333755D01*
G37*
%LPD*%
%LPC*%
G36*
X812568Y333755D02*
X812568Y333755D01*
X809207Y335147D01*
X806635Y337720D01*
X805243Y341081D01*
X805243Y344719D01*
X806635Y348080D01*
X809207Y350653D01*
X812568Y352045D01*
X816207Y352045D01*
X819568Y350653D01*
X822140Y348080D01*
X823532Y344719D01*
X823532Y341081D01*
X822140Y337720D01*
X819568Y335147D01*
X816207Y333755D01*
X812568Y333755D01*
G37*
%LPD*%
%LPC*%
G36*
X787168Y333755D02*
X787168Y333755D01*
X783807Y335147D01*
X781235Y337720D01*
X779843Y341081D01*
X779843Y344719D01*
X781235Y348080D01*
X783807Y350653D01*
X787168Y352045D01*
X790807Y352045D01*
X794168Y350653D01*
X796740Y348080D01*
X798132Y344719D01*
X798132Y341081D01*
X796740Y337720D01*
X794168Y335147D01*
X790807Y333755D01*
X787168Y333755D01*
G37*
%LPD*%
%LPC*%
G36*
X761768Y333755D02*
X761768Y333755D01*
X758407Y335147D01*
X755835Y337720D01*
X754443Y341081D01*
X754443Y344719D01*
X755835Y348080D01*
X758407Y350653D01*
X761768Y352045D01*
X765407Y352045D01*
X768768Y350653D01*
X771340Y348080D01*
X772732Y344719D01*
X772732Y341081D01*
X771340Y337720D01*
X768768Y335147D01*
X765407Y333755D01*
X761768Y333755D01*
G37*
%LPD*%
%LPC*%
G36*
X145818Y162305D02*
X145818Y162305D01*
X142457Y163697D01*
X139885Y166270D01*
X138493Y169631D01*
X138493Y173269D01*
X139885Y176630D01*
X142457Y179203D01*
X145818Y180595D01*
X149457Y180595D01*
X152818Y179203D01*
X155390Y176630D01*
X156782Y173269D01*
X156782Y169631D01*
X155390Y166270D01*
X152818Y163697D01*
X149457Y162305D01*
X145818Y162305D01*
G37*
%LPD*%
%LPC*%
G36*
X120418Y162305D02*
X120418Y162305D01*
X117057Y163697D01*
X114485Y166270D01*
X113093Y169631D01*
X113093Y173269D01*
X114485Y176630D01*
X117057Y179203D01*
X120418Y180595D01*
X124057Y180595D01*
X127418Y179203D01*
X129990Y176630D01*
X131382Y173269D01*
X131382Y169631D01*
X129990Y166270D01*
X127418Y163697D01*
X124057Y162305D01*
X120418Y162305D01*
G37*
%LPD*%
%LPC*%
G36*
X222018Y136905D02*
X222018Y136905D01*
X218657Y138297D01*
X216085Y140870D01*
X214693Y144231D01*
X214693Y147869D01*
X216085Y151230D01*
X218657Y153803D01*
X222018Y155195D01*
X225657Y155195D01*
X229018Y153803D01*
X231590Y151230D01*
X232982Y147869D01*
X232982Y144231D01*
X231590Y140870D01*
X229018Y138297D01*
X225657Y136905D01*
X222018Y136905D01*
G37*
%LPD*%
%LPC*%
G36*
X145818Y136905D02*
X145818Y136905D01*
X142457Y138297D01*
X139885Y140870D01*
X138493Y144231D01*
X138493Y147869D01*
X139885Y151230D01*
X142457Y153803D01*
X145818Y155195D01*
X149457Y155195D01*
X152818Y153803D01*
X155390Y151230D01*
X156782Y147869D01*
X156782Y144231D01*
X155390Y140870D01*
X152818Y138297D01*
X149457Y136905D01*
X145818Y136905D01*
G37*
%LPD*%
%LPC*%
G36*
X863368Y308355D02*
X863368Y308355D01*
X860007Y309747D01*
X857435Y312320D01*
X856043Y315681D01*
X856043Y319319D01*
X857435Y322680D01*
X860007Y325253D01*
X863368Y326645D01*
X867007Y326645D01*
X870368Y325253D01*
X872940Y322680D01*
X874332Y319319D01*
X874332Y315681D01*
X872940Y312320D01*
X870368Y309747D01*
X867007Y308355D01*
X863368Y308355D01*
G37*
%LPD*%
%LPC*%
G36*
X837968Y308355D02*
X837968Y308355D01*
X834607Y309747D01*
X832035Y312320D01*
X830643Y315681D01*
X830643Y319319D01*
X832035Y322680D01*
X834607Y325253D01*
X837968Y326645D01*
X841607Y326645D01*
X844968Y325253D01*
X847540Y322680D01*
X848932Y319319D01*
X848932Y315681D01*
X847540Y312320D01*
X844968Y309747D01*
X841607Y308355D01*
X837968Y308355D01*
G37*
%LPD*%
%LPC*%
G36*
X888768Y308355D02*
X888768Y308355D01*
X885407Y309747D01*
X882835Y312320D01*
X881443Y315681D01*
X881443Y319319D01*
X882835Y322680D01*
X885407Y325253D01*
X888768Y326645D01*
X892407Y326645D01*
X895768Y325253D01*
X898340Y322680D01*
X899732Y319319D01*
X899732Y315681D01*
X898340Y312320D01*
X895768Y309747D01*
X892407Y308355D01*
X888768Y308355D01*
G37*
%LPD*%
%LPC*%
G36*
X812568Y308355D02*
X812568Y308355D01*
X809207Y309747D01*
X806635Y312320D01*
X805243Y315681D01*
X805243Y319319D01*
X806635Y322680D01*
X809207Y325253D01*
X812568Y326645D01*
X816207Y326645D01*
X819568Y325253D01*
X822140Y322680D01*
X823532Y319319D01*
X823532Y315681D01*
X822140Y312320D01*
X819568Y309747D01*
X816207Y308355D01*
X812568Y308355D01*
G37*
%LPD*%
%LPC*%
G36*
X787168Y308355D02*
X787168Y308355D01*
X783807Y309747D01*
X781235Y312320D01*
X779843Y315681D01*
X779843Y319319D01*
X781235Y322680D01*
X783807Y325253D01*
X787168Y326645D01*
X790807Y326645D01*
X794168Y325253D01*
X796740Y322680D01*
X798132Y319319D01*
X798132Y315681D01*
X796740Y312320D01*
X794168Y309747D01*
X790807Y308355D01*
X787168Y308355D01*
G37*
%LPD*%
%LPC*%
G36*
X69618Y111505D02*
X69618Y111505D01*
X66257Y112897D01*
X63685Y115470D01*
X62293Y118831D01*
X62293Y122469D01*
X63685Y125830D01*
X66257Y128403D01*
X69618Y129795D01*
X73257Y129795D01*
X76618Y128403D01*
X79190Y125830D01*
X80582Y122469D01*
X80582Y118831D01*
X79190Y115470D01*
X76618Y112897D01*
X73257Y111505D01*
X69618Y111505D01*
G37*
%LPD*%
%LPC*%
G36*
X95018Y111505D02*
X95018Y111505D01*
X91657Y112897D01*
X89085Y115470D01*
X87693Y118831D01*
X87693Y122469D01*
X89085Y125830D01*
X91657Y128403D01*
X95018Y129795D01*
X98657Y129795D01*
X102018Y128403D01*
X104590Y125830D01*
X105982Y122469D01*
X105982Y118831D01*
X104590Y115470D01*
X102018Y112897D01*
X98657Y111505D01*
X95018Y111505D01*
G37*
%LPD*%
%LPC*%
G36*
X196618Y111505D02*
X196618Y111505D01*
X193257Y112897D01*
X190685Y115470D01*
X189293Y118831D01*
X189293Y122469D01*
X190685Y125830D01*
X193257Y128403D01*
X196618Y129795D01*
X200257Y129795D01*
X203618Y128403D01*
X206190Y125830D01*
X207582Y122469D01*
X207582Y118831D01*
X206190Y115470D01*
X203618Y112897D01*
X200257Y111505D01*
X196618Y111505D01*
G37*
%LPD*%
%LPC*%
G36*
X222018Y111505D02*
X222018Y111505D01*
X218657Y112897D01*
X216085Y115470D01*
X214693Y118831D01*
X214693Y122469D01*
X216085Y125830D01*
X218657Y128403D01*
X222018Y129795D01*
X225657Y129795D01*
X229018Y128403D01*
X231590Y125830D01*
X232982Y122469D01*
X232982Y118831D01*
X231590Y115470D01*
X229018Y112897D01*
X225657Y111505D01*
X222018Y111505D01*
G37*
%LPD*%
%LPC*%
G36*
X145818Y111505D02*
X145818Y111505D01*
X142457Y112897D01*
X139885Y115470D01*
X138493Y118831D01*
X138493Y122469D01*
X139885Y125830D01*
X142457Y128403D01*
X145818Y129795D01*
X149457Y129795D01*
X152818Y128403D01*
X155390Y125830D01*
X156782Y122469D01*
X156782Y118831D01*
X155390Y115470D01*
X152818Y112897D01*
X149457Y111505D01*
X145818Y111505D01*
G37*
%LPD*%
%LPC*%
G36*
X171218Y111505D02*
X171218Y111505D01*
X167857Y112897D01*
X165285Y115470D01*
X163893Y118831D01*
X163893Y122469D01*
X165285Y125830D01*
X167857Y128403D01*
X171218Y129795D01*
X174857Y129795D01*
X178218Y128403D01*
X180790Y125830D01*
X182182Y122469D01*
X182182Y118831D01*
X180790Y115470D01*
X178218Y112897D01*
X174857Y111505D01*
X171218Y111505D01*
G37*
%LPD*%
%LPC*%
G36*
X787168Y282955D02*
X787168Y282955D01*
X783807Y284347D01*
X781235Y286920D01*
X779843Y290281D01*
X779843Y293919D01*
X781235Y297280D01*
X783807Y299853D01*
X787168Y301245D01*
X790807Y301245D01*
X794168Y299853D01*
X796740Y297280D01*
X798132Y293919D01*
X798132Y290281D01*
X796740Y286920D01*
X794168Y284347D01*
X790807Y282955D01*
X787168Y282955D01*
G37*
%LPD*%
%LPC*%
G36*
X494275Y81343D02*
X494275Y81343D01*
X490914Y82735D01*
X488341Y85307D01*
X486949Y88668D01*
X486949Y92307D01*
X488341Y95668D01*
X490914Y98240D01*
X494275Y99632D01*
X497913Y99632D01*
X501274Y98240D01*
X503846Y95668D01*
X505238Y92307D01*
X505238Y88668D01*
X503846Y85307D01*
X501274Y82735D01*
X497913Y81343D01*
X494275Y81343D01*
G37*
%LPD*%
%LPC*%
G36*
X468875Y81343D02*
X468875Y81343D01*
X465514Y82735D01*
X462941Y85307D01*
X461549Y88668D01*
X461549Y92307D01*
X462941Y95668D01*
X465514Y98240D01*
X468875Y99632D01*
X472513Y99632D01*
X475874Y98240D01*
X478446Y95668D01*
X479838Y92307D01*
X479838Y88668D01*
X478446Y85307D01*
X475874Y82735D01*
X472513Y81343D01*
X468875Y81343D01*
G37*
%LPD*%
%LPC*%
G36*
X443475Y81343D02*
X443475Y81343D01*
X440114Y82735D01*
X437541Y85307D01*
X436149Y88668D01*
X436149Y92307D01*
X437541Y95668D01*
X440114Y98240D01*
X443475Y99632D01*
X447113Y99632D01*
X450474Y98240D01*
X453046Y95668D01*
X454438Y92307D01*
X454438Y88668D01*
X453046Y85307D01*
X450474Y82735D01*
X447113Y81343D01*
X443475Y81343D01*
G37*
%LPD*%
%LPC*%
G36*
X418075Y81343D02*
X418075Y81343D01*
X414714Y82735D01*
X412141Y85307D01*
X410749Y88668D01*
X410749Y92307D01*
X412141Y95668D01*
X414714Y98240D01*
X418075Y99632D01*
X421713Y99632D01*
X425074Y98240D01*
X427646Y95668D01*
X429038Y92307D01*
X429038Y88668D01*
X427646Y85307D01*
X425074Y82735D01*
X421713Y81343D01*
X418075Y81343D01*
G37*
%LPD*%
%LPC*%
G36*
X69618Y162305D02*
X69618Y162305D01*
X66257Y163697D01*
X63685Y166270D01*
X62293Y169631D01*
X62293Y173269D01*
X63685Y176630D01*
X66257Y179203D01*
X69618Y180595D01*
X73257Y180595D01*
X76618Y179203D01*
X79190Y176630D01*
X80582Y173269D01*
X80582Y169631D01*
X79190Y166270D01*
X76618Y163697D01*
X73257Y162305D01*
X69618Y162305D01*
G37*
%LPD*%
%LPC*%
G36*
X519675Y81343D02*
X519675Y81343D01*
X516314Y82735D01*
X513741Y85307D01*
X512349Y88668D01*
X512349Y92307D01*
X513741Y95668D01*
X516314Y98240D01*
X519675Y99632D01*
X523313Y99632D01*
X526674Y98240D01*
X529246Y95668D01*
X530638Y92307D01*
X530638Y88668D01*
X529246Y85307D01*
X526674Y82735D01*
X523313Y81343D01*
X519675Y81343D01*
G37*
%LPD*%
%LPC*%
G36*
X868070Y531113D02*
X868070Y531113D01*
X864895Y532428D01*
X862466Y534858D01*
X861151Y538032D01*
X861151Y541468D01*
X862466Y544642D01*
X864895Y547072D01*
X868070Y548387D01*
X871505Y548387D01*
X874680Y547072D01*
X877109Y544642D01*
X878424Y541468D01*
X878424Y538032D01*
X877109Y534858D01*
X874680Y532428D01*
X871505Y531113D01*
X868070Y531113D01*
G37*
%LPD*%
%LPC*%
G36*
X36483Y348896D02*
X36483Y348896D01*
X33495Y350134D01*
X31209Y352420D01*
X29971Y355408D01*
X29971Y358642D01*
X31209Y361630D01*
X33495Y363916D01*
X36483Y365154D01*
X39717Y365154D01*
X42705Y363916D01*
X44991Y361630D01*
X46229Y358642D01*
X46229Y355408D01*
X44991Y352420D01*
X42705Y350134D01*
X39717Y348896D01*
X36483Y348896D01*
G37*
%LPD*%
%LPC*%
G36*
X36483Y288896D02*
X36483Y288896D01*
X33495Y290134D01*
X31209Y292420D01*
X29971Y295408D01*
X29971Y298642D01*
X31209Y301630D01*
X33495Y303916D01*
X36483Y305154D01*
X39717Y305154D01*
X42705Y303916D01*
X44991Y301630D01*
X46229Y298642D01*
X46229Y295408D01*
X44991Y292420D01*
X42705Y290134D01*
X39717Y288896D01*
X36483Y288896D01*
G37*
%LPD*%
%LPC*%
G36*
X36483Y110934D02*
X36483Y110934D01*
X33495Y112171D01*
X31209Y114458D01*
X29971Y117446D01*
X29971Y120679D01*
X31209Y123667D01*
X33495Y125954D01*
X36483Y127191D01*
X39717Y127191D01*
X42705Y125954D01*
X44991Y123667D01*
X46229Y120679D01*
X46229Y117446D01*
X44991Y114458D01*
X42705Y112171D01*
X39717Y110934D01*
X36483Y110934D01*
G37*
%LPD*%
%LPC*%
G36*
X36483Y90934D02*
X36483Y90934D01*
X33495Y92171D01*
X31209Y94458D01*
X29971Y97446D01*
X29971Y100679D01*
X31209Y103667D01*
X33495Y105954D01*
X36483Y107191D01*
X39717Y107191D01*
X42705Y105954D01*
X44991Y103667D01*
X46229Y100679D01*
X46229Y97446D01*
X44991Y94458D01*
X42705Y92171D01*
X39717Y90934D01*
X36483Y90934D01*
G37*
%LPD*%
%LPC*%
G36*
X36483Y179834D02*
X36483Y179834D01*
X33495Y181071D01*
X31209Y183358D01*
X29971Y186346D01*
X29971Y189579D01*
X31209Y192567D01*
X33495Y194854D01*
X36483Y196091D01*
X39717Y196091D01*
X42705Y194854D01*
X44991Y192567D01*
X46229Y189579D01*
X46229Y186346D01*
X44991Y183358D01*
X42705Y181071D01*
X39717Y179834D01*
X36483Y179834D01*
G37*
%LPD*%
%LPC*%
G36*
X848171Y531621D02*
X848171Y531621D01*
X845183Y532859D01*
X842896Y535145D01*
X841659Y538133D01*
X841659Y541367D01*
X842896Y544355D01*
X845183Y546641D01*
X848171Y547879D01*
X851404Y547879D01*
X854392Y546641D01*
X856679Y544355D01*
X857916Y541367D01*
X857916Y538133D01*
X856679Y535145D01*
X854392Y532859D01*
X851404Y531621D01*
X848171Y531621D01*
G37*
%LPD*%
%LPC*%
G36*
X828171Y531621D02*
X828171Y531621D01*
X825183Y532859D01*
X822896Y535145D01*
X821659Y538133D01*
X821659Y541367D01*
X822896Y544355D01*
X825183Y546641D01*
X828171Y547879D01*
X831404Y547879D01*
X834392Y546641D01*
X836679Y544355D01*
X837916Y541367D01*
X837916Y538133D01*
X836679Y535145D01*
X834392Y532859D01*
X831404Y531621D01*
X828171Y531621D01*
G37*
%LPD*%
%LPC*%
G36*
X36483Y199834D02*
X36483Y199834D01*
X33495Y201071D01*
X31209Y203358D01*
X29971Y206346D01*
X29971Y209579D01*
X31209Y212567D01*
X33495Y214854D01*
X36483Y216091D01*
X39717Y216091D01*
X42705Y214854D01*
X44991Y212567D01*
X46229Y209579D01*
X46229Y206346D01*
X44991Y203358D01*
X42705Y201071D01*
X39717Y199834D01*
X36483Y199834D01*
G37*
%LPD*%
%LPC*%
G36*
X36483Y268896D02*
X36483Y268896D01*
X33495Y270134D01*
X31209Y272420D01*
X29971Y275408D01*
X29971Y278642D01*
X31209Y281630D01*
X33495Y283916D01*
X36483Y285154D01*
X39717Y285154D01*
X42705Y283916D01*
X44991Y281630D01*
X46229Y278642D01*
X46229Y275408D01*
X44991Y272420D01*
X42705Y270134D01*
X39717Y268896D01*
X36483Y268896D01*
G37*
%LPD*%
%LPC*%
G36*
X868171Y28384D02*
X868171Y28384D01*
X865183Y29621D01*
X862896Y31908D01*
X861659Y34896D01*
X861659Y38129D01*
X862896Y41117D01*
X865183Y43404D01*
X868171Y44641D01*
X871404Y44641D01*
X874392Y43404D01*
X876679Y41117D01*
X877916Y38129D01*
X877916Y34896D01*
X876679Y31908D01*
X874392Y29621D01*
X871404Y28384D01*
X868171Y28384D01*
G37*
%LPD*%
%LPC*%
G36*
X36483Y328896D02*
X36483Y328896D01*
X33495Y330134D01*
X31209Y332420D01*
X29971Y335408D01*
X29971Y338642D01*
X31209Y341630D01*
X33495Y343916D01*
X36483Y345154D01*
X39717Y345154D01*
X42705Y343916D01*
X44991Y341630D01*
X46229Y338642D01*
X46229Y335408D01*
X44991Y332420D01*
X42705Y330134D01*
X39717Y328896D01*
X36483Y328896D01*
G37*
%LPD*%
%LPC*%
G36*
X36483Y308896D02*
X36483Y308896D01*
X33495Y310134D01*
X31209Y312420D01*
X29971Y315408D01*
X29971Y318642D01*
X31209Y321630D01*
X33495Y323916D01*
X36483Y325154D01*
X39717Y325154D01*
X42705Y323916D01*
X44991Y321630D01*
X46229Y318642D01*
X46229Y315408D01*
X44991Y312420D01*
X42705Y310134D01*
X39717Y308896D01*
X36483Y308896D01*
G37*
%LPD*%
%LPC*%
G36*
X190946Y28384D02*
X190946Y28384D01*
X187958Y29621D01*
X185671Y31908D01*
X184434Y34896D01*
X184434Y38129D01*
X185671Y41117D01*
X187958Y43404D01*
X190946Y44641D01*
X194179Y44641D01*
X197167Y43404D01*
X199454Y41117D01*
X200691Y38129D01*
X200691Y34896D01*
X199454Y31908D01*
X197167Y29621D01*
X194179Y28384D01*
X190946Y28384D01*
G37*
%LPD*%
%LPC*%
G36*
X828171Y28384D02*
X828171Y28384D01*
X825183Y29621D01*
X822896Y31908D01*
X821659Y34896D01*
X821659Y38129D01*
X822896Y41117D01*
X825183Y43404D01*
X828171Y44641D01*
X831404Y44641D01*
X834392Y43404D01*
X836679Y41117D01*
X837916Y38129D01*
X837916Y34896D01*
X836679Y31908D01*
X834392Y29621D01*
X831404Y28384D01*
X828171Y28384D01*
G37*
%LPD*%
%LPC*%
G36*
X357633Y28384D02*
X357633Y28384D01*
X354645Y29621D01*
X352359Y31908D01*
X351121Y34896D01*
X351121Y38129D01*
X352359Y41117D01*
X354645Y43404D01*
X357633Y44641D01*
X360867Y44641D01*
X363855Y43404D01*
X366141Y41117D01*
X367379Y38129D01*
X367379Y34896D01*
X366141Y31908D01*
X363855Y29621D01*
X360867Y28384D01*
X357633Y28384D01*
G37*
%LPD*%
%LPC*%
G36*
X808171Y28384D02*
X808171Y28384D01*
X805183Y29621D01*
X802896Y31908D01*
X801659Y34896D01*
X801659Y38129D01*
X802896Y41117D01*
X805183Y43404D01*
X808171Y44641D01*
X811404Y44641D01*
X814392Y43404D01*
X816679Y41117D01*
X817916Y38129D01*
X817916Y34896D01*
X816679Y31908D01*
X814392Y29621D01*
X811404Y28384D01*
X808171Y28384D01*
G37*
%LPD*%
%LPC*%
G36*
X284608Y28384D02*
X284608Y28384D01*
X281620Y29621D01*
X279334Y31908D01*
X278096Y34896D01*
X278096Y38129D01*
X279334Y41117D01*
X281620Y43404D01*
X284608Y44641D01*
X287842Y44641D01*
X290830Y43404D01*
X293116Y41117D01*
X294354Y38129D01*
X294354Y34896D01*
X293116Y31908D01*
X290830Y29621D01*
X287842Y28384D01*
X284608Y28384D01*
G37*
%LPD*%
%LPC*%
G36*
X119508Y28384D02*
X119508Y28384D01*
X116520Y29621D01*
X114234Y31908D01*
X112996Y34896D01*
X112996Y38129D01*
X114234Y41117D01*
X116520Y43404D01*
X119508Y44641D01*
X122742Y44641D01*
X125730Y43404D01*
X128016Y41117D01*
X129254Y38129D01*
X129254Y34896D01*
X128016Y31908D01*
X125730Y29621D01*
X122742Y28384D01*
X119508Y28384D01*
G37*
%LPD*%
%LPC*%
G36*
X848171Y28384D02*
X848171Y28384D01*
X845183Y29621D01*
X842896Y31908D01*
X841659Y34896D01*
X841659Y38129D01*
X842896Y41117D01*
X845183Y43404D01*
X848171Y44641D01*
X851404Y44641D01*
X854392Y43404D01*
X856679Y41117D01*
X857916Y38129D01*
X857916Y34896D01*
X856679Y31908D01*
X854392Y29621D01*
X851404Y28384D01*
X848171Y28384D01*
G37*
%LPD*%
%LPC*%
G36*
X849594Y68048D02*
X849594Y68048D01*
X847181Y69047D01*
X845335Y70894D01*
X844335Y73307D01*
X844335Y75918D01*
X845335Y78331D01*
X847181Y80178D01*
X849594Y81177D01*
X852206Y81177D01*
X854619Y80178D01*
X856465Y78331D01*
X857465Y75918D01*
X857465Y73307D01*
X856465Y70894D01*
X854619Y69047D01*
X852206Y68048D01*
X849594Y68048D01*
G37*
%LPD*%
%LPC*%
G36*
X773394Y68048D02*
X773394Y68048D01*
X770981Y69047D01*
X769135Y70894D01*
X768135Y73307D01*
X768135Y75918D01*
X769135Y78331D01*
X770981Y80178D01*
X773394Y81177D01*
X776006Y81177D01*
X778419Y80178D01*
X780265Y78331D01*
X781265Y75918D01*
X781265Y73307D01*
X780265Y70894D01*
X778419Y69047D01*
X776006Y68048D01*
X773394Y68048D01*
G37*
%LPD*%
%LPC*%
G36*
X706719Y68048D02*
X706719Y68048D01*
X704306Y69047D01*
X702460Y70894D01*
X701460Y73307D01*
X701460Y75918D01*
X702460Y78331D01*
X704306Y80178D01*
X706719Y81177D01*
X709331Y81177D01*
X711744Y80178D01*
X713590Y78331D01*
X714590Y75918D01*
X714590Y73307D01*
X713590Y70894D01*
X711744Y69047D01*
X709331Y68048D01*
X706719Y68048D01*
G37*
%LPD*%
%LPC*%
G36*
X640044Y68048D02*
X640044Y68048D01*
X637631Y69047D01*
X635785Y70894D01*
X634785Y73307D01*
X634785Y75918D01*
X635785Y78331D01*
X637631Y80178D01*
X640044Y81177D01*
X642656Y81177D01*
X645069Y80178D01*
X646915Y78331D01*
X647915Y75918D01*
X647915Y73307D01*
X646915Y70894D01*
X645069Y69047D01*
X642656Y68048D01*
X640044Y68048D01*
G37*
%LPD*%
%LPC*%
G36*
X882932Y471273D02*
X882932Y471273D01*
X880519Y472272D01*
X878672Y474119D01*
X877673Y476532D01*
X877673Y479143D01*
X878672Y481556D01*
X880519Y483403D01*
X882932Y484402D01*
X885543Y484402D01*
X887956Y483403D01*
X889803Y481556D01*
X890802Y479143D01*
X890802Y476532D01*
X889803Y474119D01*
X887956Y472272D01*
X885543Y471273D01*
X882932Y471273D01*
G37*
%LPD*%
%LPC*%
G36*
X790857Y490323D02*
X790857Y490323D01*
X788444Y491322D01*
X786597Y493169D01*
X785598Y495582D01*
X785598Y498193D01*
X786597Y500606D01*
X788444Y502453D01*
X790857Y503452D01*
X793468Y503452D01*
X795881Y502453D01*
X797728Y500606D01*
X798727Y498193D01*
X798727Y495582D01*
X797728Y493169D01*
X795881Y491322D01*
X793468Y490323D01*
X790857Y490323D01*
G37*
%LPD*%
%LPC*%
G36*
X930557Y490323D02*
X930557Y490323D01*
X928144Y491322D01*
X926297Y493169D01*
X925298Y495582D01*
X925298Y498193D01*
X926297Y500606D01*
X928144Y502453D01*
X930557Y503452D01*
X933168Y503452D01*
X935581Y502453D01*
X937428Y500606D01*
X938427Y498193D01*
X938427Y495582D01*
X937428Y493169D01*
X935581Y491322D01*
X933168Y490323D01*
X930557Y490323D01*
G37*
%LPD*%
%LPC*%
G36*
X835307Y490323D02*
X835307Y490323D01*
X832894Y491322D01*
X831047Y493169D01*
X830048Y495582D01*
X830048Y498193D01*
X831047Y500606D01*
X832894Y502453D01*
X835307Y503452D01*
X837918Y503452D01*
X840331Y502453D01*
X842178Y500606D01*
X843177Y498193D01*
X843177Y495582D01*
X842178Y493169D01*
X840331Y491322D01*
X837918Y490323D01*
X835307Y490323D01*
G37*
%LPD*%
%LPC*%
G36*
X700369Y466510D02*
X700369Y466510D01*
X697956Y467510D01*
X696110Y469356D01*
X695110Y471769D01*
X695110Y474381D01*
X696110Y476794D01*
X697956Y478640D01*
X700369Y479640D01*
X702981Y479640D01*
X705394Y478640D01*
X707240Y476794D01*
X708240Y474381D01*
X708240Y471769D01*
X707240Y469356D01*
X705394Y467510D01*
X702981Y466510D01*
X700369Y466510D01*
G37*
%LPD*%
%LPC*%
G36*
X746407Y466510D02*
X746407Y466510D01*
X743994Y467510D01*
X742147Y469356D01*
X741148Y471769D01*
X741148Y474381D01*
X742147Y476794D01*
X743994Y478640D01*
X746407Y479640D01*
X749018Y479640D01*
X751431Y478640D01*
X753278Y476794D01*
X754277Y474381D01*
X754277Y471769D01*
X753278Y469356D01*
X751431Y467510D01*
X749018Y466510D01*
X746407Y466510D01*
G37*
%LPD*%
%LPC*%
G36*
X973419Y466510D02*
X973419Y466510D01*
X971006Y467510D01*
X969160Y469356D01*
X968160Y471769D01*
X968160Y474381D01*
X969160Y476794D01*
X971006Y478640D01*
X973419Y479640D01*
X976031Y479640D01*
X978444Y478640D01*
X980290Y476794D01*
X981290Y474381D01*
X981290Y471769D01*
X980290Y469356D01*
X978444Y467510D01*
X976031Y466510D01*
X973419Y466510D01*
G37*
%LPD*%
%LPC*%
G36*
X911507Y68048D02*
X911507Y68048D01*
X909094Y69047D01*
X907247Y70894D01*
X906248Y73307D01*
X906248Y75918D01*
X907247Y78331D01*
X909094Y80178D01*
X911507Y81177D01*
X914118Y81177D01*
X916531Y80178D01*
X918378Y78331D01*
X919377Y75918D01*
X919377Y73307D01*
X918378Y70894D01*
X916531Y69047D01*
X914118Y68048D01*
X911507Y68048D01*
G37*
%LPD*%
%LPC*%
G36*
X573369Y68048D02*
X573369Y68048D01*
X570956Y69047D01*
X569110Y70894D01*
X568110Y73307D01*
X568110Y75918D01*
X569110Y78331D01*
X570956Y80178D01*
X573369Y81177D01*
X575981Y81177D01*
X578394Y80178D01*
X580240Y78331D01*
X581240Y75918D01*
X581240Y73307D01*
X580240Y70894D01*
X578394Y69047D01*
X575981Y68048D01*
X573369Y68048D01*
G37*
%LPD*%
%LPC*%
G36*
X109968Y343435D02*
X109968Y343435D01*
X107831Y344320D01*
X106195Y345956D01*
X105310Y348093D01*
X105310Y350407D01*
X106195Y352544D01*
X107831Y354180D01*
X109968Y355065D01*
X112282Y355065D01*
X114419Y354180D01*
X116055Y352544D01*
X116940Y350407D01*
X116940Y348093D01*
X116055Y345956D01*
X114419Y344320D01*
X112282Y343435D01*
X109968Y343435D01*
G37*
%LPD*%
%LPC*%
G36*
X183787Y325179D02*
X183787Y325179D01*
X181650Y326064D01*
X180014Y327700D01*
X179129Y329837D01*
X179129Y332150D01*
X180014Y334288D01*
X181650Y335923D01*
X183787Y336808D01*
X186100Y336808D01*
X188238Y335923D01*
X189873Y334288D01*
X190758Y332150D01*
X190758Y329837D01*
X189873Y327700D01*
X188238Y326064D01*
X186100Y325179D01*
X183787Y325179D01*
G37*
%LPD*%
%LPC*%
G36*
X367193Y121435D02*
X367193Y121435D01*
X365148Y122282D01*
X363582Y123848D01*
X362735Y125893D01*
X362735Y128107D01*
X363582Y130152D01*
X365148Y131718D01*
X367193Y132565D01*
X369407Y132565D01*
X371452Y131718D01*
X373018Y130152D01*
X373865Y128107D01*
X373865Y125893D01*
X373018Y123848D01*
X371452Y122282D01*
X369407Y121435D01*
X367193Y121435D01*
G37*
%LPD*%
%LPC*%
G36*
X390049Y307167D02*
X390049Y307167D01*
X388004Y308014D01*
X386439Y309579D01*
X385591Y311624D01*
X385591Y313838D01*
X386439Y315884D01*
X388004Y317449D01*
X390049Y318296D01*
X392263Y318296D01*
X394308Y317449D01*
X395874Y315884D01*
X396721Y313838D01*
X396721Y311624D01*
X395874Y309579D01*
X394308Y308014D01*
X392263Y307167D01*
X390049Y307167D01*
G37*
%LPD*%
%LPC*%
G36*
X281468Y293679D02*
X281468Y293679D01*
X279423Y294526D01*
X277857Y296092D01*
X277010Y298137D01*
X277010Y300351D01*
X277857Y302396D01*
X279423Y303961D01*
X281468Y304808D01*
X283682Y304808D01*
X285727Y303961D01*
X287293Y302396D01*
X288140Y300351D01*
X288140Y298137D01*
X287293Y296092D01*
X285727Y294526D01*
X283682Y293679D01*
X281468Y293679D01*
G37*
%LPD*%
%LPC*%
G36*
X256068Y292885D02*
X256068Y292885D01*
X254023Y293732D01*
X252457Y295298D01*
X251610Y297343D01*
X251610Y299557D01*
X252457Y301602D01*
X254023Y303168D01*
X256068Y304015D01*
X258282Y304015D01*
X260327Y303168D01*
X261893Y301602D01*
X262740Y299557D01*
X262740Y297343D01*
X261893Y295298D01*
X260327Y293732D01*
X258282Y292885D01*
X256068Y292885D01*
G37*
%LPD*%
%LPC*%
G36*
X129068Y291298D02*
X129068Y291298D01*
X127023Y292145D01*
X125457Y293710D01*
X124610Y295756D01*
X124610Y297969D01*
X125457Y300015D01*
X127023Y301580D01*
X129068Y302427D01*
X131282Y302427D01*
X133327Y301580D01*
X134893Y300015D01*
X135740Y297969D01*
X135740Y295756D01*
X134893Y293710D01*
X133327Y292145D01*
X131282Y291298D01*
X129068Y291298D01*
G37*
%LPD*%
%LPC*%
G36*
X390049Y285223D02*
X390049Y285223D01*
X388004Y286070D01*
X386439Y287635D01*
X385591Y289681D01*
X385591Y291894D01*
X386439Y293940D01*
X388004Y295505D01*
X390049Y296352D01*
X392263Y296352D01*
X394308Y295505D01*
X395874Y293940D01*
X396721Y291894D01*
X396721Y289681D01*
X395874Y287635D01*
X394308Y286070D01*
X392263Y285223D01*
X390049Y285223D01*
G37*
%LPD*%
%LPC*%
G36*
X438631Y115879D02*
X438631Y115879D01*
X436585Y116726D01*
X435020Y118292D01*
X434173Y120337D01*
X434173Y122551D01*
X435020Y124596D01*
X436585Y126161D01*
X438631Y127008D01*
X440844Y127008D01*
X442890Y126161D01*
X444455Y124596D01*
X445302Y122551D01*
X445302Y120337D01*
X444455Y118292D01*
X442890Y116726D01*
X440844Y115879D01*
X438631Y115879D01*
G37*
%LPD*%
%LPC*%
G36*
X968856Y277010D02*
X968856Y277010D01*
X966810Y277857D01*
X965245Y279423D01*
X964398Y281468D01*
X964398Y283682D01*
X965245Y285727D01*
X966810Y287293D01*
X968856Y288140D01*
X971069Y288140D01*
X973115Y287293D01*
X974680Y285727D01*
X975527Y283682D01*
X975527Y281468D01*
X974680Y279423D01*
X973115Y277857D01*
X971069Y277010D01*
X968856Y277010D01*
G37*
%LPD*%
%LPC*%
G36*
X390049Y270460D02*
X390049Y270460D01*
X388004Y271307D01*
X386439Y272873D01*
X385591Y274918D01*
X385591Y277132D01*
X386439Y279177D01*
X388004Y280743D01*
X390049Y281590D01*
X392263Y281590D01*
X394308Y280743D01*
X395874Y279177D01*
X396721Y277132D01*
X396721Y274918D01*
X395874Y272873D01*
X394308Y271307D01*
X392263Y270460D01*
X390049Y270460D01*
G37*
%LPD*%
%LPC*%
G36*
X202093Y261135D02*
X202093Y261135D01*
X200048Y261982D01*
X198482Y263548D01*
X197635Y265593D01*
X197635Y267807D01*
X198482Y269852D01*
X200048Y271418D01*
X202093Y272265D01*
X204307Y272265D01*
X206352Y271418D01*
X207918Y269852D01*
X208765Y267807D01*
X208765Y265593D01*
X207918Y263548D01*
X206352Y261982D01*
X204307Y261135D01*
X202093Y261135D01*
G37*
%LPD*%
%LPC*%
G36*
X138593Y257960D02*
X138593Y257960D01*
X136548Y258807D01*
X134982Y260373D01*
X134135Y262418D01*
X134135Y264632D01*
X134982Y266677D01*
X136548Y268243D01*
X138593Y269090D01*
X140807Y269090D01*
X142852Y268243D01*
X144418Y266677D01*
X145265Y264632D01*
X145265Y262418D01*
X144418Y260373D01*
X142852Y258807D01*
X140807Y257960D01*
X138593Y257960D01*
G37*
%LPD*%
%LPC*%
G36*
X390049Y255698D02*
X390049Y255698D01*
X388004Y256545D01*
X386439Y258110D01*
X385591Y260156D01*
X385591Y262369D01*
X386439Y264415D01*
X388004Y265980D01*
X390049Y266827D01*
X392263Y266827D01*
X394308Y265980D01*
X395874Y264415D01*
X396721Y262369D01*
X396721Y260156D01*
X395874Y258110D01*
X394308Y256545D01*
X392263Y255698D01*
X390049Y255698D01*
G37*
%LPD*%
%LPC*%
G36*
X390049Y240935D02*
X390049Y240935D01*
X388004Y241782D01*
X386439Y243348D01*
X385591Y245393D01*
X385591Y247607D01*
X386439Y249652D01*
X388004Y251218D01*
X390049Y252065D01*
X392263Y252065D01*
X394308Y251218D01*
X395874Y249652D01*
X396721Y247607D01*
X396721Y245393D01*
X395874Y243348D01*
X394308Y241782D01*
X392263Y240935D01*
X390049Y240935D01*
G37*
%LPD*%
%LPC*%
G36*
X656912Y240498D02*
X656912Y240498D01*
X654867Y241345D01*
X653301Y242910D01*
X652454Y244956D01*
X652454Y247169D01*
X653301Y249215D01*
X654867Y250780D01*
X656912Y251627D01*
X659126Y251627D01*
X661171Y250780D01*
X662736Y249215D01*
X663583Y247169D01*
X663583Y244956D01*
X662736Y242910D01*
X661171Y241345D01*
X659126Y240498D01*
X656912Y240498D01*
G37*
%LPD*%
%LPC*%
G36*
X185493Y232460D02*
X185493Y232460D01*
X183448Y233307D01*
X181882Y234873D01*
X181035Y236918D01*
X181035Y239132D01*
X181882Y241177D01*
X183448Y242743D01*
X185493Y243590D01*
X187707Y243590D01*
X189752Y242743D01*
X191318Y241177D01*
X192165Y239132D01*
X192165Y236918D01*
X191318Y234873D01*
X189752Y233307D01*
X187707Y232460D01*
X185493Y232460D01*
G37*
%LPD*%
%LPC*%
G36*
X248131Y230973D02*
X248131Y230973D01*
X246085Y231820D01*
X244520Y233385D01*
X243673Y235431D01*
X243673Y237644D01*
X244520Y239690D01*
X246085Y241255D01*
X248131Y242102D01*
X250344Y242102D01*
X252390Y241255D01*
X253955Y239690D01*
X254802Y237644D01*
X254802Y235431D01*
X253955Y233385D01*
X252390Y231820D01*
X250344Y230973D01*
X248131Y230973D01*
G37*
%LPD*%
%LPC*%
G36*
X264006Y230149D02*
X264006Y230149D01*
X261960Y230996D01*
X260395Y232562D01*
X259548Y234607D01*
X259548Y236821D01*
X260395Y238866D01*
X261960Y240432D01*
X264006Y241279D01*
X266219Y241279D01*
X268265Y240432D01*
X269830Y238866D01*
X270677Y236821D01*
X270677Y234607D01*
X269830Y232562D01*
X268265Y230996D01*
X266219Y230149D01*
X264006Y230149D01*
G37*
%LPD*%
%LPC*%
G36*
X851381Y227798D02*
X851381Y227798D01*
X849335Y228645D01*
X847770Y230210D01*
X846923Y232256D01*
X846923Y234469D01*
X847770Y236515D01*
X849335Y238080D01*
X851381Y238927D01*
X853594Y238927D01*
X855640Y238080D01*
X857205Y236515D01*
X858052Y234469D01*
X858052Y232256D01*
X857205Y230210D01*
X855640Y228645D01*
X853594Y227798D01*
X851381Y227798D01*
G37*
%LPD*%
%LPC*%
G36*
X716443Y227798D02*
X716443Y227798D01*
X714398Y228645D01*
X712832Y230210D01*
X711985Y232256D01*
X711985Y234469D01*
X712832Y236515D01*
X714398Y238080D01*
X716443Y238927D01*
X718657Y238927D01*
X720702Y238080D01*
X722268Y236515D01*
X723115Y234469D01*
X723115Y232256D01*
X722268Y230210D01*
X720702Y228645D01*
X718657Y227798D01*
X716443Y227798D01*
G37*
%LPD*%
%LPC*%
G36*
X311631Y59523D02*
X311631Y59523D01*
X309585Y60370D01*
X308020Y61935D01*
X307173Y63981D01*
X307173Y66194D01*
X308020Y68240D01*
X309585Y69805D01*
X311631Y70652D01*
X313844Y70652D01*
X315890Y69805D01*
X317455Y68240D01*
X318302Y66194D01*
X318302Y63981D01*
X317455Y61935D01*
X315890Y60370D01*
X313844Y59523D01*
X311631Y59523D01*
G37*
%LPD*%
%LPC*%
G36*
X145231Y59223D02*
X145231Y59223D01*
X143185Y60070D01*
X141620Y61635D01*
X140773Y63681D01*
X140773Y65894D01*
X141620Y67940D01*
X143185Y69505D01*
X145231Y70352D01*
X147444Y70352D01*
X149490Y69505D01*
X151055Y67940D01*
X151902Y65894D01*
X151902Y63681D01*
X151055Y61635D01*
X149490Y60070D01*
X147444Y59223D01*
X145231Y59223D01*
G37*
%LPD*%
%LPC*%
G36*
X491018Y48410D02*
X491018Y48410D01*
X488973Y49257D01*
X487407Y50823D01*
X486560Y52868D01*
X486560Y55082D01*
X487407Y57127D01*
X488973Y58693D01*
X491018Y59540D01*
X493232Y59540D01*
X495277Y58693D01*
X496843Y57127D01*
X497690Y55082D01*
X497690Y52868D01*
X496843Y50823D01*
X495277Y49257D01*
X493232Y48410D01*
X491018Y48410D01*
G37*
%LPD*%
%LPC*%
G36*
X444981Y48410D02*
X444981Y48410D01*
X442935Y49257D01*
X441370Y50823D01*
X440523Y52868D01*
X440523Y55082D01*
X441370Y57127D01*
X442935Y58693D01*
X444981Y59540D01*
X447194Y59540D01*
X449240Y58693D01*
X450805Y57127D01*
X451652Y55082D01*
X451652Y52868D01*
X450805Y50823D01*
X449240Y49257D01*
X447194Y48410D01*
X444981Y48410D01*
G37*
%LPD*%
%LPC*%
G36*
X390049Y226173D02*
X390049Y226173D01*
X388004Y227020D01*
X386439Y228585D01*
X385591Y230631D01*
X385591Y232844D01*
X386439Y234890D01*
X388004Y236455D01*
X390049Y237302D01*
X392263Y237302D01*
X394308Y236455D01*
X395874Y234890D01*
X396721Y232844D01*
X396721Y230631D01*
X395874Y228585D01*
X394308Y227020D01*
X392263Y226173D01*
X390049Y226173D01*
G37*
%LPD*%
%LPC*%
G36*
X390049Y211410D02*
X390049Y211410D01*
X388004Y212257D01*
X386439Y213823D01*
X385591Y215868D01*
X385591Y218082D01*
X386439Y220127D01*
X388004Y221693D01*
X390049Y222540D01*
X392263Y222540D01*
X394308Y221693D01*
X395874Y220127D01*
X396721Y218082D01*
X396721Y215868D01*
X395874Y213823D01*
X394308Y212257D01*
X392263Y211410D01*
X390049Y211410D01*
G37*
%LPD*%
%LPC*%
G36*
X872018Y186523D02*
X872018Y186523D01*
X869973Y187370D01*
X868407Y188935D01*
X867560Y190981D01*
X867560Y193194D01*
X868407Y195240D01*
X869973Y196805D01*
X872018Y197652D01*
X874232Y197652D01*
X876277Y196805D01*
X877843Y195240D01*
X878690Y193194D01*
X878690Y190981D01*
X877843Y188935D01*
X876277Y187370D01*
X874232Y186523D01*
X872018Y186523D01*
G37*
%LPD*%
%LPC*%
G36*
X603731Y186523D02*
X603731Y186523D01*
X601685Y187370D01*
X600120Y188935D01*
X599273Y190981D01*
X599273Y193194D01*
X600120Y195240D01*
X601685Y196805D01*
X603731Y197652D01*
X605944Y197652D01*
X607990Y196805D01*
X609555Y195240D01*
X610402Y193194D01*
X610402Y190981D01*
X609555Y188935D01*
X607990Y187370D01*
X605944Y186523D01*
X603731Y186523D01*
G37*
%LPD*%
%LPC*%
G36*
X737081Y186523D02*
X737081Y186523D01*
X735035Y187370D01*
X733470Y188935D01*
X732623Y190981D01*
X732623Y193194D01*
X733470Y195240D01*
X735035Y196805D01*
X737081Y197652D01*
X739294Y197652D01*
X741340Y196805D01*
X742905Y195240D01*
X743752Y193194D01*
X743752Y190981D01*
X742905Y188935D01*
X741340Y187370D01*
X739294Y186523D01*
X737081Y186523D01*
G37*
%LPD*%
%LPC*%
G36*
X648181Y170648D02*
X648181Y170648D01*
X646135Y171495D01*
X644570Y173060D01*
X643723Y175106D01*
X643723Y177319D01*
X644570Y179365D01*
X646135Y180930D01*
X648181Y181777D01*
X650394Y181777D01*
X652440Y180930D01*
X654005Y179365D01*
X654852Y177319D01*
X654852Y175106D01*
X654005Y173060D01*
X652440Y171495D01*
X650394Y170648D01*
X648181Y170648D01*
G37*
%LPD*%
%LPC*%
G36*
X783118Y169060D02*
X783118Y169060D01*
X781073Y169907D01*
X779507Y171473D01*
X778660Y173518D01*
X778660Y175732D01*
X779507Y177777D01*
X781073Y179343D01*
X783118Y180190D01*
X785332Y180190D01*
X787377Y179343D01*
X788943Y177777D01*
X789790Y175732D01*
X789790Y173518D01*
X788943Y171473D01*
X787377Y169907D01*
X785332Y169060D01*
X783118Y169060D01*
G37*
%LPD*%
%LPC*%
G36*
X328349Y147629D02*
X328349Y147629D01*
X326304Y148476D01*
X324739Y150042D01*
X323892Y152087D01*
X323892Y154301D01*
X324739Y156346D01*
X326304Y157911D01*
X328349Y158758D01*
X330563Y158758D01*
X332608Y157911D01*
X334174Y156346D01*
X335021Y154301D01*
X335021Y152087D01*
X334174Y150042D01*
X332608Y148476D01*
X330563Y147629D01*
X328349Y147629D01*
G37*
%LPD*%
%LPC*%
G36*
X307762Y147629D02*
X307762Y147629D01*
X305717Y148476D01*
X304151Y150042D01*
X303304Y152087D01*
X303304Y154301D01*
X304151Y156346D01*
X305717Y157911D01*
X307762Y158758D01*
X309976Y158758D01*
X312021Y157911D01*
X313586Y156346D01*
X314433Y154301D01*
X314433Y152087D01*
X313586Y150042D01*
X312021Y148476D01*
X309976Y147629D01*
X307762Y147629D01*
G37*
%LPD*%
%LPC*%
G36*
X348937Y147629D02*
X348937Y147629D01*
X346892Y148476D01*
X345326Y150042D01*
X344479Y152087D01*
X344479Y154301D01*
X345326Y156346D01*
X346892Y157911D01*
X348937Y158758D01*
X351151Y158758D01*
X353196Y157911D01*
X354761Y156346D01*
X355608Y154301D01*
X355608Y152087D01*
X354761Y150042D01*
X353196Y148476D01*
X351151Y147629D01*
X348937Y147629D01*
G37*
%LPD*%
%LPC*%
G36*
X766127Y320039D02*
X766127Y320039D01*
X766127Y327359D01*
X767488Y326916D01*
X768913Y326190D01*
X770207Y325250D01*
X771338Y324119D01*
X772278Y322825D01*
X773004Y321400D01*
X773446Y320039D01*
X766127Y320039D01*
G37*
%LPD*%
%LPC*%
G36*
X549433Y93027D02*
X549433Y93027D01*
X549433Y100346D01*
X550794Y99904D01*
X552219Y99178D01*
X553513Y98238D01*
X554644Y97107D01*
X555584Y95813D01*
X556310Y94388D01*
X556752Y93027D01*
X549433Y93027D01*
G37*
%LPD*%
%LPC*%
G36*
X549433Y87948D02*
X549433Y87948D01*
X556752Y87948D01*
X556310Y86587D01*
X555584Y85162D01*
X554644Y83868D01*
X553513Y82737D01*
X552219Y81797D01*
X550794Y81071D01*
X549433Y80629D01*
X549433Y87948D01*
G37*
%LPD*%
%LPC*%
G36*
X766127Y314961D02*
X766127Y314961D01*
X773446Y314961D01*
X773004Y313600D01*
X772278Y312175D01*
X771338Y310881D01*
X770207Y309750D01*
X768913Y308810D01*
X767488Y308084D01*
X766127Y307641D01*
X766127Y314961D01*
G37*
%LPD*%
%LPC*%
G36*
X537035Y93027D02*
X537035Y93027D01*
X537477Y94388D01*
X538204Y95813D01*
X539144Y97107D01*
X540275Y98238D01*
X541568Y99178D01*
X542993Y99904D01*
X544355Y100346D01*
X544355Y93027D01*
X537035Y93027D01*
G37*
%LPD*%
%LPC*%
G36*
X753729Y320039D02*
X753729Y320039D01*
X754171Y321400D01*
X754897Y322825D01*
X755837Y324119D01*
X756968Y325250D01*
X758262Y326190D01*
X759687Y326916D01*
X761048Y327359D01*
X761048Y320039D01*
X753729Y320039D01*
G37*
%LPD*%
%LPC*%
G36*
X542993Y81071D02*
X542993Y81071D01*
X541568Y81797D01*
X540275Y82737D01*
X539144Y83868D01*
X538204Y85162D01*
X537477Y86587D01*
X537035Y87948D01*
X544355Y87948D01*
X544355Y80629D01*
X542993Y81071D01*
G37*
%LPD*%
%LPC*%
G36*
X759687Y308084D02*
X759687Y308084D01*
X758262Y308810D01*
X756968Y309750D01*
X755837Y310881D01*
X754897Y312175D01*
X754171Y313600D01*
X753729Y314961D01*
X761048Y314961D01*
X761048Y307641D01*
X759687Y308084D01*
G37*
%LPD*%
%LPC*%
G36*
X40131Y379056D02*
X40131Y379056D01*
X40131Y385962D01*
X40241Y385945D01*
X41610Y385500D01*
X42893Y384846D01*
X44057Y384000D01*
X45075Y382982D01*
X45921Y381818D01*
X46575Y380535D01*
X47020Y379166D01*
X47037Y379056D01*
X40131Y379056D01*
G37*
%LPD*%
%LPC*%
G36*
X103156Y38544D02*
X103156Y38544D01*
X103156Y45449D01*
X103266Y45432D01*
X104635Y44987D01*
X105918Y44334D01*
X107082Y43488D01*
X108100Y42470D01*
X108946Y41305D01*
X109600Y40023D01*
X110045Y38654D01*
X110062Y38544D01*
X103156Y38544D01*
G37*
%LPD*%
%LPC*%
G36*
X40131Y229994D02*
X40131Y229994D01*
X40131Y236899D01*
X40241Y236882D01*
X41610Y236437D01*
X42893Y235784D01*
X44057Y234938D01*
X45075Y233920D01*
X45921Y232755D01*
X46575Y231473D01*
X47020Y230104D01*
X47037Y229994D01*
X40131Y229994D01*
G37*
%LPD*%
%LPC*%
G36*
X811819Y541781D02*
X811819Y541781D01*
X811819Y548687D01*
X811929Y548670D01*
X813298Y548225D01*
X814580Y547571D01*
X815745Y546725D01*
X816763Y545707D01*
X817609Y544543D01*
X818262Y543260D01*
X818707Y541891D01*
X818724Y541781D01*
X811819Y541781D01*
G37*
%LPD*%
%LPC*%
G36*
X341281Y38544D02*
X341281Y38544D01*
X341281Y45449D01*
X341391Y45432D01*
X342760Y44987D01*
X344043Y44334D01*
X345207Y43488D01*
X346225Y42470D01*
X347071Y41305D01*
X347725Y40023D01*
X348170Y38654D01*
X348187Y38544D01*
X341281Y38544D01*
G37*
%LPD*%
%LPC*%
G36*
X268256Y38544D02*
X268256Y38544D01*
X268256Y45449D01*
X268366Y45432D01*
X269735Y44987D01*
X271018Y44334D01*
X272182Y43488D01*
X273200Y42470D01*
X274046Y41305D01*
X274700Y40023D01*
X275145Y38654D01*
X275162Y38544D01*
X268256Y38544D01*
G37*
%LPD*%
%LPC*%
G36*
X40131Y141094D02*
X40131Y141094D01*
X40131Y147999D01*
X40241Y147982D01*
X41610Y147537D01*
X42893Y146884D01*
X44057Y146038D01*
X45075Y145020D01*
X45921Y143855D01*
X46575Y142573D01*
X47020Y141204D01*
X47037Y141094D01*
X40131Y141094D01*
G37*
%LPD*%
%LPC*%
G36*
X174594Y38544D02*
X174594Y38544D01*
X174594Y45449D01*
X174704Y45432D01*
X176073Y44987D01*
X177355Y44334D01*
X178520Y43488D01*
X179538Y42470D01*
X180384Y41305D01*
X181037Y40023D01*
X181482Y38654D01*
X181499Y38544D01*
X174594Y38544D01*
G37*
%LPD*%
%LPC*%
G36*
X811819Y537719D02*
X811819Y537719D01*
X818724Y537719D01*
X818707Y537609D01*
X818262Y536240D01*
X817609Y534957D01*
X816763Y533793D01*
X815745Y532775D01*
X814580Y531929D01*
X813298Y531275D01*
X811929Y530830D01*
X811819Y530813D01*
X811819Y537719D01*
G37*
%LPD*%
%LPC*%
G36*
X800851Y541781D02*
X800851Y541781D01*
X800868Y541891D01*
X801313Y543260D01*
X801966Y544543D01*
X802812Y545707D01*
X803830Y546725D01*
X804995Y547571D01*
X806277Y548225D01*
X807646Y548670D01*
X807756Y548687D01*
X807756Y541781D01*
X800851Y541781D01*
G37*
%LPD*%
%LPC*%
G36*
X40131Y225931D02*
X40131Y225931D01*
X47037Y225931D01*
X47020Y225821D01*
X46575Y224452D01*
X45921Y223170D01*
X45075Y222005D01*
X44057Y220987D01*
X42893Y220141D01*
X41610Y219488D01*
X40241Y219043D01*
X40131Y219026D01*
X40131Y225931D01*
G37*
%LPD*%
%LPC*%
G36*
X330313Y38544D02*
X330313Y38544D01*
X330330Y38654D01*
X330775Y40023D01*
X331429Y41305D01*
X332275Y42470D01*
X333293Y43488D01*
X334457Y44334D01*
X335740Y44987D01*
X337109Y45432D01*
X337219Y45449D01*
X337219Y38544D01*
X330313Y38544D01*
G37*
%LPD*%
%LPC*%
G36*
X92188Y38544D02*
X92188Y38544D01*
X92205Y38654D01*
X92650Y40023D01*
X93304Y41305D01*
X94150Y42470D01*
X95168Y43488D01*
X96332Y44334D01*
X97615Y44987D01*
X98984Y45432D01*
X99094Y45449D01*
X99094Y38544D01*
X92188Y38544D01*
G37*
%LPD*%
%LPC*%
G36*
X341281Y34481D02*
X341281Y34481D01*
X348187Y34481D01*
X348170Y34371D01*
X347725Y33002D01*
X347071Y31720D01*
X346225Y30555D01*
X345207Y29537D01*
X344043Y28691D01*
X342760Y28038D01*
X341391Y27593D01*
X341281Y27576D01*
X341281Y34481D01*
G37*
%LPD*%
%LPC*%
G36*
X163626Y38544D02*
X163626Y38544D01*
X163643Y38654D01*
X164088Y40023D01*
X164741Y41305D01*
X165587Y42470D01*
X166605Y43488D01*
X167770Y44334D01*
X169052Y44987D01*
X170421Y45432D01*
X170531Y45449D01*
X170531Y38544D01*
X163626Y38544D01*
G37*
%LPD*%
%LPC*%
G36*
X257288Y38544D02*
X257288Y38544D01*
X257305Y38654D01*
X257750Y40023D01*
X258404Y41305D01*
X259250Y42470D01*
X260268Y43488D01*
X261432Y44334D01*
X262715Y44987D01*
X264084Y45432D01*
X264194Y45449D01*
X264194Y38544D01*
X257288Y38544D01*
G37*
%LPD*%
%LPC*%
G36*
X29163Y229994D02*
X29163Y229994D01*
X29180Y230104D01*
X29625Y231473D01*
X30279Y232755D01*
X31125Y233920D01*
X32143Y234938D01*
X33307Y235784D01*
X34590Y236437D01*
X35959Y236882D01*
X36069Y236899D01*
X36069Y229994D01*
X29163Y229994D01*
G37*
%LPD*%
%LPC*%
G36*
X29163Y379056D02*
X29163Y379056D01*
X29180Y379166D01*
X29625Y380535D01*
X30279Y381818D01*
X31125Y382982D01*
X32143Y384000D01*
X33307Y384846D01*
X34590Y385500D01*
X35959Y385945D01*
X36069Y385962D01*
X36069Y379056D01*
X29163Y379056D01*
G37*
%LPD*%
%LPC*%
G36*
X40131Y374994D02*
X40131Y374994D01*
X47037Y374994D01*
X47020Y374884D01*
X46575Y373515D01*
X45921Y372232D01*
X45075Y371068D01*
X44057Y370050D01*
X42893Y369204D01*
X41610Y368550D01*
X40241Y368105D01*
X40131Y368088D01*
X40131Y374994D01*
G37*
%LPD*%
%LPC*%
G36*
X29163Y141094D02*
X29163Y141094D01*
X29180Y141204D01*
X29625Y142573D01*
X30279Y143855D01*
X31125Y145020D01*
X32143Y146038D01*
X33307Y146884D01*
X34590Y147537D01*
X35959Y147982D01*
X36069Y147999D01*
X36069Y141094D01*
X29163Y141094D01*
G37*
%LPD*%
%LPC*%
G36*
X40131Y137031D02*
X40131Y137031D01*
X47037Y137031D01*
X47020Y136921D01*
X46575Y135552D01*
X45921Y134270D01*
X45075Y133105D01*
X44057Y132087D01*
X42893Y131241D01*
X41610Y130588D01*
X40241Y130143D01*
X40131Y130126D01*
X40131Y137031D01*
G37*
%LPD*%
%LPC*%
G36*
X103156Y34481D02*
X103156Y34481D01*
X110062Y34481D01*
X110045Y34371D01*
X109600Y33002D01*
X108946Y31720D01*
X108100Y30555D01*
X107082Y29537D01*
X105918Y28691D01*
X104635Y28038D01*
X103266Y27593D01*
X103156Y27576D01*
X103156Y34481D01*
G37*
%LPD*%
%LPC*%
G36*
X268256Y34481D02*
X268256Y34481D01*
X275162Y34481D01*
X275145Y34371D01*
X274700Y33002D01*
X274046Y31720D01*
X273200Y30555D01*
X272182Y29537D01*
X271018Y28691D01*
X269735Y28038D01*
X268366Y27593D01*
X268256Y27576D01*
X268256Y34481D01*
G37*
%LPD*%
%LPC*%
G36*
X174594Y34481D02*
X174594Y34481D01*
X181499Y34481D01*
X181482Y34371D01*
X181037Y33002D01*
X180384Y31720D01*
X179538Y30555D01*
X178520Y29537D01*
X177355Y28691D01*
X176073Y28038D01*
X174704Y27593D01*
X174594Y27576D01*
X174594Y34481D01*
G37*
%LPD*%
%LPC*%
G36*
X35959Y130143D02*
X35959Y130143D01*
X34590Y130588D01*
X33307Y131241D01*
X32143Y132087D01*
X31125Y133105D01*
X30279Y134270D01*
X29625Y135552D01*
X29180Y136921D01*
X29163Y137031D01*
X36069Y137031D01*
X36069Y130126D01*
X35959Y130143D01*
G37*
%LPD*%
%LPC*%
G36*
X35959Y368105D02*
X35959Y368105D01*
X34590Y368550D01*
X33307Y369204D01*
X32143Y370050D01*
X31125Y371068D01*
X30279Y372232D01*
X29625Y373515D01*
X29180Y374884D01*
X29163Y374994D01*
X36069Y374994D01*
X36069Y368088D01*
X35959Y368105D01*
G37*
%LPD*%
%LPC*%
G36*
X807646Y530830D02*
X807646Y530830D01*
X806277Y531275D01*
X804995Y531929D01*
X803830Y532775D01*
X802812Y533793D01*
X801966Y534957D01*
X801313Y536240D01*
X800868Y537609D01*
X800851Y537719D01*
X807756Y537719D01*
X807756Y530813D01*
X807646Y530830D01*
G37*
%LPD*%
%LPC*%
G36*
X98984Y27593D02*
X98984Y27593D01*
X97615Y28038D01*
X96332Y28691D01*
X95168Y29537D01*
X94150Y30555D01*
X93304Y31720D01*
X92650Y33002D01*
X92205Y34371D01*
X92188Y34481D01*
X99094Y34481D01*
X99094Y27576D01*
X98984Y27593D01*
G37*
%LPD*%
%LPC*%
G36*
X35959Y219043D02*
X35959Y219043D01*
X34590Y219488D01*
X33307Y220141D01*
X32143Y220987D01*
X31125Y222005D01*
X30279Y223170D01*
X29625Y224452D01*
X29180Y225821D01*
X29163Y225931D01*
X36069Y225931D01*
X36069Y219026D01*
X35959Y219043D01*
G37*
%LPD*%
%LPC*%
G36*
X337109Y27593D02*
X337109Y27593D01*
X335740Y28038D01*
X334457Y28691D01*
X333293Y29537D01*
X332275Y30555D01*
X331429Y31720D01*
X330775Y33002D01*
X330330Y34371D01*
X330313Y34481D01*
X337219Y34481D01*
X337219Y27576D01*
X337109Y27593D01*
G37*
%LPD*%
%LPC*%
G36*
X264084Y27593D02*
X264084Y27593D01*
X262715Y28038D01*
X261432Y28691D01*
X260268Y29537D01*
X259250Y30555D01*
X258404Y31720D01*
X257750Y33002D01*
X257305Y34371D01*
X257288Y34481D01*
X264194Y34481D01*
X264194Y27576D01*
X264084Y27593D01*
G37*
%LPD*%
%LPC*%
G36*
X170421Y27593D02*
X170421Y27593D01*
X169052Y28038D01*
X167770Y28691D01*
X166605Y29537D01*
X165587Y30555D01*
X164741Y31720D01*
X164088Y33002D01*
X163643Y34371D01*
X163626Y34481D01*
X170531Y34481D01*
X170531Y27576D01*
X170421Y27593D01*
G37*
%LPD*%
%LPC*%
G36*
X763587Y317499D02*
X763587Y317499D01*
X763587Y317501D01*
X763588Y317501D01*
X763588Y317499D01*
X763587Y317499D01*
G37*
%LPD*%
%LPC*%
G36*
X546893Y90487D02*
X546893Y90487D01*
X546893Y90488D01*
X546895Y90488D01*
X546895Y90487D01*
X546893Y90487D01*
G37*
%LPD*%
D10*
X479905Y557022D02*
X479903Y557154D01*
X479897Y557285D01*
X479887Y557417D01*
X479874Y557548D01*
X479856Y557678D01*
X479835Y557808D01*
X479810Y557938D01*
X479781Y558066D01*
X479748Y558194D01*
X479711Y558320D01*
X479671Y558446D01*
X479627Y558570D01*
X479579Y558693D01*
X479528Y558814D01*
X479473Y558934D01*
X479415Y559052D01*
X479353Y559168D01*
X479287Y559282D01*
X479219Y559395D01*
X479147Y559505D01*
X479072Y559613D01*
X478993Y559719D01*
X478912Y559823D01*
X478827Y559924D01*
X478740Y560022D01*
X478649Y560118D01*
X478556Y560211D01*
X478460Y560302D01*
X478362Y560389D01*
X478261Y560474D01*
X478157Y560555D01*
X478051Y560634D01*
X477943Y560709D01*
X477833Y560781D01*
X477720Y560849D01*
X477606Y560915D01*
X477490Y560977D01*
X477372Y561035D01*
X477252Y561090D01*
X477131Y561141D01*
X477008Y561189D01*
X476884Y561233D01*
X476758Y561273D01*
X476632Y561310D01*
X476504Y561343D01*
X476376Y561372D01*
X476246Y561397D01*
X476116Y561418D01*
X475986Y561436D01*
X475855Y561449D01*
X475723Y561459D01*
X475592Y561465D01*
X475460Y561467D01*
X475310Y561465D01*
X475161Y561459D01*
X475012Y561449D01*
X474863Y561436D01*
X474714Y561418D01*
X474566Y561397D01*
X474418Y561371D01*
X474272Y561342D01*
X474126Y561309D01*
X473981Y561272D01*
X473837Y561231D01*
X473694Y561187D01*
X473552Y561139D01*
X473412Y561087D01*
X473273Y561032D01*
X473135Y560973D01*
X473000Y560910D01*
X472865Y560844D01*
X472733Y560774D01*
X472603Y560701D01*
X472474Y560624D01*
X472347Y560544D01*
X472223Y560461D01*
X472101Y560375D01*
X471981Y560285D01*
X471864Y560192D01*
X471749Y560097D01*
X471636Y559998D01*
X471526Y559896D01*
X471419Y559792D01*
X471315Y559685D01*
X471213Y559575D01*
X471115Y559462D01*
X471019Y559347D01*
X470927Y559229D01*
X470837Y559109D01*
X470751Y558987D01*
X470668Y558863D01*
X470588Y558736D01*
X470512Y558608D01*
X470439Y558477D01*
X470369Y558344D01*
X470303Y558210D01*
X470241Y558074D01*
X470182Y557937D01*
X470126Y557798D01*
X470075Y557657D01*
X470027Y557516D01*
X478422Y553565D02*
X478518Y553658D01*
X478610Y553754D01*
X478700Y553853D01*
X478787Y553954D01*
X478872Y554057D01*
X478953Y554162D01*
X479031Y554270D01*
X479106Y554380D01*
X479179Y554492D01*
X479248Y554606D01*
X479314Y554722D01*
X479376Y554840D01*
X479435Y554959D01*
X479491Y555080D01*
X479544Y555203D01*
X479593Y555327D01*
X479638Y555452D01*
X479681Y555579D01*
X479719Y555706D01*
X479754Y555835D01*
X479785Y555964D01*
X479813Y556095D01*
X479837Y556226D01*
X479858Y556358D01*
X479874Y556490D01*
X479887Y556623D01*
X479897Y556756D01*
X479902Y556889D01*
X479904Y557022D01*
X478423Y553565D02*
X470027Y543687D01*
X479905Y543687D01*
D11*
X346075Y236538D03*
X320675Y236538D03*
X346075Y249238D03*
X333375Y249238D03*
X346075Y261938D03*
X346075Y274638D03*
X333375Y274638D03*
X320675Y274638D03*
X333375Y236538D03*
X307975Y236538D03*
X333375Y261938D03*
X320675Y261938D03*
X320675Y249238D03*
X307975Y249238D03*
X307975Y261938D03*
X307975Y274638D03*
D12*
X589026Y500980D03*
X589026Y480980D03*
X589026Y460980D03*
X589026Y440980D03*
X38100Y440694D03*
X38100Y460694D03*
X38100Y480694D03*
X38100Y500694D03*
D13*
X915988Y342900D03*
X915988Y317500D03*
X890588Y342900D03*
X890588Y317500D03*
X865188Y342900D03*
X865188Y317500D03*
X839788Y342900D03*
X839788Y317500D03*
X814388Y342900D03*
X814388Y317500D03*
X788988Y342900D03*
X788988Y317500D03*
X763588Y342900D03*
X763588Y317500D03*
X915988Y292100D03*
X890588Y292100D03*
X865188Y292100D03*
X839788Y292100D03*
X814388Y292100D03*
X788988Y292100D03*
X763588Y292100D03*
D12*
X286225Y36513D03*
X266225Y36513D03*
X359250Y36513D03*
X339250Y36513D03*
X192563Y36513D03*
X172563Y36513D03*
X121125Y36513D03*
X101125Y36513D03*
D13*
X71438Y120650D03*
X71438Y146050D03*
X96838Y120650D03*
X96838Y146050D03*
X122238Y120650D03*
X122238Y146050D03*
X147638Y120650D03*
X147638Y146050D03*
X173038Y120650D03*
X173038Y146050D03*
X198438Y120650D03*
X198438Y146050D03*
X223838Y120650D03*
X223838Y146050D03*
X198438Y171450D03*
X173038Y171450D03*
X147638Y171450D03*
X122238Y171450D03*
X96838Y171450D03*
X71438Y171450D03*
D12*
X38100Y187963D03*
X38100Y207963D03*
X38100Y227963D03*
X38100Y99063D03*
X38100Y119063D03*
X38100Y139063D03*
X809788Y539750D03*
X829788Y539750D03*
X849788Y539750D03*
X869788Y539750D03*
X869788Y36513D03*
X849788Y36513D03*
X829788Y36513D03*
X809788Y36513D03*
X38100Y277025D03*
X38100Y297025D03*
X38100Y317025D03*
X38100Y337025D03*
X38100Y357025D03*
X38100Y377025D03*
D13*
X419894Y90488D03*
X445294Y90488D03*
X470694Y90488D03*
X496094Y90488D03*
X521494Y90488D03*
X546894Y90488D03*
D11*
X319288Y153194D03*
X391319Y203994D03*
X339625Y153194D03*
X236538Y214313D03*
X236538Y203994D03*
X298450Y153194D03*
X357981Y331788D03*
X317500Y331788D03*
X277019Y331788D03*
X284163Y434975D03*
X350838Y434975D03*
X307975Y503238D03*
X327819Y503238D03*
X236538Y331788D03*
X399256Y331788D03*
X122238Y225425D03*
X96838Y225425D03*
X71438Y225425D03*
X216414Y76200D03*
X381514Y76200D03*
X517525Y338138D03*
X655638Y457398D03*
X292894Y111919D03*
X419894Y175419D03*
X521494Y154087D03*
X808038Y430213D03*
X808038Y403225D03*
X852488Y403225D03*
X852488Y430213D03*
X898525Y403225D03*
X898525Y430213D03*
X762000Y430213D03*
X762000Y406400D03*
X942975Y430213D03*
X942975Y403225D03*
X715963Y406400D03*
X715963Y430213D03*
X655638Y420688D03*
X637778Y402431D03*
X989013Y378183D03*
X989013Y422147D03*
X661988Y230188D03*
X661988Y215900D03*
X676275Y230188D03*
X806450Y214313D03*
X817563Y214313D03*
X817563Y225425D03*
X933450Y228600D03*
X949325Y228600D03*
X949325Y215900D03*
X933450Y215900D03*
X868363Y131763D03*
X879475Y119063D03*
X879475Y131763D03*
X742950Y119063D03*
X742950Y131763D03*
X733425Y131763D03*
X733425Y119063D03*
X609600Y131763D03*
X601663Y114300D03*
X540544Y171847D03*
X553244Y171847D03*
X540544Y154087D03*
X553244Y154087D03*
X540544Y136922D03*
X553244Y136922D03*
X553244Y119459D03*
X540544Y119459D03*
X461963Y338138D03*
X465138Y303213D03*
X488950Y303213D03*
X488950Y254000D03*
X446881Y254000D03*
X504825Y196850D03*
X463115Y384175D03*
X502118Y384175D03*
X580123Y384175D03*
X186512Y384175D03*
X290513Y219075D03*
X290513Y209550D03*
X219075Y384175D03*
X153949Y384175D03*
X121387Y384175D03*
X88824Y384175D03*
X56261Y384175D03*
X541120Y384175D03*
X619125Y384175D03*
X423863Y384175D03*
X655638Y494109D03*
X655638Y530820D03*
X655638Y567531D03*
X696459Y567531D03*
X737280Y567531D03*
X778102Y567531D03*
X900566Y567531D03*
X941387Y567531D03*
X989013Y510074D03*
X989013Y466110D03*
X989013Y334219D03*
X989013Y290256D03*
X989013Y159365D03*
X989013Y115401D03*
X989013Y71438D03*
X911225Y36513D03*
X766762Y36513D03*
X670983Y36513D03*
X574992Y36513D03*
X478790Y36513D03*
X231775Y36513D03*
X66675Y36513D03*
X36513Y68263D03*
X284163Y449263D03*
X350838Y449263D03*
X307975Y488950D03*
X327819Y488950D03*
X423863Y355600D03*
X438944Y137319D03*
X76488Y72725D03*
X76488Y83838D03*
X244475Y76200D03*
X423863Y283369D03*
X249238Y173831D03*
X491331Y338138D03*
X405209Y203994D03*
X419894Y150813D03*
X766763Y174625D03*
X831850Y174625D03*
X700088Y174625D03*
X633413Y174625D03*
X623094Y36513D03*
X718873Y36513D03*
X766763Y146050D03*
X828675Y144463D03*
X708025Y98425D03*
X774700Y98425D03*
X850900Y98425D03*
X912813Y98425D03*
X917575Y144463D03*
X641350Y98425D03*
X989013Y203078D03*
X989013Y246542D03*
X859745Y567531D03*
X144621Y282575D03*
X166211Y311944D03*
X147638Y225425D03*
X173038Y225425D03*
X198438Y225425D03*
X526891Y36513D03*
X430689Y36513D03*
X382588Y36513D03*
X487363Y154087D03*
X504825Y154087D03*
X385763Y113506D03*
X384175Y152400D03*
X457994Y68263D03*
X483394Y68263D03*
X432594Y68263D03*
X401638Y134938D03*
X818923Y567531D03*
X688975Y495300D03*
X730250Y495300D03*
X854075Y495300D03*
X892175Y495300D03*
X962025Y495300D03*
X308869Y153194D03*
X492125Y53975D03*
X446088Y53975D03*
X257175Y298450D03*
X249238Y236538D03*
X350044Y153194D03*
X368300Y127000D03*
X265113Y235714D03*
X139700Y263525D03*
X186600Y238025D03*
D14*
X587375Y317500D03*
D15*
X574675Y74613D03*
D11*
X391156Y312731D03*
D15*
X701675Y473075D03*
D11*
X391156Y290788D03*
D14*
X606425Y317500D03*
D15*
X641350Y74613D03*
X747713Y473075D03*
D11*
X391156Y276025D03*
D14*
X625475Y317500D03*
D15*
X708025Y74613D03*
X792163Y496888D03*
D11*
X391156Y261263D03*
D14*
X646113Y317500D03*
D15*
X774700Y74613D03*
X836613Y496888D03*
D11*
X391156Y231738D03*
D14*
X685800Y317500D03*
D15*
X912813Y74613D03*
X931863Y496888D03*
D11*
X969963Y282575D03*
X391156Y216975D03*
D14*
X704850Y317500D03*
D15*
X974725Y473075D03*
D11*
X391156Y246500D03*
D14*
X666750Y317500D03*
D15*
X850900Y74613D03*
X884238Y477838D03*
D11*
X329456Y153194D03*
X146338Y64788D03*
X312738Y65088D03*
X325834Y194469D03*
X315516Y194469D03*
X439738Y121444D03*
X305594Y194469D03*
X282575Y299244D03*
X852488Y233363D03*
X873125Y192088D03*
X784225Y174625D03*
X717550Y233363D03*
X738188Y192088D03*
X649288Y176213D03*
X658019Y246063D03*
X604838Y192088D03*
X203200Y266700D03*
D16*
X184944Y330994D03*
X111125Y349250D03*
D11*
X130175Y296863D03*
M02*
