G04 EAGLE Gerber RS-274X export*
G75*
%MOMM*%
%FSLAX34Y34*%
%LPD*%
%IN*%
%IPPOS*%
%AMOC8*
5,1,8,0,0,1.08239X$1,22.5*%
G01*
%ADD10C,0.254000*%


D10*
X0Y-70000D02*
X1000000Y-70000D01*
X1000000Y-20000D01*
X910000Y-20000D01*
X909128Y-19962D01*
X908264Y-19848D01*
X907412Y-19659D01*
X906580Y-19397D01*
X905774Y-19063D01*
X905000Y-18660D01*
X904264Y-18192D01*
X903572Y-17660D01*
X902929Y-17071D01*
X902340Y-16428D01*
X901808Y-15736D01*
X901340Y-15000D01*
X900937Y-14226D01*
X900603Y-13420D01*
X900341Y-12588D01*
X900152Y-11736D01*
X900038Y-10872D01*
X900000Y-10000D01*
X900038Y-9128D01*
X900152Y-8264D01*
X900341Y-7412D01*
X900603Y-6580D01*
X900937Y-5774D01*
X901340Y-5000D01*
X901808Y-4264D01*
X902340Y-3572D01*
X902929Y-2929D01*
X903572Y-2340D01*
X904264Y-1808D01*
X905000Y-1340D01*
X905774Y-937D01*
X906580Y-603D01*
X907412Y-341D01*
X908264Y-152D01*
X909128Y-38D01*
X910000Y0D01*
X975000Y0D01*
X977179Y95D01*
X979341Y380D01*
X981470Y852D01*
X983551Y1508D01*
X985565Y2342D01*
X987500Y3349D01*
X989339Y4521D01*
X991070Y5849D01*
X992678Y7322D01*
X994151Y8930D01*
X995479Y10661D01*
X996651Y12500D01*
X997658Y14435D01*
X998492Y16450D01*
X999148Y18530D01*
X999620Y20659D01*
X999905Y22821D01*
X1000000Y25000D01*
X1000000Y555000D01*
X999905Y557179D01*
X999620Y559341D01*
X999148Y561470D01*
X998492Y563551D01*
X997658Y565565D01*
X996651Y567500D01*
X995479Y569339D01*
X994151Y571070D01*
X992678Y572678D01*
X991070Y574151D01*
X989339Y575479D01*
X987500Y576651D01*
X985565Y577658D01*
X983551Y578492D01*
X981470Y579148D01*
X979341Y579620D01*
X977179Y579905D01*
X975000Y580000D01*
X910000Y580000D01*
X909128Y580038D01*
X908264Y580152D01*
X907412Y580341D01*
X906580Y580603D01*
X905774Y580937D01*
X905000Y581340D01*
X904264Y581808D01*
X903572Y582340D01*
X902929Y582929D01*
X902340Y583572D01*
X901808Y584264D01*
X901340Y585000D01*
X900937Y585774D01*
X900603Y586580D01*
X900341Y587412D01*
X900152Y588264D01*
X900038Y589128D01*
X900000Y590000D01*
X900038Y590872D01*
X900152Y591736D01*
X900341Y592588D01*
X900603Y593420D01*
X900937Y594226D01*
X901340Y595000D01*
X901808Y595736D01*
X902340Y596428D01*
X902929Y597071D01*
X903572Y597660D01*
X904264Y598192D01*
X905000Y598660D01*
X905774Y599063D01*
X906580Y599397D01*
X907412Y599659D01*
X908264Y599848D01*
X909128Y599962D01*
X910000Y600000D01*
X1000000Y600000D01*
X1000000Y650000D01*
X0Y650000D01*
X0Y600000D01*
X90000Y600000D01*
X90872Y599962D01*
X91736Y599848D01*
X92588Y599659D01*
X93420Y599397D01*
X94226Y599063D01*
X95000Y598660D01*
X95736Y598192D01*
X96428Y597660D01*
X97071Y597071D01*
X97660Y596428D01*
X98192Y595736D01*
X98660Y595000D01*
X99063Y594226D01*
X99397Y593420D01*
X99659Y592588D01*
X99848Y591736D01*
X99962Y590872D01*
X100000Y590000D01*
X99962Y589128D01*
X99848Y588264D01*
X99659Y587412D01*
X99397Y586580D01*
X99063Y585774D01*
X98660Y585000D01*
X98192Y584264D01*
X97660Y583572D01*
X97071Y582929D01*
X96428Y582340D01*
X95736Y581808D01*
X95000Y581340D01*
X94226Y580937D01*
X93420Y580603D01*
X92588Y580341D01*
X91736Y580152D01*
X90872Y580038D01*
X90000Y580000D01*
X25000Y580000D01*
X22821Y579905D01*
X20659Y579620D01*
X18530Y579148D01*
X16450Y578492D01*
X14435Y577658D01*
X12500Y576651D01*
X10661Y575479D01*
X8930Y574151D01*
X7322Y572678D01*
X5849Y571070D01*
X4521Y569339D01*
X3349Y567500D01*
X2342Y565565D01*
X1508Y563551D01*
X852Y561470D01*
X380Y559341D01*
X95Y557179D01*
X0Y555000D01*
X0Y25000D01*
X95Y22821D01*
X380Y20659D01*
X852Y18530D01*
X1508Y16450D01*
X2342Y14435D01*
X3349Y12500D01*
X4521Y10661D01*
X5849Y8930D01*
X7322Y7322D01*
X8930Y5849D01*
X10661Y4521D01*
X12500Y3349D01*
X14435Y2342D01*
X16450Y1508D01*
X18530Y852D01*
X20659Y380D01*
X22821Y95D01*
X25000Y0D01*
X90000Y0D01*
X90872Y-38D01*
X91736Y-152D01*
X92588Y-341D01*
X93420Y-603D01*
X94226Y-937D01*
X95000Y-1340D01*
X95736Y-1808D01*
X96428Y-2340D01*
X97071Y-2929D01*
X97660Y-3572D01*
X98192Y-4264D01*
X98660Y-5000D01*
X99063Y-5774D01*
X99397Y-6580D01*
X99659Y-7412D01*
X99848Y-8264D01*
X99962Y-9128D01*
X100000Y-10000D01*
X99962Y-10872D01*
X99848Y-11736D01*
X99659Y-12588D01*
X99397Y-13420D01*
X99063Y-14226D01*
X98660Y-15000D01*
X98192Y-15736D01*
X97660Y-16428D01*
X97071Y-17071D01*
X96428Y-17660D01*
X95736Y-18192D01*
X95000Y-18660D01*
X94226Y-19063D01*
X93420Y-19397D01*
X92588Y-19659D01*
X91736Y-19848D01*
X90872Y-19962D01*
X90000Y-20000D01*
X0Y-20000D01*
X0Y-70000D01*
X130000Y590000D02*
X130038Y589128D01*
X130152Y588264D01*
X130341Y587412D01*
X130603Y586580D01*
X130937Y585774D01*
X131340Y585000D01*
X131808Y584264D01*
X132340Y583572D01*
X132929Y582929D01*
X133572Y582340D01*
X134264Y581808D01*
X135000Y581340D01*
X135774Y580937D01*
X136580Y580603D01*
X137412Y580341D01*
X138264Y580152D01*
X139128Y580038D01*
X140000Y580000D01*
X860000Y580000D01*
X860872Y580038D01*
X861736Y580152D01*
X862588Y580341D01*
X863420Y580603D01*
X864226Y580937D01*
X865000Y581340D01*
X865736Y581808D01*
X866428Y582340D01*
X867071Y582929D01*
X867660Y583572D01*
X868192Y584264D01*
X868660Y585000D01*
X869063Y585774D01*
X869397Y586580D01*
X869659Y587412D01*
X869848Y588264D01*
X869962Y589128D01*
X870000Y590000D01*
X869962Y590872D01*
X869848Y591736D01*
X869659Y592588D01*
X869397Y593420D01*
X869063Y594226D01*
X868660Y595000D01*
X868192Y595736D01*
X867660Y596428D01*
X867071Y597071D01*
X866428Y597660D01*
X865736Y598192D01*
X865000Y598660D01*
X864226Y599063D01*
X863420Y599397D01*
X862588Y599659D01*
X861736Y599848D01*
X860872Y599962D01*
X860000Y600000D01*
X140000Y600000D01*
X139128Y599962D01*
X138264Y599848D01*
X137412Y599659D01*
X136580Y599397D01*
X135774Y599063D01*
X135000Y598660D01*
X134264Y598192D01*
X133572Y597660D01*
X132929Y597071D01*
X132340Y596428D01*
X131808Y595736D01*
X131340Y595000D01*
X130937Y594226D01*
X130603Y593420D01*
X130341Y592588D01*
X130152Y591736D01*
X130038Y590872D01*
X130000Y590000D01*
X130000Y-10000D02*
X130038Y-10872D01*
X130152Y-11736D01*
X130341Y-12588D01*
X130603Y-13420D01*
X130937Y-14226D01*
X131340Y-15000D01*
X131808Y-15736D01*
X132340Y-16428D01*
X132929Y-17071D01*
X133572Y-17660D01*
X134264Y-18192D01*
X135000Y-18660D01*
X135774Y-19063D01*
X136580Y-19397D01*
X137412Y-19659D01*
X138264Y-19848D01*
X139128Y-19962D01*
X140000Y-20000D01*
X860000Y-20000D01*
X860872Y-19962D01*
X861736Y-19848D01*
X862588Y-19659D01*
X863420Y-19397D01*
X864226Y-19063D01*
X865000Y-18660D01*
X865736Y-18192D01*
X866428Y-17660D01*
X867071Y-17071D01*
X867660Y-16428D01*
X868192Y-15736D01*
X868660Y-15000D01*
X869063Y-14226D01*
X869397Y-13420D01*
X869659Y-12588D01*
X869848Y-11736D01*
X869962Y-10872D01*
X870000Y-10000D01*
X869962Y-9128D01*
X869848Y-8264D01*
X869659Y-7412D01*
X869397Y-6580D01*
X869063Y-5774D01*
X868660Y-5000D01*
X868192Y-4264D01*
X867660Y-3572D01*
X867071Y-2929D01*
X866428Y-2340D01*
X865736Y-1808D01*
X865000Y-1340D01*
X864226Y-937D01*
X863420Y-603D01*
X862588Y-341D01*
X861736Y-152D01*
X860872Y-38D01*
X860000Y0D01*
X140000Y0D01*
X139128Y-38D01*
X138264Y-152D01*
X137412Y-341D01*
X136580Y-603D01*
X135774Y-937D01*
X135000Y-1340D01*
X134264Y-1808D01*
X133572Y-2340D01*
X132929Y-2929D01*
X132340Y-3572D01*
X131808Y-4264D01*
X131340Y-5000D01*
X130937Y-5774D01*
X130603Y-6580D01*
X130341Y-7412D01*
X130152Y-8264D01*
X130038Y-9128D01*
X130000Y-10000D01*
X45000Y549464D02*
X44924Y548396D01*
X44771Y547335D01*
X44543Y546288D01*
X44241Y545260D01*
X43867Y544256D01*
X43422Y543281D01*
X42908Y542341D01*
X42329Y541440D01*
X41687Y540582D01*
X40985Y539772D01*
X40228Y539015D01*
X39418Y538313D01*
X38560Y537671D01*
X37659Y537092D01*
X36719Y536578D01*
X35744Y536133D01*
X34740Y535759D01*
X33712Y535457D01*
X32665Y535229D01*
X31604Y535076D01*
X30536Y535000D01*
X29464Y535000D01*
X28396Y535076D01*
X27335Y535229D01*
X26288Y535457D01*
X25260Y535759D01*
X24256Y536133D01*
X23281Y536578D01*
X22341Y537092D01*
X21440Y537671D01*
X20582Y538313D01*
X19772Y539015D01*
X19015Y539772D01*
X18313Y540582D01*
X17671Y541440D01*
X17092Y542341D01*
X16578Y543281D01*
X16133Y544256D01*
X15759Y545260D01*
X15457Y546288D01*
X15229Y547335D01*
X15076Y548396D01*
X15000Y549464D01*
X15000Y550536D01*
X15076Y551604D01*
X15229Y552665D01*
X15457Y553712D01*
X15759Y554740D01*
X16133Y555744D01*
X16578Y556719D01*
X17092Y557659D01*
X17671Y558560D01*
X18313Y559418D01*
X19015Y560228D01*
X19772Y560985D01*
X20582Y561687D01*
X21440Y562329D01*
X22341Y562908D01*
X23281Y563422D01*
X24256Y563867D01*
X25260Y564241D01*
X26288Y564543D01*
X27335Y564771D01*
X28396Y564924D01*
X29464Y565000D01*
X30536Y565000D01*
X31604Y564924D01*
X32665Y564771D01*
X33712Y564543D01*
X34740Y564241D01*
X35744Y563867D01*
X36719Y563422D01*
X37659Y562908D01*
X38560Y562329D01*
X39418Y561687D01*
X40228Y560985D01*
X40985Y560228D01*
X41687Y559418D01*
X42329Y558560D01*
X42908Y557659D01*
X43422Y556719D01*
X43867Y555744D01*
X44241Y554740D01*
X44543Y553712D01*
X44771Y552665D01*
X44924Y551604D01*
X45000Y550536D01*
X45000Y549464D01*
X985000Y549464D02*
X984924Y548396D01*
X984771Y547335D01*
X984543Y546288D01*
X984241Y545260D01*
X983867Y544256D01*
X983422Y543281D01*
X982908Y542341D01*
X982329Y541440D01*
X981687Y540582D01*
X980985Y539772D01*
X980228Y539015D01*
X979418Y538313D01*
X978560Y537671D01*
X977659Y537092D01*
X976719Y536578D01*
X975744Y536133D01*
X974740Y535759D01*
X973712Y535457D01*
X972665Y535229D01*
X971604Y535076D01*
X970536Y535000D01*
X969464Y535000D01*
X968396Y535076D01*
X967335Y535229D01*
X966288Y535457D01*
X965260Y535759D01*
X964256Y536133D01*
X963281Y536578D01*
X962341Y537092D01*
X961440Y537671D01*
X960582Y538313D01*
X959772Y539015D01*
X959015Y539772D01*
X958313Y540582D01*
X957671Y541440D01*
X957092Y542341D01*
X956578Y543281D01*
X956133Y544256D01*
X955759Y545260D01*
X955457Y546288D01*
X955229Y547335D01*
X955076Y548396D01*
X955000Y549464D01*
X955000Y550536D01*
X955076Y551604D01*
X955229Y552665D01*
X955457Y553712D01*
X955759Y554740D01*
X956133Y555744D01*
X956578Y556719D01*
X957092Y557659D01*
X957671Y558560D01*
X958313Y559418D01*
X959015Y560228D01*
X959772Y560985D01*
X960582Y561687D01*
X961440Y562329D01*
X962341Y562908D01*
X963281Y563422D01*
X964256Y563867D01*
X965260Y564241D01*
X966288Y564543D01*
X967335Y564771D01*
X968396Y564924D01*
X969464Y565000D01*
X970536Y565000D01*
X971604Y564924D01*
X972665Y564771D01*
X973712Y564543D01*
X974740Y564241D01*
X975744Y563867D01*
X976719Y563422D01*
X977659Y562908D01*
X978560Y562329D01*
X979418Y561687D01*
X980228Y560985D01*
X980985Y560228D01*
X981687Y559418D01*
X982329Y558560D01*
X982908Y557659D01*
X983422Y556719D01*
X983867Y555744D01*
X984241Y554740D01*
X984543Y553712D01*
X984771Y552665D01*
X984924Y551604D01*
X985000Y550536D01*
X985000Y549464D01*
X45000Y29464D02*
X44924Y28396D01*
X44771Y27335D01*
X44543Y26288D01*
X44241Y25260D01*
X43867Y24256D01*
X43422Y23281D01*
X42908Y22341D01*
X42329Y21440D01*
X41687Y20582D01*
X40985Y19772D01*
X40228Y19015D01*
X39418Y18313D01*
X38560Y17671D01*
X37659Y17092D01*
X36719Y16578D01*
X35744Y16133D01*
X34740Y15759D01*
X33712Y15457D01*
X32665Y15229D01*
X31604Y15076D01*
X30536Y15000D01*
X29464Y15000D01*
X28396Y15076D01*
X27335Y15229D01*
X26288Y15457D01*
X25260Y15759D01*
X24256Y16133D01*
X23281Y16578D01*
X22341Y17092D01*
X21440Y17671D01*
X20582Y18313D01*
X19772Y19015D01*
X19015Y19772D01*
X18313Y20582D01*
X17671Y21440D01*
X17092Y22341D01*
X16578Y23281D01*
X16133Y24256D01*
X15759Y25260D01*
X15457Y26288D01*
X15229Y27335D01*
X15076Y28396D01*
X15000Y29464D01*
X15000Y30536D01*
X15076Y31604D01*
X15229Y32665D01*
X15457Y33712D01*
X15759Y34740D01*
X16133Y35744D01*
X16578Y36719D01*
X17092Y37659D01*
X17671Y38560D01*
X18313Y39418D01*
X19015Y40228D01*
X19772Y40985D01*
X20582Y41687D01*
X21440Y42329D01*
X22341Y42908D01*
X23281Y43422D01*
X24256Y43867D01*
X25260Y44241D01*
X26288Y44543D01*
X27335Y44771D01*
X28396Y44924D01*
X29464Y45000D01*
X30536Y45000D01*
X31604Y44924D01*
X32665Y44771D01*
X33712Y44543D01*
X34740Y44241D01*
X35744Y43867D01*
X36719Y43422D01*
X37659Y42908D01*
X38560Y42329D01*
X39418Y41687D01*
X40228Y40985D01*
X40985Y40228D01*
X41687Y39418D01*
X42329Y38560D01*
X42908Y37659D01*
X43422Y36719D01*
X43867Y35744D01*
X44241Y34740D01*
X44543Y33712D01*
X44771Y32665D01*
X44924Y31604D01*
X45000Y30536D01*
X45000Y29464D01*
X985000Y29464D02*
X984924Y28396D01*
X984771Y27335D01*
X984543Y26288D01*
X984241Y25260D01*
X983867Y24256D01*
X983422Y23281D01*
X982908Y22341D01*
X982329Y21440D01*
X981687Y20582D01*
X980985Y19772D01*
X980228Y19015D01*
X979418Y18313D01*
X978560Y17671D01*
X977659Y17092D01*
X976719Y16578D01*
X975744Y16133D01*
X974740Y15759D01*
X973712Y15457D01*
X972665Y15229D01*
X971604Y15076D01*
X970536Y15000D01*
X969464Y15000D01*
X968396Y15076D01*
X967335Y15229D01*
X966288Y15457D01*
X965260Y15759D01*
X964256Y16133D01*
X963281Y16578D01*
X962341Y17092D01*
X961440Y17671D01*
X960582Y18313D01*
X959772Y19015D01*
X959015Y19772D01*
X958313Y20582D01*
X957671Y21440D01*
X957092Y22341D01*
X956578Y23281D01*
X956133Y24256D01*
X955759Y25260D01*
X955457Y26288D01*
X955229Y27335D01*
X955076Y28396D01*
X955000Y29464D01*
X955000Y30536D01*
X955076Y31604D01*
X955229Y32665D01*
X955457Y33712D01*
X955759Y34740D01*
X956133Y35744D01*
X956578Y36719D01*
X957092Y37659D01*
X957671Y38560D01*
X958313Y39418D01*
X959015Y40228D01*
X959772Y40985D01*
X960582Y41687D01*
X961440Y42329D01*
X962341Y42908D01*
X963281Y43422D01*
X964256Y43867D01*
X965260Y44241D01*
X966288Y44543D01*
X967335Y44771D01*
X968396Y44924D01*
X969464Y45000D01*
X970536Y45000D01*
X971604Y44924D01*
X972665Y44771D01*
X973712Y44543D01*
X974740Y44241D01*
X975744Y43867D01*
X976719Y43422D01*
X977659Y42908D01*
X978560Y42329D01*
X979418Y41687D01*
X980228Y40985D01*
X980985Y40228D01*
X981687Y39418D01*
X982329Y38560D01*
X982908Y37659D01*
X983422Y36719D01*
X983867Y35744D01*
X984241Y34740D01*
X984543Y33712D01*
X984771Y32665D01*
X984924Y31604D01*
X985000Y30536D01*
X985000Y29464D01*
X60000Y624563D02*
X59924Y623694D01*
X59772Y622834D01*
X59546Y621990D01*
X59248Y621170D01*
X58879Y620378D01*
X58442Y619622D01*
X57941Y618907D01*
X57380Y618238D01*
X56762Y617620D01*
X56093Y617059D01*
X55378Y616558D01*
X54622Y616121D01*
X53830Y615752D01*
X53010Y615454D01*
X52166Y615228D01*
X51307Y615076D01*
X50437Y615000D01*
X49563Y615000D01*
X48694Y615076D01*
X47834Y615228D01*
X46990Y615454D01*
X46170Y615752D01*
X45378Y616121D01*
X44622Y616558D01*
X43907Y617059D01*
X43238Y617620D01*
X42620Y618238D01*
X42059Y618907D01*
X41558Y619622D01*
X41121Y620378D01*
X40752Y621170D01*
X40454Y621990D01*
X40228Y622834D01*
X40076Y623694D01*
X40000Y624563D01*
X40000Y625437D01*
X40076Y626307D01*
X40228Y627166D01*
X40454Y628010D01*
X40752Y628830D01*
X41121Y629622D01*
X41558Y630378D01*
X42059Y631093D01*
X42620Y631762D01*
X43238Y632380D01*
X43907Y632941D01*
X44622Y633442D01*
X45378Y633879D01*
X46170Y634248D01*
X46990Y634546D01*
X47834Y634772D01*
X48694Y634924D01*
X49563Y635000D01*
X50437Y635000D01*
X51307Y634924D01*
X52166Y634772D01*
X53010Y634546D01*
X53830Y634248D01*
X54622Y633879D01*
X55378Y633442D01*
X56093Y632941D01*
X56762Y632380D01*
X57380Y631762D01*
X57941Y631093D01*
X58442Y630378D01*
X58879Y629622D01*
X59248Y628830D01*
X59546Y628010D01*
X59772Y627166D01*
X59924Y626307D01*
X60000Y625437D01*
X60000Y624563D01*
X960000Y624563D02*
X959924Y623694D01*
X959772Y622834D01*
X959546Y621990D01*
X959248Y621170D01*
X958879Y620378D01*
X958442Y619622D01*
X957941Y618907D01*
X957380Y618238D01*
X956762Y617620D01*
X956093Y617059D01*
X955378Y616558D01*
X954622Y616121D01*
X953830Y615752D01*
X953010Y615454D01*
X952166Y615228D01*
X951307Y615076D01*
X950437Y615000D01*
X949563Y615000D01*
X948694Y615076D01*
X947834Y615228D01*
X946990Y615454D01*
X946170Y615752D01*
X945378Y616121D01*
X944622Y616558D01*
X943907Y617059D01*
X943238Y617620D01*
X942620Y618238D01*
X942059Y618907D01*
X941558Y619622D01*
X941121Y620378D01*
X940752Y621170D01*
X940454Y621990D01*
X940228Y622834D01*
X940076Y623694D01*
X940000Y624563D01*
X940000Y625437D01*
X940076Y626307D01*
X940228Y627166D01*
X940454Y628010D01*
X940752Y628830D01*
X941121Y629622D01*
X941558Y630378D01*
X942059Y631093D01*
X942620Y631762D01*
X943238Y632380D01*
X943907Y632941D01*
X944622Y633442D01*
X945378Y633879D01*
X946170Y634248D01*
X946990Y634546D01*
X947834Y634772D01*
X948694Y634924D01*
X949563Y635000D01*
X950437Y635000D01*
X951307Y634924D01*
X952166Y634772D01*
X953010Y634546D01*
X953830Y634248D01*
X954622Y633879D01*
X955378Y633442D01*
X956093Y632941D01*
X956762Y632380D01*
X957380Y631762D01*
X957941Y631093D01*
X958442Y630378D01*
X958879Y629622D01*
X959248Y628830D01*
X959546Y628010D01*
X959772Y627166D01*
X959924Y626307D01*
X960000Y625437D01*
X960000Y624563D01*
X960000Y-45437D02*
X959924Y-46307D01*
X959772Y-47166D01*
X959546Y-48010D01*
X959248Y-48830D01*
X958879Y-49622D01*
X958442Y-50378D01*
X957941Y-51093D01*
X957380Y-51762D01*
X956762Y-52380D01*
X956093Y-52941D01*
X955378Y-53442D01*
X954622Y-53879D01*
X953830Y-54248D01*
X953010Y-54546D01*
X952166Y-54772D01*
X951307Y-54924D01*
X950437Y-55000D01*
X949563Y-55000D01*
X948694Y-54924D01*
X947834Y-54772D01*
X946990Y-54546D01*
X946170Y-54248D01*
X945378Y-53879D01*
X944622Y-53442D01*
X943907Y-52941D01*
X943238Y-52380D01*
X942620Y-51762D01*
X942059Y-51093D01*
X941558Y-50378D01*
X941121Y-49622D01*
X940752Y-48830D01*
X940454Y-48010D01*
X940228Y-47166D01*
X940076Y-46307D01*
X940000Y-45437D01*
X940000Y-44563D01*
X940076Y-43694D01*
X940228Y-42834D01*
X940454Y-41990D01*
X940752Y-41170D01*
X941121Y-40378D01*
X941558Y-39622D01*
X942059Y-38907D01*
X942620Y-38238D01*
X943238Y-37620D01*
X943907Y-37059D01*
X944622Y-36558D01*
X945378Y-36121D01*
X946170Y-35752D01*
X946990Y-35454D01*
X947834Y-35228D01*
X948694Y-35076D01*
X949563Y-35000D01*
X950437Y-35000D01*
X951307Y-35076D01*
X952166Y-35228D01*
X953010Y-35454D01*
X953830Y-35752D01*
X954622Y-36121D01*
X955378Y-36558D01*
X956093Y-37059D01*
X956762Y-37620D01*
X957380Y-38238D01*
X957941Y-38907D01*
X958442Y-39622D01*
X958879Y-40378D01*
X959248Y-41170D01*
X959546Y-41990D01*
X959772Y-42834D01*
X959924Y-43694D01*
X960000Y-44563D01*
X960000Y-45437D01*
X60000Y-45437D02*
X59924Y-46307D01*
X59772Y-47166D01*
X59546Y-48010D01*
X59248Y-48830D01*
X58879Y-49622D01*
X58442Y-50378D01*
X57941Y-51093D01*
X57380Y-51762D01*
X56762Y-52380D01*
X56093Y-52941D01*
X55378Y-53442D01*
X54622Y-53879D01*
X53830Y-54248D01*
X53010Y-54546D01*
X52166Y-54772D01*
X51307Y-54924D01*
X50437Y-55000D01*
X49563Y-55000D01*
X48694Y-54924D01*
X47834Y-54772D01*
X46990Y-54546D01*
X46170Y-54248D01*
X45378Y-53879D01*
X44622Y-53442D01*
X43907Y-52941D01*
X43238Y-52380D01*
X42620Y-51762D01*
X42059Y-51093D01*
X41558Y-50378D01*
X41121Y-49622D01*
X40752Y-48830D01*
X40454Y-48010D01*
X40228Y-47166D01*
X40076Y-46307D01*
X40000Y-45437D01*
X40000Y-44563D01*
X40076Y-43694D01*
X40228Y-42834D01*
X40454Y-41990D01*
X40752Y-41170D01*
X41121Y-40378D01*
X41558Y-39622D01*
X42059Y-38907D01*
X42620Y-38238D01*
X43238Y-37620D01*
X43907Y-37059D01*
X44622Y-36558D01*
X45378Y-36121D01*
X46170Y-35752D01*
X46990Y-35454D01*
X47834Y-35228D01*
X48694Y-35076D01*
X49563Y-35000D01*
X50437Y-35000D01*
X51307Y-35076D01*
X52166Y-35228D01*
X53010Y-35454D01*
X53830Y-35752D01*
X54622Y-36121D01*
X55378Y-36558D01*
X56093Y-37059D01*
X56762Y-37620D01*
X57380Y-38238D01*
X57941Y-38907D01*
X58442Y-39622D01*
X58879Y-40378D01*
X59248Y-41170D01*
X59546Y-41990D01*
X59772Y-42834D01*
X59924Y-43694D01*
X60000Y-44563D01*
X60000Y-45437D01*
X909250Y579264D02*
X909176Y578798D01*
X909030Y578348D01*
X908816Y577928D01*
X908538Y577546D01*
X908205Y577212D01*
X907823Y576934D01*
X907402Y576720D01*
X906953Y576574D01*
X906486Y576500D01*
X906014Y576500D01*
X905548Y576574D01*
X905099Y576720D01*
X904678Y576934D01*
X904296Y577212D01*
X903962Y577546D01*
X903684Y577928D01*
X903470Y578348D01*
X903324Y578798D01*
X903250Y579264D01*
X903250Y579736D01*
X903324Y580203D01*
X903470Y580652D01*
X903684Y581072D01*
X903962Y581454D01*
X904296Y581788D01*
X904678Y582066D01*
X905099Y582280D01*
X905548Y582426D01*
X906014Y582500D01*
X906486Y582500D01*
X906953Y582426D01*
X907402Y582280D01*
X907823Y582066D01*
X908205Y581788D01*
X908538Y581454D01*
X908816Y581072D01*
X909030Y580652D01*
X909176Y580203D01*
X909250Y579736D01*
X909250Y579264D01*
X866750Y579264D02*
X866676Y578798D01*
X866530Y578348D01*
X866316Y577928D01*
X866038Y577546D01*
X865704Y577212D01*
X865322Y576934D01*
X864902Y576720D01*
X864453Y576574D01*
X863986Y576500D01*
X863514Y576500D01*
X863048Y576574D01*
X862598Y576720D01*
X862178Y576934D01*
X861796Y577212D01*
X861462Y577546D01*
X861184Y577928D01*
X860970Y578348D01*
X860824Y578798D01*
X860750Y579264D01*
X860750Y579736D01*
X860824Y580203D01*
X860970Y580652D01*
X861184Y581072D01*
X861462Y581454D01*
X861796Y581788D01*
X862178Y582066D01*
X862598Y582280D01*
X863048Y582426D01*
X863514Y582500D01*
X863986Y582500D01*
X864453Y582426D01*
X864902Y582280D01*
X865322Y582066D01*
X865704Y581788D01*
X866038Y581454D01*
X866316Y581072D01*
X866530Y580652D01*
X866676Y580203D01*
X866750Y579736D01*
X866750Y579264D01*
X875250Y579264D02*
X875176Y578798D01*
X875030Y578348D01*
X874816Y577928D01*
X874538Y577546D01*
X874204Y577212D01*
X873822Y576934D01*
X873402Y576720D01*
X872953Y576574D01*
X872486Y576500D01*
X872014Y576500D01*
X871548Y576574D01*
X871098Y576720D01*
X870678Y576934D01*
X870296Y577212D01*
X869962Y577546D01*
X869684Y577928D01*
X869470Y578348D01*
X869324Y578798D01*
X869250Y579264D01*
X869250Y579736D01*
X869324Y580203D01*
X869470Y580652D01*
X869684Y581072D01*
X869962Y581454D01*
X870296Y581788D01*
X870678Y582066D01*
X871098Y582280D01*
X871548Y582426D01*
X872014Y582500D01*
X872486Y582500D01*
X872953Y582426D01*
X873402Y582280D01*
X873822Y582066D01*
X874204Y581788D01*
X874538Y581454D01*
X874816Y581072D01*
X875030Y580652D01*
X875176Y580203D01*
X875250Y579736D01*
X875250Y579264D01*
X883750Y579264D02*
X883676Y578798D01*
X883530Y578348D01*
X883316Y577928D01*
X883038Y577546D01*
X882704Y577212D01*
X882322Y576934D01*
X881902Y576720D01*
X881453Y576574D01*
X880986Y576500D01*
X880514Y576500D01*
X880048Y576574D01*
X879599Y576720D01*
X879178Y576934D01*
X878796Y577212D01*
X878462Y577546D01*
X878184Y577928D01*
X877970Y578348D01*
X877824Y578798D01*
X877750Y579264D01*
X877750Y579736D01*
X877824Y580203D01*
X877970Y580652D01*
X878184Y581072D01*
X878462Y581454D01*
X878796Y581788D01*
X879178Y582066D01*
X879599Y582280D01*
X880048Y582426D01*
X880514Y582500D01*
X880986Y582500D01*
X881453Y582426D01*
X881902Y582280D01*
X882322Y582066D01*
X882704Y581788D01*
X883038Y581454D01*
X883316Y581072D01*
X883530Y580652D01*
X883676Y580203D01*
X883750Y579736D01*
X883750Y579264D01*
X892250Y579264D02*
X892176Y578798D01*
X892030Y578348D01*
X891816Y577928D01*
X891538Y577546D01*
X891205Y577212D01*
X890822Y576934D01*
X890402Y576720D01*
X889953Y576574D01*
X889486Y576500D01*
X889014Y576500D01*
X888548Y576574D01*
X888099Y576720D01*
X887678Y576934D01*
X887296Y577212D01*
X886962Y577546D01*
X886684Y577928D01*
X886470Y578348D01*
X886324Y578798D01*
X886250Y579264D01*
X886250Y579736D01*
X886324Y580203D01*
X886470Y580652D01*
X886684Y581072D01*
X886962Y581454D01*
X887296Y581788D01*
X887678Y582066D01*
X888099Y582280D01*
X888548Y582426D01*
X889014Y582500D01*
X889486Y582500D01*
X889953Y582426D01*
X890402Y582280D01*
X890822Y582066D01*
X891205Y581788D01*
X891538Y581454D01*
X891816Y581072D01*
X892030Y580652D01*
X892176Y580203D01*
X892250Y579736D01*
X892250Y579264D01*
X900750Y579264D02*
X900676Y578798D01*
X900530Y578348D01*
X900316Y577928D01*
X900038Y577546D01*
X899705Y577212D01*
X899323Y576934D01*
X898902Y576720D01*
X898453Y576574D01*
X897986Y576500D01*
X897514Y576500D01*
X897048Y576574D01*
X896599Y576720D01*
X896178Y576934D01*
X895796Y577212D01*
X895462Y577546D01*
X895184Y577928D01*
X894970Y578348D01*
X894824Y578798D01*
X894750Y579264D01*
X894750Y579736D01*
X894824Y580203D01*
X894970Y580652D01*
X895184Y581072D01*
X895462Y581454D01*
X895796Y581788D01*
X896178Y582066D01*
X896599Y582280D01*
X897048Y582426D01*
X897514Y582500D01*
X897986Y582500D01*
X898453Y582426D01*
X898902Y582280D01*
X899323Y582066D01*
X899705Y581788D01*
X900038Y581454D01*
X900316Y581072D01*
X900530Y580652D01*
X900676Y580203D01*
X900750Y579736D01*
X900750Y579264D01*
X139250Y579264D02*
X139176Y578798D01*
X139030Y578348D01*
X138816Y577928D01*
X138538Y577546D01*
X138205Y577212D01*
X137823Y576934D01*
X137402Y576720D01*
X136953Y576574D01*
X136486Y576500D01*
X136014Y576500D01*
X135548Y576574D01*
X135099Y576720D01*
X134678Y576934D01*
X134296Y577212D01*
X133962Y577546D01*
X133684Y577928D01*
X133470Y578348D01*
X133324Y578798D01*
X133250Y579264D01*
X133250Y579736D01*
X133324Y580203D01*
X133470Y580652D01*
X133684Y581072D01*
X133962Y581454D01*
X134296Y581788D01*
X134678Y582066D01*
X135099Y582280D01*
X135548Y582426D01*
X136014Y582500D01*
X136486Y582500D01*
X136953Y582426D01*
X137402Y582280D01*
X137823Y582066D01*
X138205Y581788D01*
X138538Y581454D01*
X138816Y581072D01*
X139030Y580652D01*
X139176Y580203D01*
X139250Y579736D01*
X139250Y579264D01*
X96750Y579264D02*
X96676Y578798D01*
X96530Y578348D01*
X96316Y577928D01*
X96038Y577546D01*
X95704Y577212D01*
X95322Y576934D01*
X94902Y576720D01*
X94453Y576574D01*
X93986Y576500D01*
X93514Y576500D01*
X93048Y576574D01*
X92598Y576720D01*
X92178Y576934D01*
X91796Y577212D01*
X91462Y577546D01*
X91184Y577928D01*
X90970Y578348D01*
X90824Y578798D01*
X90750Y579264D01*
X90750Y579736D01*
X90824Y580203D01*
X90970Y580652D01*
X91184Y581072D01*
X91462Y581454D01*
X91796Y581788D01*
X92178Y582066D01*
X92598Y582280D01*
X93048Y582426D01*
X93514Y582500D01*
X93986Y582500D01*
X94453Y582426D01*
X94902Y582280D01*
X95322Y582066D01*
X95704Y581788D01*
X96038Y581454D01*
X96316Y581072D01*
X96530Y580652D01*
X96676Y580203D01*
X96750Y579736D01*
X96750Y579264D01*
X105250Y579264D02*
X105176Y578798D01*
X105030Y578348D01*
X104816Y577928D01*
X104538Y577546D01*
X104204Y577212D01*
X103822Y576934D01*
X103402Y576720D01*
X102953Y576574D01*
X102486Y576500D01*
X102014Y576500D01*
X101548Y576574D01*
X101098Y576720D01*
X100678Y576934D01*
X100296Y577212D01*
X99962Y577546D01*
X99684Y577928D01*
X99470Y578348D01*
X99324Y578798D01*
X99250Y579264D01*
X99250Y579736D01*
X99324Y580203D01*
X99470Y580652D01*
X99684Y581072D01*
X99962Y581454D01*
X100296Y581788D01*
X100678Y582066D01*
X101098Y582280D01*
X101548Y582426D01*
X102014Y582500D01*
X102486Y582500D01*
X102953Y582426D01*
X103402Y582280D01*
X103822Y582066D01*
X104204Y581788D01*
X104538Y581454D01*
X104816Y581072D01*
X105030Y580652D01*
X105176Y580203D01*
X105250Y579736D01*
X105250Y579264D01*
X113750Y579264D02*
X113676Y578798D01*
X113530Y578348D01*
X113316Y577928D01*
X113038Y577546D01*
X112704Y577212D01*
X112322Y576934D01*
X111902Y576720D01*
X111453Y576574D01*
X110986Y576500D01*
X110514Y576500D01*
X110048Y576574D01*
X109599Y576720D01*
X109178Y576934D01*
X108796Y577212D01*
X108462Y577546D01*
X108184Y577928D01*
X107970Y578348D01*
X107824Y578798D01*
X107750Y579264D01*
X107750Y579736D01*
X107824Y580203D01*
X107970Y580652D01*
X108184Y581072D01*
X108462Y581454D01*
X108796Y581788D01*
X109178Y582066D01*
X109599Y582280D01*
X110048Y582426D01*
X110514Y582500D01*
X110986Y582500D01*
X111453Y582426D01*
X111902Y582280D01*
X112322Y582066D01*
X112704Y581788D01*
X113038Y581454D01*
X113316Y581072D01*
X113530Y580652D01*
X113676Y580203D01*
X113750Y579736D01*
X113750Y579264D01*
X122250Y579264D02*
X122176Y578798D01*
X122030Y578348D01*
X121816Y577928D01*
X121538Y577546D01*
X121205Y577212D01*
X120822Y576934D01*
X120402Y576720D01*
X119953Y576574D01*
X119486Y576500D01*
X119014Y576500D01*
X118548Y576574D01*
X118099Y576720D01*
X117678Y576934D01*
X117296Y577212D01*
X116962Y577546D01*
X116684Y577928D01*
X116470Y578348D01*
X116324Y578798D01*
X116250Y579264D01*
X116250Y579736D01*
X116324Y580203D01*
X116470Y580652D01*
X116684Y581072D01*
X116962Y581454D01*
X117296Y581788D01*
X117678Y582066D01*
X118099Y582280D01*
X118548Y582426D01*
X119014Y582500D01*
X119486Y582500D01*
X119953Y582426D01*
X120402Y582280D01*
X120822Y582066D01*
X121205Y581788D01*
X121538Y581454D01*
X121816Y581072D01*
X122030Y580652D01*
X122176Y580203D01*
X122250Y579736D01*
X122250Y579264D01*
X130750Y579264D02*
X130676Y578798D01*
X130530Y578348D01*
X130316Y577928D01*
X130038Y577546D01*
X129705Y577212D01*
X129323Y576934D01*
X128902Y576720D01*
X128453Y576574D01*
X127986Y576500D01*
X127514Y576500D01*
X127048Y576574D01*
X126599Y576720D01*
X126178Y576934D01*
X125796Y577212D01*
X125462Y577546D01*
X125184Y577928D01*
X124970Y578348D01*
X124824Y578798D01*
X124750Y579264D01*
X124750Y579736D01*
X124824Y580203D01*
X124970Y580652D01*
X125184Y581072D01*
X125462Y581454D01*
X125796Y581788D01*
X126178Y582066D01*
X126599Y582280D01*
X127048Y582426D01*
X127514Y582500D01*
X127986Y582500D01*
X128453Y582426D01*
X128902Y582280D01*
X129323Y582066D01*
X129705Y581788D01*
X130038Y581454D01*
X130316Y581072D01*
X130530Y580652D01*
X130676Y580203D01*
X130750Y579736D01*
X130750Y579264D01*
X139250Y264D02*
X139176Y-203D01*
X139030Y-652D01*
X138816Y-1072D01*
X138538Y-1454D01*
X138205Y-1788D01*
X137823Y-2066D01*
X137402Y-2280D01*
X136953Y-2426D01*
X136486Y-2500D01*
X136014Y-2500D01*
X135548Y-2426D01*
X135099Y-2280D01*
X134678Y-2066D01*
X134296Y-1788D01*
X133962Y-1454D01*
X133684Y-1072D01*
X133470Y-652D01*
X133324Y-203D01*
X133250Y264D01*
X133250Y736D01*
X133324Y1203D01*
X133470Y1652D01*
X133684Y2072D01*
X133962Y2454D01*
X134296Y2788D01*
X134678Y3066D01*
X135099Y3280D01*
X135548Y3426D01*
X136014Y3500D01*
X136486Y3500D01*
X136953Y3426D01*
X137402Y3280D01*
X137823Y3066D01*
X138205Y2788D01*
X138538Y2454D01*
X138816Y2072D01*
X139030Y1652D01*
X139176Y1203D01*
X139250Y736D01*
X139250Y264D01*
X96750Y264D02*
X96676Y-203D01*
X96530Y-652D01*
X96316Y-1072D01*
X96038Y-1454D01*
X95704Y-1788D01*
X95322Y-2066D01*
X94902Y-2280D01*
X94453Y-2426D01*
X93986Y-2500D01*
X93514Y-2500D01*
X93048Y-2426D01*
X92598Y-2280D01*
X92178Y-2066D01*
X91796Y-1788D01*
X91462Y-1454D01*
X91184Y-1072D01*
X90970Y-652D01*
X90824Y-203D01*
X90750Y264D01*
X90750Y736D01*
X90824Y1203D01*
X90970Y1652D01*
X91184Y2072D01*
X91462Y2454D01*
X91796Y2788D01*
X92178Y3066D01*
X92598Y3280D01*
X93048Y3426D01*
X93514Y3500D01*
X93986Y3500D01*
X94453Y3426D01*
X94902Y3280D01*
X95322Y3066D01*
X95704Y2788D01*
X96038Y2454D01*
X96316Y2072D01*
X96530Y1652D01*
X96676Y1203D01*
X96750Y736D01*
X96750Y264D01*
X105250Y264D02*
X105176Y-203D01*
X105030Y-652D01*
X104816Y-1072D01*
X104538Y-1454D01*
X104204Y-1788D01*
X103822Y-2066D01*
X103402Y-2280D01*
X102953Y-2426D01*
X102486Y-2500D01*
X102014Y-2500D01*
X101548Y-2426D01*
X101098Y-2280D01*
X100678Y-2066D01*
X100296Y-1788D01*
X99962Y-1454D01*
X99684Y-1072D01*
X99470Y-652D01*
X99324Y-203D01*
X99250Y264D01*
X99250Y736D01*
X99324Y1203D01*
X99470Y1652D01*
X99684Y2072D01*
X99962Y2454D01*
X100296Y2788D01*
X100678Y3066D01*
X101098Y3280D01*
X101548Y3426D01*
X102014Y3500D01*
X102486Y3500D01*
X102953Y3426D01*
X103402Y3280D01*
X103822Y3066D01*
X104204Y2788D01*
X104538Y2454D01*
X104816Y2072D01*
X105030Y1652D01*
X105176Y1203D01*
X105250Y736D01*
X105250Y264D01*
X113750Y264D02*
X113676Y-203D01*
X113530Y-652D01*
X113316Y-1072D01*
X113038Y-1454D01*
X112704Y-1788D01*
X112322Y-2066D01*
X111902Y-2280D01*
X111453Y-2426D01*
X110986Y-2500D01*
X110514Y-2500D01*
X110048Y-2426D01*
X109599Y-2280D01*
X109178Y-2066D01*
X108796Y-1788D01*
X108462Y-1454D01*
X108184Y-1072D01*
X107970Y-652D01*
X107824Y-203D01*
X107750Y264D01*
X107750Y736D01*
X107824Y1203D01*
X107970Y1652D01*
X108184Y2072D01*
X108462Y2454D01*
X108796Y2788D01*
X109178Y3066D01*
X109599Y3280D01*
X110048Y3426D01*
X110514Y3500D01*
X110986Y3500D01*
X111453Y3426D01*
X111902Y3280D01*
X112322Y3066D01*
X112704Y2788D01*
X113038Y2454D01*
X113316Y2072D01*
X113530Y1652D01*
X113676Y1203D01*
X113750Y736D01*
X113750Y264D01*
X122250Y264D02*
X122176Y-203D01*
X122030Y-652D01*
X121816Y-1072D01*
X121538Y-1454D01*
X121205Y-1788D01*
X120822Y-2066D01*
X120402Y-2280D01*
X119953Y-2426D01*
X119486Y-2500D01*
X119014Y-2500D01*
X118548Y-2426D01*
X118099Y-2280D01*
X117678Y-2066D01*
X117296Y-1788D01*
X116962Y-1454D01*
X116684Y-1072D01*
X116470Y-652D01*
X116324Y-203D01*
X116250Y264D01*
X116250Y736D01*
X116324Y1203D01*
X116470Y1652D01*
X116684Y2072D01*
X116962Y2454D01*
X117296Y2788D01*
X117678Y3066D01*
X118099Y3280D01*
X118548Y3426D01*
X119014Y3500D01*
X119486Y3500D01*
X119953Y3426D01*
X120402Y3280D01*
X120822Y3066D01*
X121205Y2788D01*
X121538Y2454D01*
X121816Y2072D01*
X122030Y1652D01*
X122176Y1203D01*
X122250Y736D01*
X122250Y264D01*
X130750Y264D02*
X130676Y-203D01*
X130530Y-652D01*
X130316Y-1072D01*
X130038Y-1454D01*
X129705Y-1788D01*
X129323Y-2066D01*
X128902Y-2280D01*
X128453Y-2426D01*
X127986Y-2500D01*
X127514Y-2500D01*
X127048Y-2426D01*
X126599Y-2280D01*
X126178Y-2066D01*
X125796Y-1788D01*
X125462Y-1454D01*
X125184Y-1072D01*
X124970Y-652D01*
X124824Y-203D01*
X124750Y264D01*
X124750Y736D01*
X124824Y1203D01*
X124970Y1652D01*
X125184Y2072D01*
X125462Y2454D01*
X125796Y2788D01*
X126178Y3066D01*
X126599Y3280D01*
X127048Y3426D01*
X127514Y3500D01*
X127986Y3500D01*
X128453Y3426D01*
X128902Y3280D01*
X129323Y3066D01*
X129705Y2788D01*
X130038Y2454D01*
X130316Y2072D01*
X130530Y1652D01*
X130676Y1203D01*
X130750Y736D01*
X130750Y264D01*
X909250Y264D02*
X909176Y-203D01*
X909030Y-652D01*
X908816Y-1072D01*
X908538Y-1454D01*
X908205Y-1788D01*
X907823Y-2066D01*
X907402Y-2280D01*
X906953Y-2426D01*
X906486Y-2500D01*
X906014Y-2500D01*
X905548Y-2426D01*
X905099Y-2280D01*
X904678Y-2066D01*
X904296Y-1788D01*
X903962Y-1454D01*
X903684Y-1072D01*
X903470Y-652D01*
X903324Y-203D01*
X903250Y264D01*
X903250Y736D01*
X903324Y1203D01*
X903470Y1652D01*
X903684Y2072D01*
X903962Y2454D01*
X904296Y2788D01*
X904678Y3066D01*
X905099Y3280D01*
X905548Y3426D01*
X906014Y3500D01*
X906486Y3500D01*
X906953Y3426D01*
X907402Y3280D01*
X907823Y3066D01*
X908205Y2788D01*
X908538Y2454D01*
X908816Y2072D01*
X909030Y1652D01*
X909176Y1203D01*
X909250Y736D01*
X909250Y264D01*
X866750Y264D02*
X866676Y-203D01*
X866530Y-652D01*
X866316Y-1072D01*
X866038Y-1454D01*
X865704Y-1788D01*
X865322Y-2066D01*
X864902Y-2280D01*
X864453Y-2426D01*
X863986Y-2500D01*
X863514Y-2500D01*
X863048Y-2426D01*
X862598Y-2280D01*
X862178Y-2066D01*
X861796Y-1788D01*
X861462Y-1454D01*
X861184Y-1072D01*
X860970Y-652D01*
X860824Y-203D01*
X860750Y264D01*
X860750Y736D01*
X860824Y1203D01*
X860970Y1652D01*
X861184Y2072D01*
X861462Y2454D01*
X861796Y2788D01*
X862178Y3066D01*
X862598Y3280D01*
X863048Y3426D01*
X863514Y3500D01*
X863986Y3500D01*
X864453Y3426D01*
X864902Y3280D01*
X865322Y3066D01*
X865704Y2788D01*
X866038Y2454D01*
X866316Y2072D01*
X866530Y1652D01*
X866676Y1203D01*
X866750Y736D01*
X866750Y264D01*
X875250Y264D02*
X875176Y-203D01*
X875030Y-652D01*
X874816Y-1072D01*
X874538Y-1454D01*
X874204Y-1788D01*
X873822Y-2066D01*
X873402Y-2280D01*
X872953Y-2426D01*
X872486Y-2500D01*
X872014Y-2500D01*
X871548Y-2426D01*
X871098Y-2280D01*
X870678Y-2066D01*
X870296Y-1788D01*
X869962Y-1454D01*
X869684Y-1072D01*
X869470Y-652D01*
X869324Y-203D01*
X869250Y264D01*
X869250Y736D01*
X869324Y1203D01*
X869470Y1652D01*
X869684Y2072D01*
X869962Y2454D01*
X870296Y2788D01*
X870678Y3066D01*
X871098Y3280D01*
X871548Y3426D01*
X872014Y3500D01*
X872486Y3500D01*
X872953Y3426D01*
X873402Y3280D01*
X873822Y3066D01*
X874204Y2788D01*
X874538Y2454D01*
X874816Y2072D01*
X875030Y1652D01*
X875176Y1203D01*
X875250Y736D01*
X875250Y264D01*
X883750Y264D02*
X883676Y-203D01*
X883530Y-652D01*
X883316Y-1072D01*
X883038Y-1454D01*
X882704Y-1788D01*
X882322Y-2066D01*
X881902Y-2280D01*
X881453Y-2426D01*
X880986Y-2500D01*
X880514Y-2500D01*
X880048Y-2426D01*
X879599Y-2280D01*
X879178Y-2066D01*
X878796Y-1788D01*
X878462Y-1454D01*
X878184Y-1072D01*
X877970Y-652D01*
X877824Y-203D01*
X877750Y264D01*
X877750Y736D01*
X877824Y1203D01*
X877970Y1652D01*
X878184Y2072D01*
X878462Y2454D01*
X878796Y2788D01*
X879178Y3066D01*
X879599Y3280D01*
X880048Y3426D01*
X880514Y3500D01*
X880986Y3500D01*
X881453Y3426D01*
X881902Y3280D01*
X882322Y3066D01*
X882704Y2788D01*
X883038Y2454D01*
X883316Y2072D01*
X883530Y1652D01*
X883676Y1203D01*
X883750Y736D01*
X883750Y264D01*
X892250Y264D02*
X892176Y-203D01*
X892030Y-652D01*
X891816Y-1072D01*
X891538Y-1454D01*
X891205Y-1788D01*
X890822Y-2066D01*
X890402Y-2280D01*
X889953Y-2426D01*
X889486Y-2500D01*
X889014Y-2500D01*
X888548Y-2426D01*
X888099Y-2280D01*
X887678Y-2066D01*
X887296Y-1788D01*
X886962Y-1454D01*
X886684Y-1072D01*
X886470Y-652D01*
X886324Y-203D01*
X886250Y264D01*
X886250Y736D01*
X886324Y1203D01*
X886470Y1652D01*
X886684Y2072D01*
X886962Y2454D01*
X887296Y2788D01*
X887678Y3066D01*
X888099Y3280D01*
X888548Y3426D01*
X889014Y3500D01*
X889486Y3500D01*
X889953Y3426D01*
X890402Y3280D01*
X890822Y3066D01*
X891205Y2788D01*
X891538Y2454D01*
X891816Y2072D01*
X892030Y1652D01*
X892176Y1203D01*
X892250Y736D01*
X892250Y264D01*
X900750Y264D02*
X900676Y-203D01*
X900530Y-652D01*
X900316Y-1072D01*
X900038Y-1454D01*
X899705Y-1788D01*
X899323Y-2066D01*
X898902Y-2280D01*
X898453Y-2426D01*
X897986Y-2500D01*
X897514Y-2500D01*
X897048Y-2426D01*
X896599Y-2280D01*
X896178Y-2066D01*
X895796Y-1788D01*
X895462Y-1454D01*
X895184Y-1072D01*
X894970Y-652D01*
X894824Y-203D01*
X894750Y264D01*
X894750Y736D01*
X894824Y1203D01*
X894970Y1652D01*
X895184Y2072D01*
X895462Y2454D01*
X895796Y2788D01*
X896178Y3066D01*
X896599Y3280D01*
X897048Y3426D01*
X897514Y3500D01*
X897986Y3500D01*
X898453Y3426D01*
X898902Y3280D01*
X899323Y3066D01*
X899705Y2788D01*
X900038Y2454D01*
X900316Y2072D01*
X900530Y1652D01*
X900676Y1203D01*
X900750Y736D01*
X900750Y264D01*
M02*
