G04 EAGLE Gerber RS-274X export*
G75*
%MOMM*%
%FSLAX34Y34*%
%LPD*%
%INSoldermask Bottom*%
%IPPOS*%
%AMOC8*
5,1,8,0,0,1.08239X$1,22.5*%
G01*
%ADD10C,3.203200*%
%ADD11R,7.540625X3.254375*%
%ADD12C,2.203200*%
%ADD13C,0.803200*%
%ADD14R,1.625600X1.625600*%
%ADD15P,1.759533X8X202.500000*%
%ADD16P,1.759533X8X22.500000*%
%ADD17P,1.979475X8X202.500000*%
%ADD18R,1.828800X1.828800*%
%ADD19P,1.979475X8X292.500000*%
%ADD20P,1.759533X8X112.500000*%
%ADD21P,1.979475X8X22.500000*%
%ADD22P,1.759533X8X292.500000*%
%ADD23C,1.828800*%
%ADD24C,1.711200*%


D10*
X30000Y550000D03*
X970000Y550000D03*
X30000Y30000D03*
X970000Y30000D03*
D11*
X482997Y552847D03*
D12*
X50000Y625000D03*
X950000Y625000D03*
X950000Y-45000D03*
X50000Y-45000D03*
D13*
X906250Y579500D03*
X863750Y579500D03*
X872250Y579500D03*
X880750Y579500D03*
X889250Y579500D03*
X897750Y579500D03*
X136250Y579500D03*
X93750Y579500D03*
X102250Y579500D03*
X110750Y579500D03*
X119250Y579500D03*
X127750Y579500D03*
X136250Y500D03*
X93750Y500D03*
X102250Y500D03*
X110750Y500D03*
X119250Y500D03*
X127750Y500D03*
X906250Y500D03*
X863750Y500D03*
X872250Y500D03*
X880750Y500D03*
X889250Y500D03*
X897750Y500D03*
D14*
X589026Y500980D03*
D15*
X589026Y480980D03*
X589026Y460980D03*
X589026Y440980D03*
D14*
X38100Y440694D03*
D16*
X38100Y460694D03*
X38100Y480694D03*
X38100Y500694D03*
D17*
X915988Y342900D03*
X915988Y317500D03*
X890588Y342900D03*
X890588Y317500D03*
X865188Y342900D03*
X865188Y317500D03*
X839788Y342900D03*
X839788Y317500D03*
X814388Y342900D03*
X814388Y317500D03*
X788988Y342900D03*
X788988Y317500D03*
X763588Y342900D03*
X763588Y317500D03*
D18*
X915988Y292100D03*
D19*
X890588Y292100D03*
X865188Y292100D03*
X839788Y292100D03*
X814388Y292100D03*
X788988Y292100D03*
X763588Y292100D03*
D14*
X286225Y36513D03*
D20*
X266225Y36513D03*
D14*
X359250Y36513D03*
D20*
X339250Y36513D03*
D14*
X192563Y36513D03*
D20*
X172563Y36513D03*
D14*
X121125Y36513D03*
D20*
X101125Y36513D03*
D21*
X71438Y120650D03*
X71438Y146050D03*
X96838Y120650D03*
X96838Y146050D03*
X122238Y120650D03*
X122238Y146050D03*
X147638Y120650D03*
X147638Y146050D03*
X173038Y120650D03*
X173038Y146050D03*
X198438Y120650D03*
X198438Y146050D03*
X223838Y120650D03*
X223838Y146050D03*
D19*
X198438Y171450D03*
X173038Y171450D03*
X147638Y171450D03*
X122238Y171450D03*
X96838Y171450D03*
X71438Y171450D03*
D14*
X38100Y187963D03*
D16*
X38100Y207963D03*
X38100Y227963D03*
D14*
X38100Y99063D03*
D16*
X38100Y119063D03*
X38100Y139063D03*
D14*
X809788Y539750D03*
D22*
X829788Y539750D03*
X849788Y539750D03*
X869788Y539750D03*
D14*
X869788Y36513D03*
D20*
X849788Y36513D03*
X829788Y36513D03*
X809788Y36513D03*
D14*
X38100Y277025D03*
D16*
X38100Y297025D03*
X38100Y317025D03*
X38100Y337025D03*
X38100Y357025D03*
X38100Y377025D03*
D23*
X419894Y98616D02*
X419894Y82360D01*
X445294Y82360D02*
X445294Y98616D01*
X470694Y98616D02*
X470694Y82360D01*
X496094Y82360D02*
X496094Y98616D01*
X521494Y98616D02*
X521494Y82360D01*
X546894Y82360D02*
X546894Y98616D01*
D24*
X587375Y317500D03*
X606425Y317500D03*
X625475Y317500D03*
X646113Y317500D03*
X685800Y317500D03*
X704850Y317500D03*
X666750Y317500D03*
M02*
