G04 EAGLE Gerber RS-274X export*
G75*
%MOMM*%
%FSLAX34Y34*%
%LPD*%
%INSolderpaste Top*%
%IPPOS*%
%AMOC8*
5,1,8,0,0,1.08239X$1,22.5*%
G01*
%ADD10R,2.000000X1.500000*%
%ADD11R,1.000000X1.100000*%
%ADD12R,1.100000X1.000000*%
%ADD13R,1.600000X1.300000*%
%ADD14R,1.803000X1.600000*%
%ADD15R,1.558800X0.280000*%
%ADD16R,0.280000X1.558800*%
%ADD17R,1.800000X3.200000*%
%ADD18R,1.000000X1.400000*%
%ADD19R,1.500000X2.000000*%
%ADD20R,1.400000X1.000000*%
%ADD21R,1.265400X0.857200*%
%ADD22R,2.700000X1.600000*%
%ADD23R,1.300000X1.600000*%
%ADD24R,0.600000X0.800000*%
%ADD25R,1.080000X1.050000*%
%ADD26R,0.800000X0.600000*%
%ADD27R,1.270000X1.270000*%
%ADD28R,2.006600X0.609600*%

G36*
X314027Y518493D02*
X314027Y518493D01*
X314029Y518493D01*
X314072Y518512D01*
X314116Y518531D01*
X314116Y518533D01*
X314118Y518534D01*
X314151Y518619D01*
X314151Y528619D01*
X314150Y528621D01*
X314151Y528623D01*
X314131Y528666D01*
X314113Y528709D01*
X314111Y528710D01*
X314110Y528712D01*
X314025Y528745D01*
X304025Y528745D01*
X304023Y528744D01*
X304021Y528745D01*
X303978Y528725D01*
X303934Y528707D01*
X303934Y528705D01*
X303932Y528704D01*
X303899Y528619D01*
X303899Y518619D01*
X303900Y518617D01*
X303899Y518615D01*
X303919Y518572D01*
X303937Y518528D01*
X303939Y518527D01*
X303940Y518525D01*
X304025Y518493D01*
X314025Y518493D01*
X314027Y518493D01*
G37*
G36*
X350027Y518493D02*
X350027Y518493D01*
X350029Y518493D01*
X350072Y518512D01*
X350116Y518531D01*
X350116Y518533D01*
X350118Y518534D01*
X350151Y518619D01*
X350151Y528619D01*
X350150Y528621D01*
X350151Y528623D01*
X350131Y528666D01*
X350113Y528709D01*
X350111Y528710D01*
X350110Y528712D01*
X350025Y528745D01*
X340025Y528745D01*
X340023Y528744D01*
X340021Y528745D01*
X339978Y528725D01*
X339934Y528707D01*
X339934Y528705D01*
X339932Y528704D01*
X339899Y528619D01*
X339899Y518619D01*
X339900Y518617D01*
X339899Y518615D01*
X339919Y518572D01*
X339937Y518528D01*
X339939Y518527D01*
X339940Y518525D01*
X340025Y518493D01*
X350025Y518493D01*
X350027Y518493D01*
G37*
G36*
X338027Y518493D02*
X338027Y518493D01*
X338029Y518493D01*
X338072Y518512D01*
X338116Y518531D01*
X338116Y518533D01*
X338118Y518534D01*
X338151Y518619D01*
X338151Y528619D01*
X338150Y528621D01*
X338151Y528623D01*
X338131Y528666D01*
X338113Y528709D01*
X338111Y528710D01*
X338110Y528712D01*
X338025Y528745D01*
X328025Y528745D01*
X328023Y528744D01*
X328021Y528745D01*
X327978Y528725D01*
X327934Y528707D01*
X327934Y528705D01*
X327932Y528704D01*
X327899Y528619D01*
X327899Y518619D01*
X327900Y518617D01*
X327899Y518615D01*
X327919Y518572D01*
X327937Y518528D01*
X327939Y518527D01*
X327940Y518525D01*
X328025Y518493D01*
X338025Y518493D01*
X338027Y518493D01*
G37*
G36*
X326027Y518493D02*
X326027Y518493D01*
X326029Y518493D01*
X326072Y518512D01*
X326116Y518531D01*
X326116Y518533D01*
X326118Y518534D01*
X326151Y518619D01*
X326151Y528619D01*
X326150Y528621D01*
X326151Y528623D01*
X326131Y528666D01*
X326113Y528709D01*
X326111Y528710D01*
X326110Y528712D01*
X326025Y528745D01*
X316025Y528745D01*
X316023Y528744D01*
X316021Y528745D01*
X315978Y528725D01*
X315934Y528707D01*
X315934Y528705D01*
X315932Y528704D01*
X315899Y528619D01*
X315899Y518619D01*
X315900Y518617D01*
X315899Y518615D01*
X315919Y518572D01*
X315937Y518528D01*
X315939Y518527D01*
X315940Y518525D01*
X316025Y518493D01*
X326025Y518493D01*
X326027Y518493D01*
G37*
G36*
X314027Y506493D02*
X314027Y506493D01*
X314029Y506493D01*
X314072Y506512D01*
X314116Y506531D01*
X314116Y506533D01*
X314118Y506534D01*
X314151Y506619D01*
X314151Y516619D01*
X314150Y516621D01*
X314151Y516623D01*
X314131Y516666D01*
X314113Y516709D01*
X314111Y516710D01*
X314110Y516712D01*
X314025Y516745D01*
X304025Y516745D01*
X304023Y516744D01*
X304021Y516745D01*
X303978Y516725D01*
X303934Y516707D01*
X303934Y516705D01*
X303932Y516704D01*
X303899Y516619D01*
X303899Y506619D01*
X303900Y506617D01*
X303899Y506615D01*
X303919Y506572D01*
X303937Y506528D01*
X303939Y506527D01*
X303940Y506525D01*
X304025Y506493D01*
X314025Y506493D01*
X314027Y506493D01*
G37*
G36*
X350027Y506493D02*
X350027Y506493D01*
X350029Y506493D01*
X350072Y506512D01*
X350116Y506531D01*
X350116Y506533D01*
X350118Y506534D01*
X350151Y506619D01*
X350151Y516619D01*
X350150Y516621D01*
X350151Y516623D01*
X350131Y516666D01*
X350113Y516709D01*
X350111Y516710D01*
X350110Y516712D01*
X350025Y516745D01*
X340025Y516745D01*
X340023Y516744D01*
X340021Y516745D01*
X339978Y516725D01*
X339934Y516707D01*
X339934Y516705D01*
X339932Y516704D01*
X339899Y516619D01*
X339899Y506619D01*
X339900Y506617D01*
X339899Y506615D01*
X339919Y506572D01*
X339937Y506528D01*
X339939Y506527D01*
X339940Y506525D01*
X340025Y506493D01*
X350025Y506493D01*
X350027Y506493D01*
G37*
G36*
X326027Y506493D02*
X326027Y506493D01*
X326029Y506493D01*
X326072Y506512D01*
X326116Y506531D01*
X326116Y506533D01*
X326118Y506534D01*
X326151Y506619D01*
X326151Y516619D01*
X326150Y516621D01*
X326151Y516623D01*
X326131Y516666D01*
X326113Y516709D01*
X326111Y516710D01*
X326110Y516712D01*
X326025Y516745D01*
X316025Y516745D01*
X316023Y516744D01*
X316021Y516745D01*
X315978Y516725D01*
X315934Y516707D01*
X315934Y516705D01*
X315932Y516704D01*
X315899Y516619D01*
X315899Y506619D01*
X315900Y506617D01*
X315899Y506615D01*
X315919Y506572D01*
X315937Y506528D01*
X315939Y506527D01*
X315940Y506525D01*
X316025Y506493D01*
X326025Y506493D01*
X326027Y506493D01*
G37*
G36*
X338027Y506493D02*
X338027Y506493D01*
X338029Y506493D01*
X338072Y506512D01*
X338116Y506531D01*
X338116Y506533D01*
X338118Y506534D01*
X338151Y506619D01*
X338151Y516619D01*
X338150Y516621D01*
X338151Y516623D01*
X338131Y516666D01*
X338113Y516709D01*
X338111Y516710D01*
X338110Y516712D01*
X338025Y516745D01*
X328025Y516745D01*
X328023Y516744D01*
X328021Y516745D01*
X327978Y516725D01*
X327934Y516707D01*
X327934Y516705D01*
X327932Y516704D01*
X327899Y516619D01*
X327899Y506619D01*
X327900Y506617D01*
X327899Y506615D01*
X327919Y506572D01*
X327937Y506528D01*
X327939Y506527D01*
X327940Y506525D01*
X328025Y506493D01*
X338025Y506493D01*
X338027Y506493D01*
G37*
G36*
X338027Y494493D02*
X338027Y494493D01*
X338029Y494493D01*
X338072Y494512D01*
X338116Y494531D01*
X338116Y494533D01*
X338118Y494534D01*
X338151Y494619D01*
X338151Y504619D01*
X338150Y504621D01*
X338151Y504623D01*
X338131Y504666D01*
X338113Y504709D01*
X338111Y504710D01*
X338110Y504712D01*
X338025Y504745D01*
X328025Y504745D01*
X328023Y504744D01*
X328021Y504745D01*
X327978Y504725D01*
X327934Y504707D01*
X327934Y504705D01*
X327932Y504704D01*
X327899Y504619D01*
X327899Y494619D01*
X327900Y494617D01*
X327899Y494615D01*
X327919Y494572D01*
X327937Y494528D01*
X327939Y494527D01*
X327940Y494525D01*
X328025Y494493D01*
X338025Y494493D01*
X338027Y494493D01*
G37*
G36*
X350027Y494493D02*
X350027Y494493D01*
X350029Y494493D01*
X350072Y494512D01*
X350116Y494531D01*
X350116Y494533D01*
X350118Y494534D01*
X350151Y494619D01*
X350151Y504619D01*
X350150Y504621D01*
X350151Y504623D01*
X350131Y504666D01*
X350113Y504709D01*
X350111Y504710D01*
X350110Y504712D01*
X350025Y504745D01*
X340025Y504745D01*
X340023Y504744D01*
X340021Y504745D01*
X339978Y504725D01*
X339934Y504707D01*
X339934Y504705D01*
X339932Y504704D01*
X339899Y504619D01*
X339899Y494619D01*
X339900Y494617D01*
X339899Y494615D01*
X339919Y494572D01*
X339937Y494528D01*
X339939Y494527D01*
X339940Y494525D01*
X340025Y494493D01*
X350025Y494493D01*
X350027Y494493D01*
G37*
G36*
X314027Y494493D02*
X314027Y494493D01*
X314029Y494493D01*
X314072Y494512D01*
X314116Y494531D01*
X314116Y494533D01*
X314118Y494534D01*
X314151Y494619D01*
X314151Y504619D01*
X314150Y504621D01*
X314151Y504623D01*
X314131Y504666D01*
X314113Y504709D01*
X314111Y504710D01*
X314110Y504712D01*
X314025Y504745D01*
X304025Y504745D01*
X304023Y504744D01*
X304021Y504745D01*
X303978Y504725D01*
X303934Y504707D01*
X303934Y504705D01*
X303932Y504704D01*
X303899Y504619D01*
X303899Y494619D01*
X303900Y494617D01*
X303899Y494615D01*
X303919Y494572D01*
X303937Y494528D01*
X303939Y494527D01*
X303940Y494525D01*
X304025Y494493D01*
X314025Y494493D01*
X314027Y494493D01*
G37*
G36*
X326027Y494493D02*
X326027Y494493D01*
X326029Y494493D01*
X326072Y494512D01*
X326116Y494531D01*
X326116Y494533D01*
X326118Y494534D01*
X326151Y494619D01*
X326151Y504619D01*
X326150Y504621D01*
X326151Y504623D01*
X326131Y504666D01*
X326113Y504709D01*
X326111Y504710D01*
X326110Y504712D01*
X326025Y504745D01*
X316025Y504745D01*
X316023Y504744D01*
X316021Y504745D01*
X315978Y504725D01*
X315934Y504707D01*
X315934Y504705D01*
X315932Y504704D01*
X315899Y504619D01*
X315899Y494619D01*
X315900Y494617D01*
X315899Y494615D01*
X315919Y494572D01*
X315937Y494528D01*
X315939Y494527D01*
X315940Y494525D01*
X316025Y494493D01*
X326025Y494493D01*
X326027Y494493D01*
G37*
G36*
X350027Y482493D02*
X350027Y482493D01*
X350029Y482493D01*
X350072Y482512D01*
X350116Y482531D01*
X350116Y482533D01*
X350118Y482534D01*
X350151Y482619D01*
X350151Y492619D01*
X350150Y492621D01*
X350151Y492623D01*
X350131Y492666D01*
X350113Y492709D01*
X350111Y492710D01*
X350110Y492712D01*
X350025Y492745D01*
X340025Y492745D01*
X340023Y492744D01*
X340021Y492745D01*
X339978Y492725D01*
X339934Y492707D01*
X339934Y492705D01*
X339932Y492704D01*
X339899Y492619D01*
X339899Y482619D01*
X339900Y482617D01*
X339899Y482615D01*
X339919Y482572D01*
X339937Y482528D01*
X339939Y482527D01*
X339940Y482525D01*
X340025Y482493D01*
X350025Y482493D01*
X350027Y482493D01*
G37*
G36*
X338027Y482493D02*
X338027Y482493D01*
X338029Y482493D01*
X338072Y482512D01*
X338116Y482531D01*
X338116Y482533D01*
X338118Y482534D01*
X338151Y482619D01*
X338151Y492619D01*
X338150Y492621D01*
X338151Y492623D01*
X338131Y492666D01*
X338113Y492709D01*
X338111Y492710D01*
X338110Y492712D01*
X338025Y492745D01*
X328025Y492745D01*
X328023Y492744D01*
X328021Y492745D01*
X327978Y492725D01*
X327934Y492707D01*
X327934Y492705D01*
X327932Y492704D01*
X327899Y492619D01*
X327899Y482619D01*
X327900Y482617D01*
X327899Y482615D01*
X327919Y482572D01*
X327937Y482528D01*
X327939Y482527D01*
X327940Y482525D01*
X328025Y482493D01*
X338025Y482493D01*
X338027Y482493D01*
G37*
G36*
X314027Y482493D02*
X314027Y482493D01*
X314029Y482493D01*
X314072Y482512D01*
X314116Y482531D01*
X314116Y482533D01*
X314118Y482534D01*
X314151Y482619D01*
X314151Y492619D01*
X314150Y492621D01*
X314151Y492623D01*
X314131Y492666D01*
X314113Y492709D01*
X314111Y492710D01*
X314110Y492712D01*
X314025Y492745D01*
X304025Y492745D01*
X304023Y492744D01*
X304021Y492745D01*
X303978Y492725D01*
X303934Y492707D01*
X303934Y492705D01*
X303932Y492704D01*
X303899Y492619D01*
X303899Y482619D01*
X303900Y482617D01*
X303899Y482615D01*
X303919Y482572D01*
X303937Y482528D01*
X303939Y482527D01*
X303940Y482525D01*
X304025Y482493D01*
X314025Y482493D01*
X314027Y482493D01*
G37*
G36*
X326027Y482493D02*
X326027Y482493D01*
X326029Y482493D01*
X326072Y482512D01*
X326116Y482531D01*
X326116Y482533D01*
X326118Y482534D01*
X326151Y482619D01*
X326151Y492619D01*
X326150Y492621D01*
X326151Y492623D01*
X326131Y492666D01*
X326113Y492709D01*
X326111Y492710D01*
X326110Y492712D01*
X326025Y492745D01*
X316025Y492745D01*
X316023Y492744D01*
X316021Y492745D01*
X315978Y492725D01*
X315934Y492707D01*
X315934Y492705D01*
X315932Y492704D01*
X315899Y492619D01*
X315899Y482619D01*
X315900Y482617D01*
X315899Y482615D01*
X315919Y482572D01*
X315937Y482528D01*
X315939Y482527D01*
X315940Y482525D01*
X316025Y482493D01*
X326025Y482493D01*
X326027Y482493D01*
G37*
D10*
X402744Y439656D03*
X402744Y409656D03*
D11*
X269280Y473638D03*
X269280Y456638D03*
D12*
X202175Y621506D03*
X185175Y621506D03*
X148200Y621506D03*
X131200Y621506D03*
X155081Y488056D03*
X172081Y488056D03*
D10*
X249238Y408863D03*
X249238Y438863D03*
X504825Y461881D03*
X504825Y431881D03*
X533400Y487281D03*
X533400Y457281D03*
X504825Y515856D03*
X504825Y485856D03*
X533400Y542844D03*
X533400Y512844D03*
X504825Y568244D03*
X504825Y538244D03*
X533400Y596819D03*
X533400Y566819D03*
D11*
X446881Y482369D03*
X446881Y465369D03*
X423863Y482369D03*
X423863Y465369D03*
D13*
X423863Y518794D03*
X423863Y498794D03*
D11*
X318691Y432363D03*
X318691Y415363D03*
X446881Y571269D03*
X446881Y554269D03*
X423863Y571269D03*
X423863Y554269D03*
X446881Y604606D03*
X446881Y587606D03*
X359569Y432363D03*
X359569Y415363D03*
X338931Y432363D03*
X338931Y415363D03*
X298450Y432363D03*
X298450Y415363D03*
D14*
X274638Y409643D03*
X274638Y438083D03*
D11*
X202175Y599281D03*
X185175Y599281D03*
X148200Y599281D03*
X131200Y599281D03*
D12*
X380206Y432363D03*
X380206Y415363D03*
D11*
X198738Y488056D03*
X215738Y488056D03*
X483163Y432594D03*
X466163Y432594D03*
X483163Y454819D03*
X466163Y454819D03*
X483163Y483394D03*
X466163Y483394D03*
X483163Y515144D03*
X466163Y515144D03*
X483163Y537369D03*
X466163Y537369D03*
X483163Y567531D03*
X466163Y567531D03*
D12*
X504825Y587606D03*
X504825Y604606D03*
D15*
X368808Y478119D03*
X368808Y483119D03*
X368808Y488119D03*
X368808Y493119D03*
X368808Y498119D03*
X368808Y503119D03*
X368808Y508119D03*
X368808Y513119D03*
X368808Y518119D03*
X368808Y523119D03*
X368808Y528119D03*
X368808Y533119D03*
D16*
X354525Y547402D03*
X349525Y547402D03*
X344525Y547402D03*
X339525Y547402D03*
X334525Y547402D03*
X329525Y547402D03*
X324525Y547402D03*
X319525Y547402D03*
X314525Y547402D03*
X309525Y547402D03*
X304525Y547402D03*
X299525Y547402D03*
D15*
X285242Y533119D03*
X285242Y528119D03*
X285242Y523119D03*
X285242Y518119D03*
X285242Y513119D03*
X285242Y508119D03*
X285242Y503119D03*
X285242Y498119D03*
X285242Y493119D03*
X285242Y488119D03*
X285242Y483119D03*
X285242Y478119D03*
D16*
X299525Y463836D03*
X304525Y463836D03*
X309525Y463836D03*
X314525Y463836D03*
X319525Y463836D03*
X324525Y463836D03*
X329525Y463836D03*
X334525Y463836D03*
X339525Y463836D03*
X344525Y463836D03*
X349525Y463836D03*
X354525Y463836D03*
D12*
X686031Y588963D03*
X703031Y588963D03*
X969963Y501088D03*
X969963Y518088D03*
D17*
X913388Y472281D03*
X969388Y472281D03*
D18*
X941388Y404131D03*
X931888Y426131D03*
X950888Y426131D03*
D12*
X932094Y363538D03*
X949094Y363538D03*
X950913Y341081D03*
X950913Y324081D03*
X928688Y341081D03*
X928688Y324081D03*
X668569Y609600D03*
X685569Y609600D03*
D17*
X845125Y373856D03*
X901125Y373856D03*
D18*
X873125Y461281D03*
X863625Y483281D03*
X882625Y483281D03*
D12*
X864625Y405606D03*
X881625Y405606D03*
X887413Y341081D03*
X887413Y324081D03*
X865188Y341081D03*
X865188Y324081D03*
X647931Y588963D03*
X664931Y588963D03*
D17*
X778450Y472281D03*
X834450Y472281D03*
D18*
X806450Y404131D03*
X796950Y426131D03*
X815950Y426131D03*
D12*
X797950Y364331D03*
X814950Y364331D03*
X817563Y341081D03*
X817563Y324081D03*
X795338Y341081D03*
X795338Y324081D03*
X628881Y609600D03*
X645881Y609600D03*
D17*
X710188Y373856D03*
X766188Y373856D03*
D18*
X738188Y461281D03*
X728688Y483281D03*
X747688Y483281D03*
D12*
X729688Y405606D03*
X746688Y405606D03*
X749300Y341081D03*
X749300Y324081D03*
X727075Y341081D03*
X727075Y324081D03*
X608244Y588963D03*
X625244Y588963D03*
D17*
X643513Y472281D03*
X699513Y472281D03*
D18*
X671513Y404131D03*
X662013Y426131D03*
X681013Y426131D03*
D12*
X662219Y363538D03*
X679219Y363538D03*
X682625Y341081D03*
X682625Y324081D03*
X660400Y341081D03*
X660400Y324081D03*
X590781Y609600D03*
X607781Y609600D03*
D17*
X576838Y373856D03*
X632838Y373856D03*
D18*
X609600Y461281D03*
X600100Y483281D03*
X619100Y483281D03*
D12*
X596338Y405606D03*
X613338Y405606D03*
X615950Y341081D03*
X615950Y324081D03*
X593725Y341081D03*
X593725Y324081D03*
D11*
X369452Y625062D03*
X386452Y625062D03*
X388239Y591416D03*
X388239Y608416D03*
X368046Y591416D03*
X368046Y608416D03*
X412251Y679990D03*
X429251Y679990D03*
X412251Y705345D03*
X429251Y705345D03*
D19*
X477026Y705345D03*
X447026Y705345D03*
X477026Y679990D03*
X447026Y679990D03*
D20*
X364444Y692436D03*
X386444Y701936D03*
X386444Y682936D03*
D12*
X388620Y641708D03*
X388620Y658708D03*
X368427Y641708D03*
X368427Y658708D03*
D21*
X508242Y679276D03*
X548842Y679344D03*
X549760Y705344D03*
X508160Y705276D03*
D11*
X329066Y625062D03*
X346066Y625062D03*
X347853Y591416D03*
X347853Y608416D03*
X327660Y591416D03*
X327660Y608416D03*
X412251Y733177D03*
X429251Y733177D03*
X412251Y759111D03*
X429251Y759111D03*
D19*
X477026Y759111D03*
X447026Y759111D03*
X477026Y733177D03*
X447026Y733177D03*
D20*
X343362Y746411D03*
X365362Y755911D03*
X365362Y736911D03*
D12*
X348234Y641708D03*
X348234Y658708D03*
X328041Y641708D03*
X328041Y658708D03*
D21*
X508242Y733251D03*
X548842Y733319D03*
X549760Y759319D03*
X508160Y759251D03*
D11*
X265675Y625062D03*
X248675Y625062D03*
X246888Y591416D03*
X246888Y608416D03*
X267081Y591416D03*
X267081Y608416D03*
X220209Y679990D03*
X203209Y679990D03*
X219955Y705345D03*
X202955Y705345D03*
D19*
X153021Y705345D03*
X183021Y705345D03*
X153021Y679990D03*
X183021Y679990D03*
D20*
X269445Y692436D03*
X247445Y682936D03*
X247445Y701936D03*
D12*
X247269Y641708D03*
X247269Y658708D03*
X267462Y641708D03*
X267462Y658708D03*
D21*
X121805Y705596D03*
X81205Y705528D03*
X80287Y679528D03*
X121887Y679596D03*
D11*
X306061Y625062D03*
X289061Y625062D03*
X287274Y591416D03*
X287274Y608416D03*
X307467Y591416D03*
X307467Y608416D03*
X220971Y733177D03*
X203971Y733177D03*
X220971Y759111D03*
X203971Y759111D03*
D19*
X153021Y759111D03*
X183021Y759111D03*
X153021Y733177D03*
X183021Y733177D03*
D20*
X292146Y746411D03*
X270146Y736911D03*
X270146Y755911D03*
D12*
X287655Y641708D03*
X287655Y658708D03*
X307848Y641708D03*
X307848Y658708D03*
D21*
X121805Y759571D03*
X81205Y759503D03*
X80287Y733503D03*
X121887Y733571D03*
D11*
X527613Y300831D03*
X510613Y300831D03*
X423300Y300831D03*
X440300Y300831D03*
X456638Y386556D03*
X473638Y386556D03*
D12*
X473638Y407194D03*
X456638Y407194D03*
X483956Y300831D03*
X466956Y300831D03*
D11*
X511969Y385531D03*
X511969Y368531D03*
X477838Y587606D03*
X477838Y604606D03*
D13*
X446881Y536256D03*
X446881Y516256D03*
D11*
X446881Y449031D03*
X446881Y432031D03*
D22*
X966787Y653544D03*
X966787Y681544D03*
X921279Y653544D03*
X921279Y681544D03*
X875771Y653544D03*
X875771Y681544D03*
X830262Y653544D03*
X830262Y681544D03*
X784143Y653544D03*
X784143Y681544D03*
X739246Y653544D03*
X739246Y681544D03*
X693738Y653544D03*
X693738Y681544D03*
D12*
X913790Y710406D03*
X930790Y710406D03*
D23*
X866276Y710406D03*
X886276Y710406D03*
D12*
X775643Y732631D03*
X792643Y732631D03*
X729735Y710406D03*
X746735Y710406D03*
X913838Y732631D03*
X930838Y732631D03*
X775643Y710406D03*
X792643Y710406D03*
X685238Y710406D03*
X702238Y710406D03*
D23*
X818746Y710406D03*
X838746Y710406D03*
D12*
X958287Y710406D03*
X975287Y710406D03*
D24*
X165100Y596306D03*
X165100Y621306D03*
X219075Y596306D03*
X219075Y621306D03*
D11*
X297094Y326231D03*
X314094Y326231D03*
X266931Y326231D03*
X283931Y326231D03*
X223044Y454256D03*
X223044Y471256D03*
D12*
X223044Y434744D03*
X223044Y417744D03*
D11*
X349813Y326231D03*
X332813Y326231D03*
X381563Y326231D03*
X364563Y326231D03*
X166211Y548250D03*
X166211Y531250D03*
D12*
X187801Y533963D03*
X187801Y516963D03*
D11*
X161188Y325931D03*
X144188Y325931D03*
X192938Y325931D03*
X175938Y325931D03*
X144621Y545538D03*
X144621Y562538D03*
D12*
X123031Y575238D03*
X123031Y558238D03*
D11*
X109263Y325931D03*
X126263Y325931D03*
X79100Y325931D03*
X96100Y325931D03*
D12*
X71438Y446319D03*
X71438Y463319D03*
X96838Y446319D03*
X96838Y463319D03*
X122238Y446319D03*
X122238Y463319D03*
X147638Y446319D03*
X147638Y463319D03*
X173038Y446319D03*
X173038Y463319D03*
X198438Y446319D03*
X198438Y463319D03*
D25*
X333375Y301644D03*
X333375Y284144D03*
X127000Y303231D03*
X127000Y285731D03*
X144463Y303231D03*
X144463Y285731D03*
X314325Y301644D03*
X314325Y284144D03*
D26*
X617338Y424656D03*
X592338Y424656D03*
X953094Y385763D03*
X928094Y385763D03*
X885625Y424656D03*
X860625Y424656D03*
X818950Y386556D03*
X793950Y386556D03*
X750688Y424656D03*
X725688Y424656D03*
X683219Y385763D03*
X658219Y385763D03*
D11*
X473638Y365919D03*
X456638Y365919D03*
D12*
X387985Y388849D03*
X387985Y371849D03*
D27*
X407257Y389493D03*
X428847Y389493D03*
D24*
X74708Y546694D03*
X74708Y521694D03*
X92869Y546694D03*
X92869Y521694D03*
X74613Y586781D03*
X74613Y611781D03*
X92964Y586781D03*
X92964Y611781D03*
D12*
X402263Y108181D03*
X402263Y125181D03*
X429863Y128356D03*
X429863Y145356D03*
X402263Y143106D03*
X402263Y160106D03*
X429863Y162381D03*
X429863Y179381D03*
X402263Y178031D03*
X402263Y195031D03*
X429863Y196406D03*
X429863Y213406D03*
X251500Y359238D03*
X268500Y359238D03*
D11*
X268500Y381306D03*
X251500Y381306D03*
X266700Y549838D03*
X266700Y532838D03*
X243681Y473638D03*
X243681Y456638D03*
D28*
X110500Y194481D03*
X110500Y181781D03*
X110500Y169081D03*
X110500Y156381D03*
X110500Y143681D03*
X110500Y130981D03*
X110500Y118281D03*
X110500Y105581D03*
X203500Y105581D03*
X203500Y118281D03*
X203500Y130981D03*
X203500Y143681D03*
X203500Y156381D03*
X203500Y169081D03*
X203500Y181781D03*
X203500Y194481D03*
D12*
X231679Y139104D03*
X231679Y122104D03*
M02*
